<mxfile host="app.diagrams.net" modified="2024-01-23T13:42:48.972Z" agent="Mozilla/5.0 (Macintosh; Intel Mac OS X 10_15_7) AppleWebKit/537.36 (KHTML, like Gecko) Chrome/120.0.0.0 Safari/537.36" etag="AvS6qzAjZsfiGKxzGNWm" version="22.1.21" type="device" pages="4">
  <diagram name="smooth_bloc" id="nYfWANEbyapREWiZktRv">
    <mxGraphModel dx="1792" dy="2399" grid="1" gridSize="10" guides="1" tooltips="1" connect="1" arrows="1" fold="1" page="1" pageScale="1" pageWidth="827" pageHeight="1169" math="0" shadow="0">
      <root>
        <mxCell id="0" />
        <mxCell id="1" parent="0" />
        <mxCell id="Ur8YxOgUMrOMryiy093F-6" style="edgeStyle=orthogonalEdgeStyle;rounded=0;orthogonalLoop=1;jettySize=auto;html=1;entryX=0.5;entryY=0;entryDx=0;entryDy=0;endArrow=oval;endFill=0;" edge="1" parent="1" source="Ur8YxOgUMrOMryiy093F-1" target="Ur8YxOgUMrOMryiy093F-2">
          <mxGeometry relative="1" as="geometry" />
        </mxCell>
        <mxCell id="Ur8YxOgUMrOMryiy093F-1" value="" style="rounded=1;whiteSpace=wrap;html=1;" vertex="1" parent="1">
          <mxGeometry x="472" y="179" width="650" height="865" as="geometry" />
        </mxCell>
        <mxCell id="ySsQDbIxhDyxc6XboBsa-1" value="" style="shape=image;verticalLabelPosition=bottom;labelBackgroundColor=default;verticalAlign=top;aspect=fixed;imageAspect=0;image=data:image/png,iVBORw0KGgoAAAANSUhEUgAAAwcAAAFCCAYAAACkUqG5AAAAAXNSR0IArs4c6QAAIABJREFUeF7snQd4FdX29tfMnJpOAqEJCIKCiKLYKHYsqCBVUPDa67WLgCCo+FcEVMQu0gQRxIKogFivXK+K2CvYAaWkt9PPzHzfu/ZMcoioxEQRXPM8PKScczLzmz17r3e1rZEcQkAICAEhIASEgBAQAkJACAgBItKEghAQAkJACAgBISAEhIAQEAJCAAREHMg4EAJCQAgIASEgBISAEBACQoAJiDiQgSAEhIAQEAJCQAgIASEgBISAiAMZA0JACAgBISAEhIAQEAJCQAjUEJDIgYwGISAEhIAQEAJCQAgIASEgBCRyIGNACAgBISAEhIAQEAJCQAgIAYkcyBgQAkJACAgBISAEhIAQEAJCoBYBSSuSISEEhIAQEAJCQAgIASEgBIQAExBxIANBCAgBISAEhIAQEAJCQAgIAREHMgaEgBAQAkJACAgBISAEhIAQqCEgkQMZDUJACAgBISAEhIAQEAJCQAhI5EDGgBAQAkJACAgBISAEhIAQEAISOZAxIASEgBAQAkJACAgBISAEhEAtApJWJENCCAgBISAEhIAQEAJCQAgIASYg4kAGghAQAkJACAgBISAEhIAQEAIiDmQMCAEhIASEgBAQAkJACAgBIVBDQCIHMhqEgBAQAkJACAgBISAEhIAQkMiBjAEhIASEgBAQAkJACAgBISAEJHIgY0AICAEhIASEgBAQAkJACAiBWgQkrUiGhBAQAkJACAgBISAEhIAQEAJMQMSBDAQhIASEgBAQAkJACAgBISAERBzIGBACQkAICAEhIASEgBAQAkKghoBEDmQ0CAEhIASEgBAQAkJACAgBISCRAxkDQkAICAEhIASEgBAQAkJACEjkQMaAEBACQkAICAEhIASEgBAQArUISFqRDAkhIASEgBAQAkJACAgBISAEmICIAxkIQkAICAEhIASEgBAQAkJACIg4kDEgBISAEBACQkAICAEhIASEQA0BiRzIaBACQkAICAEhIASEgBAQAkJAIgcyBoSAEBACQkAICAEhIASEgBCQyIGMASEgBISAEBACQkAICAEhIARqEZC0IhkSQkAICAEhIASEgBAQAkJACDABEQcyEISAEBACQkAICAEhIASEgBAQcSBjQAgIASEgBISAEBACQkAICIEaAhI5kNEgBISAEBACQkAICAEhIASEgEQOZAwIASEgBISAEBACQkAICAEhIJEDGQNCQAgIASEgBISAEBACQkAI1CIgaUUyJISAEBACQkAICAEhIASEgBBgAiIOZCAIASEgBISAEBACQkAICAEhIOJAxoAQEAJCQAgIASEgBISAEBACNQQkciCjQQgIASEgBISAEBACQkAICAGJHMgYEAJCQAgIASEgBISAEBACQkAiBzIGhIAQEAJCQAgIASEgBISAEKhFQNKKZEgIASEgBISAEBACQkAICAEhwAREHMhAEAJCQAgIASEgBISAEBACQkDEgYwBISAEhIAQEAJCQAgIASEgBGoISORARoMQEAJCQAgIASEgBISAEBACEjmQMSAEhIAQEAJCQAgIASEgBISARA5kDAgBISAEhIAQEAJCQAgIASFQi4CkFcmQEAJCQAgIASEgBISAEBACQoAJiDiQgSAEhIAQEAJCQAgIASEgBISAiAMZA0JACAgBISAEhIAQEAJCQAjUEJDIgYwGISAEhIAQEAJCQAgIASEgBCRyIGNACAgBISAEhIAQEAJCQAgIAYkcyBgQAkJACAgBISAEhIAQEAJCoBYBSSuSISEEhIAQEAJCQAgIASEgBIQAExBxIANBCAgBISAEhIAQEAJCQAgIAREHMgaEgBAQAkJACAgBISAEhIAQqCEgkQMZDUJACAgBISAEhIAQEAJCQAhI5EDGgBAQAkJACAgBISAEhIAQEAISOZAxIASEgBAQAkJACAgBISAEhEAtApJWJENCCAgBISAEhIAQEAJCQAgIASYg4kAGghAQAkJACAgBISAEhIAQEAIiDmQMCAEhIASEgBAQAkJACAgBIVBDQCIHMhqEgBAQAkJACAgBISAEhIAQkMiBjAEhIASEgBAQAkJACAgBISAEJHIgY0AICAEhIASEgBAQAkJACAiBWgQkrUiGhBAQAkJACAgBISAEhIAQEAJMQMSBDAQhIASEgBAQAkJACAgBISAERBzIGBACQkAICAEhIASEgBAQAkKghoBEDmQ0CAEhIASEgBAQAkJACAgBISCRAxkDQkAICAEhIASEgBAQAkJACEjkQMaAEBACQkAICAEhIASEgBAQArUISFqRDAkhIASEgBAQAkJACAgBISAEmICIAxkIQkAICAEhIASEgBAQAkJACIg4kDEgBISAEBACQkAICAEhIASEQA0BiRzIaBACQkAICAEhIASEgBAQAkJAIgcyBoSAEBACQkAICAEhIASEgBCQyIGMASEgBISAEBACQkAICAEhIARqEZC0IhkSQkAICAEhIASEgBAQAkJACDABEQcyEISAEBACQkAICAEhIASEgBAQcSBjQAgIASEgBISAEBACQkAICIEaAhI5kNEgBISAEBACQkAICAEhIASEgEQOZAwIASEgBISAEBACQkAICAEhIJEDGQNCQAgIASEgBISAEBACQkAI1CIgaUUyJISAEBACQkAICAEhIASEgBBgAiIOZCAIASEgBISAEBACQkAICAEhIOJAxoAQEAJCQAgIASEgBISAEBACNQQkciCjQQgIASEgBISAEBACQkAICAGJHMgYEAJCQAgIASEgBISAEBACQkAiBzIGhIAQEAJCQAgIASEgBISAEKhFQNKKZEgIASEgBISAEBACQkAICAEhwAREHMhAEAJCQAgIASEgBISAEBACQkDEgYwBISAEhIAQEAJCQAgIASEgBGoISORARoMQEAJCQAgIASEgBISAEBACEjmQMSAEhIAQEAJCQAgIASEgBISARA5kDAgBISAEhIAQEAJCQAgIASFQi4CkFcmQEAJCQAgIASEgBISAEBACQoAJiDiQgSAEhIAQEAJCQAgIASEgBISAiAMZA0JACAgBISAEhIAQEAJCQAjUEJDIgYwGISAEhIAQEAJCQAgIASEgBCRyIGNACAgBISAEhIAQEAJCQAgIAYkcyBgQAkJACAgBISAEhIAQEAJCoBYBSSuSISEEhIAQEAJCQAgIASEgBIQAExBxIANBCAgBISAEhIAQEAJCQAgIAREHMgaEgBAQAkJACAgBISAEhIAQqCEgkQMZDUJACAgBISAEhIAQEAJCQAhI5EDGgBAQAkJACAgBISAEhIAQEAISOZAxIASEgBAQAkJACAgBISAEhEAtApJWJENCCAgBISAEhIAQEAJCQAgIASYg4kAGghAQAkJACAgBISAEhIAQEAIiDmQMCAEhIASEgBAQAkJACAgBIVBDQCIHMhqEgBAQAkJACAgBISAEhIAQkMiBjAEhIASEgBAQAkJACAgBISAEJHIgY0AICAEhIASEgBAQAkJACAiBWgQkrUiGhBAQAkJACOwQgS1b7PSR469YsXlrUUvbY5gmefA+m8jWDDL5M2yybcMiMsmwLcsiMnQyPIZGZkKzE0nD7zHiU++aPLRLu1af7tAflRdtl8A36zfvO2rcTXNLK8P5RHpS02zbJs3WNSLLRrcR29Y0g2wb90UnIos0zbDxv20T6VbS2zw/d+PEsWPPbteuxfrdAfOKN9/pd98DM6ZEIjGv5vGYpmbbZFvAwraOQZpGlsG9WEAEpAxDo0QiRrqua1Yi4T/04G6rJt085iJN0yK7AxO5BiHwRwiIOPgj1OQ9QkAICIF/IIFC2848rsexm34qKMrw+tIoahFZGpFuw96ySbcth4oyvTTDQ/FknCASfLpGAU0jzTbpuacX9zhs/w7v/AMRNtglf/zFukOHnnvZ6q1llQRZYBgGc9Z1nb9PPVg2gL2mlnx+XTJBe7dtUfnEvBmHtGvZcl2DndhO/KDHn1153tWjxsyyYPz7/GSaJo9P9+BxiiaNtkGkmWTHk+QPeMhMJMnvIYpGwnTMkUe8f/+8R45upmmhnXgp8qeFwE4lIOJgp+KXPy4EhIAQ2HUIQBz0Obbvdz8VFDWJJS0yfBmU1Ig8HDuwECvgizE1JQ5glHoMeGqJNAuxhARZ8Tg9t+Sp7ofv2/bdXefK/35n+uFnaw8+69JRb24uKU+DIADnRDJJhq6zCHAFguUIBT1FHJiWRbYZpTaNs4oWzJ3Vs9Nee3z997vCup/REy++cfa4GyfMiVikRWJx8vh9KR/ijENbJ93WMSD5d7puUTIRJ59BFI9E6Lgjeq6ePvu+40Qc1J2/vGP3ISDiYPe5l3IlQkAICIE/lUBhoZ15/OC+P/xcVJKnG36KkUE26aQRDC2rWiSYTtIGPLcBv5/sRJLMZIT8Xg8FNJsenz2ne69uHUQc1ONuQRyMuGTUm5tKKtIQNfB6vRSPx6sjBK5AgEhwIwduVAGRA9uKU6fW+UWzHrx3txEH85a8fM6YCTfPjpu2Zvj9lDSR3uYeEKxKtHogDogoQSb5kYelWWQlE6QlonR0z8NW33f7fcc1ayaRg3oMT3nrLk5AxMEufgPl9IWAEBACfxUBiIPjhvb/4acthXmax0eoOUgVBzXnoYwvdSjRoON/K0mGZtJTC+Z1P/wAEQf1uW8QB2dcNuo/m0oq0yEOIABg/NdOLUqNIuDv4XuVVhSjvVvmFc195IHdRhwsfP61c66/YdyshO7RE3ytHoJQdVOLOGLgiAMTklZz0q/sBPkNjWKhCjquV4/VD86eLpGD+gxOee8uT0DEwS5/C+UChIAQEAJ/DYFUcaAbAUo66UOpQkB9nSoO4Km1qsWBVzPpSREH9b5hShyMfGNTSSjjj4qD9q3ziuY9uNuJg9kJ3aOZtka2jjL53xIHRAnNJq9lkt+wRRzUe1TKB+wuBEQc7C53Uq5DCAgBIfAnE4A46D20//cbtxQ2hjjYVgS4xcg14gD1CMpTa5FBSfI6kYMnFzwukYN63iuVVnT9G5tLK/6QOLDMKLVv2axo3iMzenbaq8luUXOAyMHoG8bNTpJHi6PugsVBzaHSiZRwVaJB2544ePfB2dN7S81BPQeovH2XJiDiYJe+fXLyQkAI7I4Ennz+5TOeeuaZiwKBNMtCW5WUQ+O8ENg4FpEHXVc0zXBeYWgeLRGP6ppmew7vdvCyf1884o6G5JMqDpBWpDlpGu7fcOMFiBPgcMWBz0b/GCUOvGTaC594vIekFdXvznz0+bpDhl888vV6ioPCeXNn9Oq0x+4hDp5c+urZ14+9cc5viwMlXjE2kRLHR2pa0ZGHv/vgzPtEHNRveMq7d3ECIg528Rsopy8EhMDuR+CeGY/f8n+T7phgeP1syLjG9jZXqlmUJJsS8MrbOnlJJ69hUDgSIq9ONKB/36WPTrutf0PSgTg4YUj/7zcWIHKATjDb1ha437vnC+8suhixOLAt8tquOJgn4qCeN4bFwaXXvr6ppCZygE5F6ESE/1O7FLlfs1msafwaOxlH5GC3Egeq5mB8dVoRaQaLAEuzuN2uW4isdn1wBQLEgUlB3aY4ag6O6PEuuhW10LRwPW+RvF0I7LIERBzssrdOTlwICIHdlcBdD80fP2XaPRMNb5BM3WkLWiuPH9duaiZZuka6pROZFvkMD2lmksxEhAYP6Pf0A5PHD2lIRo44+GFjQWHetuJg2/0NXMPLjSwYBAGTFHHQgDdDxMEvYaaKgwQXHKv2paogGQJBd4rj8R0iW45MsE3yGjYlqiAOeok4aMBxKh+1axIQcbBr3jc5ayEgBHZjAlMhDu6ePlEPpHHqQ03koMZT73pEkWUEr2gymSS/bpDX0ChaUUZDT+/31MN33HR6Q2JS4qDfDxsLiussDtxuRT4yLaQVdT+g7eqGPLd/2mc1UFpR0by5M3ruLmlFC59/A5GDOXHdQyhINnWDowbuoTZBU/ty4HDT3nQ7Tn6dnMhBz3fvmf2gRA7+aQ+UXO82BEQcyIAQAkJACPzNCNz1yILxk+++byJ5vezdVPsG1AgDeORNGD2axS0svYaPbKSTWDa3Cq2qKqfzhw9dfN//jRnakJfG4mBwvx83FhbnqsgBjm07E7mmWGpOtzellamIg4a5Ix99/t0hwy++uh41Bwlq37JJ0fwZM3p1bNdkt9ghGeLguhvGz0mmiAPevJvjBDWHKw7wE6S9qWdIIgcNMzLlU3YHAiIOdoe7KNcgBITAbkVg8iMLxt9x9/SJqDlw2zHiAt1+7RAHMGo0LalMc9tLtq2RlzSyrSQlohE6Y1C/xQ9PHvuniINNW4tyba+XmWM3ZMPyVPPHOdpakrvEWE6rU5+FXWnhsU2SjxLWwifm9Oh+wN4SOajHqHXFwaaysgyPjvv/W/sc1Cz17j4HlhmDOCieP2NGz91FHCxwIgcQB6jH0dEjy9nBe1vUKp0IzxCOpK1x1C0WLqcTeh3+zvTZ9/aWmoN6DE556y5PQMTBLn8L5QKEgBDY3QhAHEy9a9pE8gVZHEAMuCkQML5VegQiB0ne1IpsD9m2QV4yiFBzEA3R6YP/anGgIghI42BxgHoInA/pJOKg4Udog4iDVnnF8x9+sGfHdi13i8gBxMG148bPgSxIksbiYPuHW5JskalBHBiEvSISoSo6vteh79w/e5qIg4YfsvKJuxABEQe70M2SUxUCQuCfQeCuR+aPn3LXPRNtX4BI825Tc1DjCYURjn1g2fzmyIFBBlkWxEEFnTG43+IHJo//CyMHIg7+ytHZIOKgZZOS+TNm9NidIgciDv7KUSh/a3clIOJgd72zcl1CQAjssgSmPTJ//B133TNR9wTIMoyUouRt8/vhH+XDVmk9mmZwWpEVqaShQ/o99cDkGxu+IHlwvx/dtCJTQwjDcNKKRBz8lQOuocTBvLkzuu8uBclPvPCfc68Ze+NsiRz8lSNR/tbuSEDEwe54V+WahIAQ2KUJTHvksfGT7kYr0wBZmpeIawx0/n+bwmRXHJDOqUdIMTJtJQ7OHNL/qXsnj/1TxMHGwqJc3fCSiIOdN8xEHPySvYiDnTce5S/vXgREHOxe91OuRggIgd2AwN0Pz7txyrR7b9W83mpxAFGgdnTFP0zdttOFhbdL3kYc2NEqGnZ6v8X3TRr3p6QViTjY+YNMxIGIg50/CuUMdlcCIg521zsr1yUEhMAuS+DuGQtunHLX9Fs1w8tpRdtGDnBZKoVHtWi0HNGAtCLVrciMRWnokL6LH5z053Qrqqc4sBc+Mae7dCuq3/BsEHHQKq/ksVmPHr5vq/xv6nc2f493S+Tg73Ef5Cx2fQIiDn7nHn77c3Gr8oqq/J83bcpfv3FD5+Li0pbxeExDxxAP6XpednZFs+b5X7Zp0+bHVo1bFOyxR9YGTdPiu/7Q+OUVlJSUZG8tDbUurajKjFRUBCrCkaaRcDTdF/CGMtOzyrKyMysa5zXb0r5V9sadxcC2bf/6reUtikuLcsNVkcyi4tK8cCSUY+jeaF6jRkWZWRkhnxGMZmZnlXpaZf/cVtOiu/K9Kimxs7eGi5qWF5flFpcUNi4uLt6jpLgsNxIJ51g2xfMa5ZRlZeUUNm7c5KfcxrmlzZrmF7TMDW7R0ANzNzuKi+2ssnBh08KS8rytBQV5FRUVexQUbs1NRmONLE1LZmZklOblNi5s0qzxT41y8kpzsjML2zVvtFnTnKrevxGPKTOfHHnn1GlTsc8B8S6v2EIMXYp0bmfqbuaEfQ74wL4HkAi6zuIgGYvSsMEDFjw8adSIhrwsZxO09RsLihrVI63oD4mDtVvK2oYLi/MqI6G0isqqvKryykYZgUAoPSNzS05OZjwtIxDKaJz98x5ZWcUNec1/18+qrzggM0ztW+aXzJnz++Lg5+Jwqx/X/7zHhp/W71tYUNg4FKrIjMfiaf60YCgzI7Mkv2n+5ib5+T/nN8krzclpuqVFlla0M7jtLuJAzWUVTUsrSnKxlm3aUtCmuKAoNxSO5Bgew8zOySnNzMosbNOqxcasjOzSRtn5RW2bBzCX7Xa2B9a4gkhRs6IthY2Ky8vzi4uKW5aUlORVVlZle7we0+c3QhnpWeHc7JzSpk2aftekRYuCvNy8wp01BnfGuP8z/qaIg1pUbdvWP/l2Q6fXX3lz0Ceff9Zr7dffdiwtLWlZXFapJyyTvB4P2YauekpbNjcex9fZaUFq2rRpcas2e6zr3Lnz20cc3v2VLj32eztf06oa+sbZtq09Ou/JKz/78uujSffEbNIsW7PVno/4QiP1tW6Rx1It28hC20NDs8nS/X6/VlFRYZw+uP+83j26vfhb52fbtueN97847LVX3zjzk48/7rF+48Z9CotLglYySQY2aHJ2moxFopQWDFKbNq23ttyj5bcHdun8fo+evZ7d+5BOa1ppWqShGbifBxafbi3f84uPPur5ySef9vj666/337RpU9uiouL8stIKj2mabDDpuluwqVFGerrdrFnLwqZ5jb7t2rXz2/37n/bEAe1bfKppGlqz/60PjM+vNpe1evudd09Z8/77R/347Y8dIAgKCgsaV1ZVafAcoyUfxmTNteu8e252VpbdunXr9flN89d37Njx816HdX/xxF77r9I0Lfy3vuhfOTnc++82leyxas1HJ69+++1j16/f0L6kpGSPgoKC/PKKCmYAFmDCHnXbZg4ej4ca5eRYubm5P7fdc8/1e7Rp8Vnvo49ddkiPrv/N07SKv4LFux9/fszjjz95uebxJ3SPx7STumUatu3x+uxoNEZrv/2u6xdrv95f1xAbUFECt0tRat92XFfSSnBKEXk9ZFkW/8sM+iknM3Pr0T26v0aWSR4bDRtrDpsMm9ug2prmMTQtHIt69+/cadWl5wy997euv67iQDN8FIsnKdMToGQszvscZAc99oLHZx1+SOd27/3O3KN9+M3mjh++v+bk/779zjHrvv7moK3FxfmVFZVGIpnkuZjroYko4PdTTk5OskV+4+86d95vzVFHH7n0qG6HvdqokVb2V9zPnfE3dkQcYMyr8a/mBPfAGNGsCO3dqlnxrIfu7b7vXq1+ETnYUBhq8dIrr/X/+NNPT3nvo4/32/TTltbxeJzHFy8vEKIenWLxONm2SelpaZSbnZls3qz59506dPyufds2q04+/vgl+7Rt/I2mpWxT/CfCShUH2H+Dn4vtHs66aJukGTrFTI2vx4pGqHfPQ/7yVqaYy778vrTVR5+8d+JHH35y3Lpvv9570+ZNrbcUFDcyTVNPmjbHB6vnMtgdvJMIUX5erpWX12RTs/wmP+7bqdNnR/Q8bPne+x30VttddOxjjftmQ8Ge/1vz3gnv/m/1MQWFhXv/+POm1kWFRblVEeXLsw24ZpUdhsNgE8cin0en3NzcivZt2/zUomXzT07o3XvZIYd3WdEqO7vkTxx2u+VHizhwbqtt24EX3lh94qKFi/695oOPji8uq+DBFwims0GBBdnwqE1/4lZSGR6kk9/jp0TC5PaBODQTGxPZlJOVSbk56d9feO45007ue8yiFllZDeZJwURy0ZVjVix5cdmJ2FIoqW/vNqqHxmOpSdw1GMPhMHm9XvJ4dbr+iktvGnPlBRO3N7LhgZ/3zEtDFi1++rIfN/x02M+bt/IsG8zKYuMqHo8xF9K95Av4yU6aZFoWeQyNQuEQ2ZZJ+bk5VusWLX487ZQ+j/Y7tc+C9i3zNjbUU2Tbtm/5f947Ye7ixRet+/q7kzZs3OhNmib5vH6+Xu797nRvUbOJ+plrPMET64UHluKYUBKHHHTg/84cPmz2sYf1Wpadrf3tJpIttp3+7uvvnLBo8bMXrf7o42NC4Yg/moiT34MWlo4W1I1trl0Zwwny+fzqXjkLelWoijnk5zSi5o1yNw067ZR5fU4+ZXHnDvkfNdT9+TM/Z6NtBz9543/HL1264sL/vvdx79KqygDGnMcweGyq6zTI5/NRLBZlPko0qd+ZpmLh8XgpGg3z7zAW9mjerOCkE457fFD//gsP6tj6/T/zGuYvWnLptWPGPRi3faQbfj7HuGmSpmtk+LxkIJ0Iu7byDsm/fiY+nQjjnndQdpwWbDhrRGk+H4XKKiADSLdrdoi1nA5DhFiDZWKbKJ6/Tj35pFfmPzztpN8y5OoqDrDPQSJpUbYvjci0SDfj2ASN5s2dcdiRh3T+VXGw+pN1R8x67PFr33zr3ZOKKisD4UiUPF4veQNp1c8x7pvf8BCuF/zwLxFXfoi8zCxqkpe9ediQwTNOOvbYxZ07NP/yz7yfO+OzHXHwxqaysvRf2wTt18QBzxnJGO3VMrfomYXzu7fKz/7WvYa1P25p+8yS5y5e/MySS7cUl2WF4kkyLY38gTR+plzWeD3vgs2br6mUNiuRoHgkRBC1QY9OGcGA1av7YauGDhl03ynHHL5M07TYn8lqVxMHsDuWvr7m+BeWLT//gw/eP/6nnzenQYD5gwEKpgV5czY4eSwL4kA5Odhh4Ix3v89HlVWVZOBZ8AcoHgqRRSZ169yloFePQxf0P/W0Jw7q8ufOZQ11PzfZdtqHq97vvfjJJy9+593Vx8bjyUA4liBbQ/qkQZrPw/Mi8TpOlLAhcNXkaDhrvo09Xqw46SaRR7cwOVLT5o1LjzrqiBWnDThl3jEHHfDqruAEbCim9fkcEQdE9PTr/xu08PHF17z99ts9YklTy0jPoigWXDNJtuZ4nD0GGx8wqmJYxNnY8PIghKteGSSwPCz25GExxgJtmwnq2rnjV2cPHzb5jEEnLWiodI4Lrxn73OJnnz8tkNmYbKrZnbQ6zaB6VFi8eHo0nQ2NeCLieFQ9NP6aK2644vzT76g9gN778Jujpt4zbeLqjz49MgbhY+ikGz72vifxvCXVxksQHDELBrmXhQF+zgw4/cEkn66RZSZIT8SozR4t1p915pn3X37+sIe1ekRTIIwCtx9YAAAgAElEQVSWv/F+v8cenzfy7dVruoeStgEDBNeGCQKGCA54FdkTZFl8btgMR0UQ1M9wrujqEvQblIxESLMhbpJ0QMeOn1188Xl3DDm19+KGulf1eUALbTtz+ZKXh8xfuOjfn372RdcEAlbIQUf7SF+AzGiCvHqNUYyFGtfnGgX4Ggaz+3P3+vFzr0cnjxUjKx6jrJzMit69j31h+FnD7urRucPfUiQUFBRkvL7684HPPP30FW+vXn1QJG7ptifIxjWu0RV/Lm9XJGJxdXeP5W4+/GybvFkX8nMwjtmA1myy43FKD/qrTj7huBXnjTh7yp+1sD7xzEsXXH7tyEcDGY0pqalzrx6btqXOye+jSNTNerOqd0dW12dxapEX14MxrlbIFAGsUo8C7D3lJ7J6GFb7jzWL/PillaRoLET9Tj5p2cx7buu3A+Jgw/qC4hzN48OEt0OtTAPkISuRJC+ZFNBNenz+rEN7HrjPmtrPRmFhqMUd9903dsVLr17wc1GRP5iRTTHLZg+w7TFI09VYdgWxneLFxvwMD7adSHJqlaFZFKsKUcf2e5b069vn4cvPuejOnByttD7P49/pvfUVB9ghuW2z3KLHHnv08C6tm35XYNsZT81ZdOGTTz197Xc//LgHxqXuC3JBvKUbZNoaRS2TxaiPNJ5j8T0OfM8CwRmbHuyGrRPP/1XlJZQR8NMxR/R478xhwyadelx3iAS1QUcDH7uKOIAh/M7yVf0fnj//qm++X39wQWGhjnXU7w8ykSTP4Rb5vK4Y03izNggD1/FlWxqZuqbWXVPNGV5Do6SZIIolyExGqVF2ZmjIgH4vDTi1/52HHdR+tQbP5d/sgOPrjeVvDnxs7mNXffTJ5wcahqHrHh9FIhHyBINuGgTveO1mavA8rhuU5g2otdy1yQgiymQ7zKY4pfuCFIuHKBmPkc9vxHsccuia4WcNe6jLcUc+3eFPFqp/M8x1Pp1/tDj4obQ0Z/q0WROfXb7sis1bCigvN5cNfRjEMDYMDwxilZIBIzg1PYHzfskgj+YaXnjmbPI4Dy976thAtilUVUHZQR+d2ufE+ddcP/L6dk0zttb5TtV6wxWjJz7zzPMvDkx6MshKFQecmVxzeL0GRaNRwiKKtB8YFXiQEAq+/srLxoy7bPjk1NdPvWfG6Idmzr6tpCpipGdkURR5Q4anelGGJ8MVBtXGN6nFGosGPp8Nc02lcPjgnTQTZGCi0yw6oEuXdybePOHabvu2fbeuDLZW2U1vvvmWSS+seOmccCyuGf4AXztyn3G/YPAiiuMahYlEotqTzLlWjlGB8+f7a2gUjYTI0JKUnp7BIqGqspzycjLsfqeeuviKf18yaq8WuRvqep4N8XqEVpe8/Pbpj8yYOerTdWsPLKsKU05OLlmajiwRnhhjsRilBzPgCud76goCXH/to9qYYi+f+r0J4QYhayUc4RilrPS02KAB/eYNHz7srgP+RrumPvfa2wNmzZw9bs2HH3fDOPP4/QTj1LQ8RHqNN7PGU6rut5tO5PJwhRMWUg9SIqwEi9tEJMrjNT3oZ4PGjEYp6PfGTjvlxCcvuuiiO/ffq9lnDXFf3c9YsGTF+aPG3TxT82VTLIEEASVS1H0xlQNCt6vHL54rx0nmfESNOMAPEkgjc2oOIOY9SKeAwWBpLBJQq4ADn1HzOVD6MXZixBNh6tfn+BdmT5/Uv6HFgcfjIyNhUyIao6BHowyfRgsen3XoofvttY04eP6lVaf93+Spd20uLNqrKhwnX3o6JSwlCgzdQyYLX2KvqTos/jmn0DkiwdBVpBRzLwymoE/n5zoWKqcjeh7+/sSJEy/q2qHl31L81nV81UUcbNP+1omgQkB1aNNi6+OPzzpYj0X1W2+f/NizS5YcjXkmFE+QLy2d4kmipK424Ytbap7XDSVk3WdLc+ZWne+LeuZQIcMGq26xwWpYFpWXFVFG0E/9+/VdedaI4RN6dN3nN9PK6soDr98VxMFzL7894KGHZ4xZ8/Enh2r+AI9rj8evUpadsY1nVK2n6nDToyAGXO4cKTNtnr88uq6cBGaCvKSxMMMarJsmhcqLqXGjnGj/0/ou/teZp9+5f6e9GnQu+yP3yX3Ps6+/N3DmnLlj3n7r3UPS09N5HSoPh3guTEvPoFA4SjaiqY6TNol2zpwRoClnYFwxQqQYyQKYQaF/MOdh/ozGIkRWggIBPzssI/zZGvU+sfeKq6668obD2u3xSX3Of3d+7z9WHHy5saDDpNsnP/LSqneOgTcKgzGaVIal1/ARQnsJPGSO0enmL2PxwcGhfH54lTfafXhdD6DBRniCLBgyuklWLE4ZAQ9179btvTFjxpzVtdMeX9dnYF06csLTC59eOsiTkUtJ8pD9i5ROJRJ8zsMELzk8azhv10i+YeQ1o0afO3AqXoc0onG3T5u0YOGia5JIT/EGqaIqymlVWHchjuCpwGeAFaIjML7dvD9wwuQGj4d7JBMxftjJTHAUQTPhpY5TTmZ6+Jqrrx5/8YgB03c0xLfmix8PnDh50sP/e3vNoYGMTBYEkWicQ90lVSG+F8FAoNrAcsOv8USiOu/cTSlyvchgw/c3iZxZLGzw1BgUKivjLjDdDuj81Q2jrj/32O4HrK7Pvarre9//8seDpt/7wC2vr3rr5FjC1GEkIecUC4ESZOoTfWlBwvWlCgP2OOM1TgSBc9JRHwJj2DCqjSjXyx7w4N4nKQ7DLRBko6po6xbav1OnwgsvOHfygDP6PfJn1M3sKJPPv996wLQH75+wbMXK/om4qZNHCUGP18/3H//HbZXasI14T4megBmuHYdaQJXQ5+c26ewwrLuRB3idLf6dz9ApGQ1Ri2b5pWcPHzb11EEnPtAhL69BahJmLX7+/OvHjJ/pCeaQpXtrvIHVKWJqXlHpYOqGby+9CIYAriVBNqEmiiMKiJDB0w6jw8bXqeIgVWTAcDMIofh4uJL6nnLi84/de9uAhhQHSUtFWH2Wjsoojhz4tSTNnzezOnKAaOCcRUuvuG3y1DsiMTNocRG2Mkgxx5DXVx0Rce+zmrMwl6n7iIOfb6SLoc6E85DVXGcm45Tl91IkXEV7tmpZOm7sqIv69+759I6Owb/r63ZEHLiGlOsc2eYZMRPUpmWLzePH3XDV/ffcNf6999/v0qRxY4om46STh8JmknQDm/Ap55A7/rykHD+ISKtnS41f3F93buVnzU6SljTJ71W7dns9sNNiVFxcRPt17FQ1fNiQKWcNGDEtP7/h6vL+zuLgg7Ub958zd96EJc+/OMDw+vUY5iKMX49BuubhsY5/nPaLtdSJ0Kc++6nODrD2+lHTE2eHEdZfTh/myDhSaywWCGlORKGqooRaNM0vOffcc6adNuTk+9s2arTT6nG+2ljSZcqUOye88da7AyqjYQNzBK4NaaAeX5AFT0U4RAFfsHpexxyHcczZAIj84vqdDAE4amEDuc4fRK4wFwYCAUrGo5wVAEgQCfF4lKKxGLVqnl92wb9G3H7NBSNgh+x2hdz1nbf+keLgu58K9z77/IuWfrb2m45pjZpQcUUlZWZkkN8bYNWKB9PvC/Dkl2pIcMvAFO+z+6DWLE41RoqbxhHwe8lDGpmJCGmJBIVDlXRw1/2/nX7P3QPr4428YvStTz259IXBti+TXDWtjAin0Eotl0QJi7w+1yhE7iJuuVo0x40cPer6c09jcTDujnumPTxz9tUwum1cu2mRL5BJVeEws8BD6KYOuYaVj6MnKm0J/df54eYFWSPDSfPAxJWZFqBIqJK8OpHf62GPd9DnoTOHnf7AZTdcOfL3Ogat/O8Hp9448ZZZX339XX4gM5d0j5dKSsopt0ljJ40IRr2fPQYofkwkYk4BMuo/YBSq//F7/A+Bh3OEUHInYxhZmFDd0Cxylw3bpL33ardpyuTbB3bv3PYvEQgPznnykqnT75+atPSMqliU/IFMCkejHG7GuEQUCIuHz/BQRaiCfEgtQmqM7iHLxv2tMZpw3bh3sThSU2BswisN7yvEgpe/d1PBkDKmWUle4AM+D1EiQRXlpXTyCce9OumOKZftlR/4y1sdznnyxfMmTr7j7pKyimyPP42FKiZ13H+f86zifnFxpaYiAbhOiHL+nkPsWFCUiGePEnuanTFqOVEm1A95vTwm4BRgFppG4UgI0QMyE2HOoz7tpBNWjRs37rLObfK+qO/Eu/D5V88fOWbczKjmr45QuuLVnVcw97jRhNS/V1OQrKIDPP8YOiX4uVbPNq6XUzvctEjnA1gCaxYlHWcCIgvc+jQRpQEn93l+9rSbB/6WYOeag6Gnbly/pTR7R9KKkJaJVL+AbVDA6yNKRMkwo/TM0wuqIwc33znj1ocfnTlOM7xaOBEnbPzmxbiNxbYRBhBybtQPhYc4Iom4E6n08NzjOmwchwcFPaoQ18bn2hZHCrOCgcTtt9164YiBvR+r733cme+vtziwLKSdmB6PHirYsjUrOyeTqqoqmWFmZhbPpTBeEaWEIYb5En0vMNz8TvQARqkarypdj9c9rab2ye+B0Yv6tDiLBI7WxeMUi4YJIuOkY458Zcodt5+3R17aTw3BsmHEwcHv3j/7nuNaNGCjhidffGPEbZOnTv/uh425WXl5FIrEeIy749StC3SLvV3njZtClOoYcKMLLMA4iqoip7FoQhXl+nwE7liv4QCDOLaTCTI8GmkQdfEoHXv00W9PGDf6kvrYIH/0fj2z7M0zJ9z6f9M3bS1sbHm8FEzLVM4PrhlUIkE5OogdkrimOOoL2KGj0oVVjYFKoXUdPviaxarHx9cNJqFwFaEuIz0Y5LUTayEyKDBPhkKVlJcepFP6HL9g3NgJV0t3o23v6D9OHGyprMw/66yLl3+5dl03G95HWyOvP4MHVTiiaqVcbyseMvd7eKGqPc+aMwgN5YlUhzJS1MQIT4sylisqK6lJbg5VlZWzoZGeFqCtBVuo6377rps144E+HZvl/PBHHrILrxn/1DMvLBtMwUwuRoQhAOXMubnVUQSVD+zBeSZMnhxQuAavP4yg0dddO+aGC4ZOvv+JJVdPnHjbNISNA+kZLAywQFdGY/xg8WRkquvE39ENFdrXYFwhsQdq3ukKA5EAjx8ECwwRd5LDg4/wckbAR+gk4/cZZCUjNKzPCc/cNOqqc/Lz87fb1em5lasGX3/D2PlbS8sDuU3yKRSzKBxPUkZmNoXCYa4VgOiA5yCejHHORDDNT4bupUgszFEgJFyYSZs9WXid0gtKyMC4RpkCcs5RpI3zxH30c71EjOxYmNq0bv7j43PmndK5Td6fVtRYWmrn3HHv3Xc88dSzF8c1ld8L5B5/enWOvIfFjcaTPbzBwYCPIkmTk8txXZxrCWNPs/g+435HwjG+XnyP6+OWlxYiWsTeZhiVvMDg98gZNi0V7dKQz05kRUPUskWzjRMnTrikz1GHLP8jY7Wu7ykosDOmPXrX7YuefPoyHraBAEWTaASgDI+kbfGiwZM8UqNgEGMR4RQ2TpxjHrh+vl47yT8HF4Sn3Z9jXKDLBQQi0rVYGKN+yFAeOLVQY5zHubhNt+KUl5m+9ebx4y4d1OfoJXW9rtTXz1uy4vxrrx8705uRwx2/EAHiOhDdUF14nKK76vekdF2paWUKdWdxEbONAcExdeXAcOctK6lC7O4BYWBpprOzsUaGyaEjrpE67ZTeS2dOnTCoIcWB263Ib6F5g5fseISChkXPPrPwEBR93zfv2Wtum3Tn3Zg/kGONSAOe7aqqKvIEVGSMo7nsfsD8hjuCwasiZuRVhigGOQt+5Bw7c7Cbnx2urECHMjZO8ezEQxFqkpcbvu+eKX2PO6zz6/W5jzvzvQ0hDiCi2WkQT/A84aaku4aW5aSRqlQ1GGsoXk+QgfmBhbiakziih2dG0znC6S6LlZEIOoOpOq9YhHw+lTqTMOMU9HooUlFM+3Zo9+WMhx8Z0XnP+jdE+LuJA9RxTLrp9onPLFl2TTSRJBO1e4afNK+PHR0Qr24EHnOOKj52BH/K4ErNDEiNnuElaGTAkU6vn2zNUJEEpxGJF/cjmaSARzmHMMdDrMUTcWqek7Xl7lvH/bvP8Uc9+1eM402b7LQZ8x+6ec78+deHkRKbkUMREwaFipLgulMZ+P3+auesG/FiweB04uP1HGufjiJtN90I85la0/CZaWkZysmASLtPZYTg536/l9C7saqskJo2yqJ9OrRfc8eUSf/av22LtX8Fi13hb/zjxMHV426bM2/h4nPSMjMpBqvQ42dj01WkbpgKD1hqCA8To/I8a9UdGuBpxeCsOTA5Ki8KD2CyKd2fRiVlJdQ4N5eqKsrY64uFGOGz3kf1WDXr0Xv65WpaeV0Hy4UjJz717LLlg8kbcEyhbWsN1OcpcaDDUxhPkNcDb7HOEwO8zDfdOO76nr16rhg8eOA7VZXhzIzsHCouLSMf8tidnVhTvRS4fnBgI8wxKLzOA821GlaCuxdhlYHSh4ELnljg2SMAT180zOk/+M5KhMiIVtIF55wx47YJ4y6uzeDF19/pN2bcjU8UlZSnG94gJeBRwALF4sv5XJ7tVNqMO7GoSUPn4i3OT3eEC4Qcp4el5MuihZ3P76dYJM7GlU/38sIVMJDjHCcNHi+PRgd27rj6oYdnntzqT+hktHZDqMWkKbfOWPL8slOC2Y2YH+pekPMLbxBLT1wfIkGmigQhcQJeEY/PywZRaloNm8aWzcY/PCjVha6oL0jNFdY0irupcwk1OafBuwtPTSJBfuR6Y6xGw9QkN6tq/LjRl5552gmP13Ws1uX1W7ZU5t84adLDTz33/AA8oywGuCuWhwyvjyDv2FuEcLyz4RdEk3vwvUWI2VlA8HP3mmE4u10+ql9vqo5AULwJ7vrjdDSCfnQ6/Gg2ir5VmooZC1Pz/CbRKy+/9MqLzjjt0bpcW+pr5z2z4vzrb7hxpulLo4Rzj1BczE+tM06RGoRrxGL3a4dX96qF0E7y+IURkcAz6Vy34byXjWr+eIvMFHGga36y4wk2+vr3OXHpnLvH/744GNJv48aC4mybC5LVYaD2gw/sw2CRrSV59lFpJh7yYsRaSPGJUk6anxY8NqOr5TEyhg0/+z/RuOVJmElKC2ZwzVCc0ynU84xDRWtNTvXDuEcusYoGaqSbNiX5/iuBAOGUqK4vgtcxSdlp6ew1jMYjlBlM4/EDw6xT+9Y/LHl87tEtcoM7pa7oj44d9331EQc8EtgIVYYZnnWL502Xt1rr4OhR0RhnDkLRPnfrQ3tcjTSfj5KJmlQ9W1fPHjthMH8Y6AgWVZ/rUc8yPpfFdyJCft0mLR6l9u323HD7pNuGHFnPOoS6igOsZZgzeB3QkEYYoWN7NUzkoLzczh1587gZK19+dVAYEfxgGiVMRNV9VBWLE4xfzCncwISfWOdZctYrGLLuM6DuBSI3yvmH/9VzQITEQ9fmUBHSGrMOzhDM5YGAl6y4EtQQaByVpDhl68nQTeNGjxwxdODD9R2Pv/V+1HfeNen+h59csnSoN+Bj2wscNA/S/WLMAvMwipBx/vge1596La4tgroLN50yngyTF2lZiG5BgDqRLLdGIRZLUFZWFjsbcKCugVMV4XnTkuT3eaisuIDS/T7qsm/HLx+6f8ZJ7VumNVhXxT+T6Z/92f8ocfDUiv8MuX7MjYvDJrzIyPXzssfxt4+aHuPwPsPIjSYT7LVEJxFDMznE6vbdhqjAa3CgqBCLIjyVGNgclkUxrIH2fkmKRirpqgvOv/eOGy6/qq43GuJg8QvLBnv8wV/t5YxJBB5TDic6XU0wEbrpNKOuvmrSV19+vt9LL7/Ul7skaAaFIwn23FVWVrJXHe+LwvMAFQ8PLKdoqMU14PFQ0OtjzySuGx5dpLFAprAHxGmt6F6bygNUPLlgCMXLdpxTrkaNumbsNReMmOS+9u2P1x164eWXv1JUXJHlMXyclw0nAz4bRi8LFZ+f9Q9Y8mcipIggh5mozn2Fd0DVRaguG/BOepBDC+EAQ8NGlAMREfyPKEiqIYYcZpMjJLYZo3PPGvrAnWOvu7Ihe3Z/Wxxuddll1y16/5OPeqQFMigcj3EeKV8TiklTioshCaoPp0YCIN0uDrxQYDgjhYpzfm1ucYfDralwDWkY/egDjkNJSBU9cQ+3tz7y+eG1xb3S7IQ56aYbrr7g9L7313W87sjrfyioanbN2BsXvfT6f47yBzLI61eRARw439QD5w4RBDzKw68WRSVBlYBIPcAFY6YmLVCNCw2GNDYWcyOGTmtG973sIEjGWdCi2w5ZKHILUSAQpNHXXTXy2nMG3bUj11b7NfOeWXn+qAk3zbS9mRRGZw2+V25LWscLBq8/3393TLrXBOMb543TUTUlGelBCsVCvAcLFzhqag5C2hCnlKlGH3xgnHOnJg40KGYowj71hOOWPjbtph0QB/03biwozOZ89F9cfGpao4oc8tzjzH2IUmRlpsdun3jLmffdf99tn6/7siM8ekh/wvzK27Fw6oDbklYntOx1GwggXxjzkJpj8VyqPGTD62GnAZ4blWamLhatXiFKeJw73V4gHuDxJjNGA4/t9dzcByYP+Tt0JqvrOHLFwebSinS3VbXrCHBrwX7vMzGG3BRY9iw7RbGmk8YBT7TbyptrfXh+dbt/edgJpCI7Tsc+Z8duHltO4bM6B/WMuSmwHFXG/bGTXLSMlrudu3TadP+dU/p069jq098771/7fV3FAVLxVO2Rxh39zEiEjj3i4Henz6lfWtG3Wyrzx4y9ceGb/3v7WPTkR4SWBZOzoWGN003tcI7nGGuze/9gn7jOLrYdeP5Sz7KbPuw+W9XRUqfvv24qAYb75Qq7Gl5qveO5AdWKiQiaBJhXXHH5+Osuqll//yj/7b3vpwo7b9TosQuWrlx5IhxxSEfEteLAs5h6sAMs5XDbtnKrZrc1OTtMVEoR1ibMhW6UEPacclw6BfPOXhDbnpcTgcR8AHHM6XJxshMxOrZX99cfmnrvgLy8v2a/m4bk3NCf9XuWcUP/vZ32eevL7EZXXX7Jq2++895Bmj+ocrmRr+pMau6J1V6G4flA+kpOXi6FQ1EWBDAUIlDjmEjRDtBpJ4ZBiQIYeEpw4GvsK+DmE+JnbJxgMDtpIBkBb/LBe+8++ZTDu7xSFzgXjr7tqcXPPT/Y60v/zbfxA4Re6U4vcPaoo7OBadLhh3T7cO3aLztvLdjiTwums1GJHO2gP42SUPYGUnVgVCfIRsTBjHMeN4QCfubTdYqEojwR4Wf4OzGnqArWCHdfqCW+3K4pbMxhUoxHKOD1kD9g2Pfdd3efPj26rlxbaGdeN/Li1999/6ODvUaAu7lotodzK7lw3IxzUREeasMT4Acc/c7ZYHKK4twoD7dSdTfB0uF59JBJqm83hzGdnOxfQnQMZ4QtkbZixqhxVrp9+80TBg4+8cjn6nKvfu216zZVNB594y0L33xnTW+3oDqSiHIql1ts5U7ubj9n14uMBxcLLO6J7qSLWbpKRarp5gLhpFqWovAU0SIUCHKhoFOQ656bEgbopK0+F12gsJCrVBtYEGiRFKOglkzcO2Xy2YP7HLGwIRi4n1FWZje6fOwNC5b/Z1UfX3o2VYQiKlqiYT8RGMI4N7VwwC+pxIFKCYKIxWLDKSjob82Feeq8lXdUCUolGJThCONYFcimCC7HcE69Lr9h8DPPET+8L2nz84/UuPSg17z1husuvvCMfrPqymLBkpXnX3bd6JlGMIfiSHVSjm/2aClD2lApfYnUxdK5/pTNrd3IANKKwkmVT4tnEB40rwZjzp3Raoz22uIABl8iEqbB/fs+P/uuG3+/5mBI/w0bt5bkwLmyvXhlKgtcC7cZRtvjWMyN8CW7HXTQ2++9v/rIpBknje8t0h+9hEgI5gZ4o5OJJOk+REYQFcFeLRpZ8DSzsDdZrGEOxgFhEeXW04YTpVTtigNOtATPBEeaNLVvRBJdkMwYNc/y001jRg4b0f/EJ+t6D3f26+srDpTsRHRXfYV8bJ5vwNrpfoPnHweYqUJQxR/pmrzfjbNniCp6V2mmPM+wIwkduDzVrShrNvNTDTx4HYQhSxY7marC5XT0ET3fv/O2W09p3yyz4I/wrYs4wHMAp5ErDpCCg85W9RUHW7bY6aP+b9wTK974Tz9oUA0ptlwWBJHuzDeOEataKSujH05H7BeEicB1CrlRFggMTsdy1nFX/OI+VDekMIhtEY6aJuP8c6zB7pHKHz/z2BYl4qir8pGWtOL/N3H8VecPPqlBIwho2Tr+6gnzlqx8ZRAijf5gOp8f5mq3UUbqfa6dHo1xwhEBOPBYuGocWUR3JnYQgFlK+258FjNzosdIga45atdkEkdy/OlpFKuq5LbmPjtBffucNPfeSePO+zu2ff0jz8Qffc8/Rhy88NrbA865+JJndX8Ge6ANT1B1I6rlkawBWSMTMNjCkQgv1lz9zl5di0Nf+DlC1zBQsTBXhkJsrMAYUR49FcZyvdts3HBIVifNsKiqrJhO6n30Rw/NurdXXQqgdlQc4O9hosE5pBY3uh4idBSCYY9IAAxL3nzJKfDEQ8dGERf5oJA4wl559mggjQGboiGtCVECJ1qg8vnURmQIEXLKBh/bpkaoyAGRF4u2R6OSkgLq0evwz+975M5jlj6zfPikKVPvgavT61V97PG4x2DYOmFRHTULKecJvvjbEHuYbLf1Wqkz4MJdS6M4h89VdyW2orZ7OJ4NsqvrD6pKi+ikY4748OH5jxzZTNNCf/ShU2PA9lw7/v/mzFv0/AjLG1SeaU6XUd5iN6SamlrBFGulmHgDXn4thC4MIEyY7nvweTC4IORSC+tdr6LrYVXGd80Sgq9ccRCNJ3nn03gswp6mdI0oJ+ipePCB6X2POnT/VfVh4L4XbVuvHz95xtxFT50fwRSGdF4AACAASURBVHn40ig7uxGVV1aqNojV4kAJFy461uA3Vl2IkOPMefNOoRpEIzp1uOOX7z3n8iY5tYFzo53dkt1uXlx/4Sws6ryUiHAXHh8MbY+HQlVV/JzD211aWkCtmuRG755yR/8+R3ZbWRcWqDm46trRM430RmQ6Cz/PC463FYui14uc29S0xV+KA4hGjmbG4zyuMd+EYlEWGSjMg/jZJvOxVkEyBD7iTBUVpXRG/34vPDJ1PLoV/epO4WoTNCUOkGf+e4ebR8xEHY++G0ngZ9mfskcLDEaOHqh0F8wdKi1J5wJFLmyFqGOx7+S6O0WMcEJw0aITcYCYxet8tkol4y5OKeLAgpFmJ4gqy6jHIft/Pue+uYc3a1a/Z/r3WDT07+srDvieOClDqDlCmgqnJzrpXJx+kZqW5zwfam4livAGi77qWjykyKA7Dp4v1wnlfoYbOcDnKc+1ml/xHtSCYP2BoDCjMfrX8GFPTL/1+hF/xDhrGHFwyOrpc6YdW5f1OGUuM8ZNunf6jLnz/w0HBoqOTWfTQdcLzvOM6zRDVA3RE83DkXY2jp3NGlUUTK2zcHq59wLzuzs3uWJNzVM1EXS8BvfA3fyy9tiD4we2D2flxsPk03iPhMiM6fcMOenYg5c1xFjFvH7z5Afuuv/R2VfHdR+hNTrGDItGdAb0+Lnur7ZtwKsPr3OYw7ddz90oihvBYhEFh4HTnc1ND3fnbVdEuZFzN/Li/jzq7A/h5+h4ksKVZZSbEaRbJoy98Owh/WY2BIdd9TP+MeLgkuvGPvXciy8P9qRnUswkCseVcQ/PxfYPNXnBQ52dnc1dhnDwRFZZWR0VQOcB5IWzMRxPUEZaJlWGQ2Q6nj9Meu5D7dYzcE48BqWGPNokhcuL6L47J192zumnPbSjA0mJg2WD3Y4Hv/a+1JC+Kwi4Pz6MiFCIPZRBeBtjMTZ+2PuPjjBObjoMfLcnvBsK5UXEKVDG5MQTkVPAmWoMYPGvSYv5pTjgSZJzWTXutV8eqaQzhg154oP3Pzhm/YafmiMnkdCmFV4WJ6eQDV6Pzpu/QKzgcPPq3QkRubMqRUFtAFazIDmhbqdTEX6Pricq3an2USMOMInCSPWRRbFQKT1y//1n9z/piHk7eq+297rZi5ZcPm7CLfeZvkzy+dPZOw1e/oDqYJG6o3FNCHpbcYD7AC+xK97wPa4pNa/evR/cxhR+PcfLwuwd4xdfc6F5ih/Y9TKhcA67VKLwO93n5eJcbzJK7du2/mLx3LnHN2mSvrk+HPDe+Yuev3jsTbc8GCOv7knL4AJxFFojH1TtkYFXuV4fNvOqDQzUCXBaQ8oeAVgk/c7GcK5AxX1GDRA80jAi3TGDT3YXnG2vQxmhbMAi8hZVhhDStKpTBy2TYlWltH/nfb6dM+Ph3u1aNFq/oyyeeO6lC0aPHf9oApEvAyIA3n71tzDWUSOEKB4M/F9LK+K/lVD5ubFkgrsVYbzDkOaN8ZBKBD61xrcqSsabTfZU+r0+ilRU0ID+py6bM23iab8nDnoP7b9h45aSHNer/FvX7C7CGN/oCOfOJ9UOBxSZOzUWqfeENzGChxG7xSIVAWObd7X2UALPN5wdSKNw5iFEkyD8cE64P+y8wY6q/Dmq7aGKIKrEBdc40u0YGck43TV50r/O6Hfc/B29f3+H1zWEOMD4cud7t2236vbl7MYLxojSpBT6s+HvbNTlziPqZ454dfadYCMQbZVrOYbUfKzmXd6HB04kdAj0eznV1mfbNOW2W84dPuCEuXXlvLPFwZzFy865Ydz4OYY/nZK49up6KOWQYF7cXhi/wxYtXu6Khmfc3X26OgWPW2t7eVM/FtaG2gSNm6A4456jOE47T8yb7nu3NYp/nSI862j1mRYIsl3TrnWL759Y/MTR7fPqn3e/YPGL54++aeKjETK0tPQsisQSHN3jbpDYYygW4whUTbfFmvN012QWq5xOBXvJ3V9DzRnuPhDcChbpbk6tEZ5xjp6g3tBZ/2vP8S4fOOXQLCYjLcD1UHCAaYkYNW2SWzx79oNHde3Qod6d6eo6hv8ur/9HiINi287q07vf5z8VFLeKxE0KpOdQOKbaBOo2ioGQW+7WFmxrxCJMB69pJnJ6y8rIayDtxkuZ6WkJy7SpuKTCC/UZhFFDGsXRAtQfZEPMZFc8wuFK6WNrea5N0GxuRWl4VIFewLBo79YtPn1y7oyjGu1g7+EdFQdsAsDo9Purowfugsvt55z8bDfdyZ1cuE2prrMYgvcHC67bK5+9dlywqYoN8aDyLszope8L8IIODwEePBg4rvGZOui36aDC/TdN8gexFXw5+VBLAKMN+y0QUqKcvFYDdQfoQoB2k5hMVW9o7mLi5Bir9rM4Vx9HRGJINUA4Fuk28EhiYzufvzpEC4+B8lTUfiSdcQDPeyzC95xzY0sL6dgjeqx6+rGHjv+jvZHXfPHNgedfcNEbW0rKsi0DkREfxdGWxxFZHCbGbrBsnKoTq0l/UwtwdS0BrtvpUINCd5eD+2CjpSw+D1wSKAh19uXAeOfUIhgBTojZzWNXJNRSjzaGWKC4vgbdnQybQ+/pfoOGDhn4wNSbR11en8ns4y/Wdz734otXbS0uy0VKSNRW3WpKy8r4/m17Tu55KXHA7XORGoQdurFXQzzO3jAUbIMFCu8D/gCHsJG64kF9DHJMES1kY0d13lJpUzViMPV63HQvFPPh89ESD6/H8+DVNU5SQ3rK6YMGzp1+2w3n7iiLhU+/cOFV14+Z4QlkUoLzb12POEScypmFoWuZ6rzQBcbd74A9ak7NgG6qPGa8x0JXMm5/qoorYfQFPF5OyVLPmxo7MErUx6pOY0jdqqyqoAF9T1kx857b+u6AONi4cUtJNtoQbl9Y11BQqSVqDoETAmmW7NHnziFJ0hEdgfnJu5sl2UPKhqZjVGHfEbeAmNM2kdJISU4pQsoKorl4RuJJix0GYMailwWHSYg58nUj3dDxWNvcVEJ5TjH/I7XxuF493po0857jf6+t8o7e37/idfUXBzBQVd4Fr09IuOS0FZOCuLdenfc/wXyPVsn4H/M5O12cPWKQFuYe24gA53Pxu1Tjr3akHvfONeDQYjM7PY1CFaW0V5uWWxfOm31YXQQ3/tbOFAdffrexw9kX/fs/3/2wsYURTON5nTczq675UrVtirfinkRXPHboYC62WczzOEcUgdvAJnht5LXVo1JseO+eWjUFFpol4LOdlCTM26lOJfcepfLnOQT7kKAujzTeiygeraLT+vZ5/OGpN5+zo3sQbW+sf77upwPOvuDC1zYWlOZZXqQh2+RPz1CbknHGgeqqpNJ6a+qqaocsfYZqL80byhoe0p0IIs7Zg2J4zBNg6WwIpyKNamNUFXF06+1SN39UZ4zxnMCcDnsDXbjMKLcvz/B7qKKsmAYN6rfo4bumnPFXPMt/x7/xjxAHH6797uARZ1/4ZlF5VRq6nXgDmRRNqEkJntDfEgfoXpCVHqR4VQXl5mSETh9w2uyTTjhuSae2nT/ADf1m83fdnn36+eGvvvbGGd//9HOaLy2TvP4A9zFGgRx848pgUwsgCuTghcbGQ0kzRhrvaJgkM1xG82fNHHLiib13aHOeC0fd8dTipag5UJ7mXzvcCQKLcWVVFRvsNdEEg8jwUjgepzSEh2E6mkkO9SdjqruHmVDFf254H91BahQ5PPg2eX3KYFI1AGrDIrcvMbeGdDzTqefoigOkMamUJ3Rx0NgI1Twqp1Vti25zmpbKd1UGNB5q5FRi0QfLRCLOHVdwVEcPnD7cqJnwBdLYgMREgS5AMc4DVV4ID3a+/g1xwG0RYXTFoqSZScoKeMlMRsznnl58WLdObXgM1OX4wbYD4y+5bukLy5adkN2kCUUTrkGDTVxwLSrsih2DVIs7FflQ4qAmw9sxGXlM8a6wYIJuO7EoCwGkirgFbehohN2kkXKBq0URGHsG8b0jPhQDd3mv8dJzW0IU0+k6L1hmIqbqD1Bz49MT9987eWC/Y454sS4M3Nfatu0978obnl6+8rV+GmoEIGRsFPdbHNlC7Y7Tzp7fos6uRhjwuEI+L48F5YVEhCOejHARORfkxdwN7tQ9x7VD1Pq9QTY0kTONHTj52I5AwHswDjP/fwEyvN5YhNzNhrBYh0MV3M3Kq2mJu6dOOnPQiUfu0PO7YPGSi0aOufERwx+kCIxkfhQ9HNngZ8YDIxe53wEWQaoLkKLgigNOPdK9hBaJ6JLmpvvBsEPEE89GEjVP3OUURXgQFepS3aJE5Im7KVd9Tznp1ccevLvPbxXnIq2o99D+G9dvLcnG3PF74iC15kB1rXFTFNVeJNxZiNPB8MyDIy7PSaewzeqIpgbjH+Pb2QFZRTOx74faaBFzEMZqBPO6z8ufxU0TuBAU3lpnjxqnCF+NJbTtTRC29QhodmzRwvlHH/4Hdm7/I2O/Id5TX3EAoz0eS5Iv4GeRjS5tWCfgGIolomTGo7wvjeuFZaGHgnHHEYM5mfcBQaG/qfHzy5FipxWzWgO2rempLQ6gCd0Wk7i/2KEcDrNIeSlde8XFc26+/vLz6sKqgcTBe9PnTDumLmlFtm0bV439v0ULn14yOBBEkwHsneKheK3GCJxO7BQW4xmEqNUwPyPChYinz6d2LEeDj0TMcc7F2dEB/rg3qWlFiBCymPb4uJ04/JF4DpAyjfVEd/hjDuAW104adXWUh/eHwe50FsWjEfIh9VYzafrdU4bs6FxW+/5gXj//ihteXLLspRMC2Xl8jTgfrtWMhglNMSDuEUlENyF3XsfnpIoDzFlcN+TzcGtt2CSIJPOGqthfCZ2eMH9wowEPtzXm9YHHqMpm4PbG7vTOJ+o6WdT/hpnkqEG4KkSabpKeiFGTvJyCvqf2efK884Y/0qF5c4kc1OUB3NVe+8LK//YdOW7CcxXhuE68wRc68MAL5eMiSx3GuaaKpNz+/LhGzomHUZ+MUJPszNDtE8afOahPr+e3d/2vrProlJFjx84rr4zkQhho8HA5Ofz8WazOYVdhP3r0mYcRaFKjnCwzK81f0WWftp+cO2L41KOO6rVDveR3VBywzeN47zDhYCF1xQG3P+NqfYvSfBAACY6SWHacgj4v5WZnhvbu0O7rdm3a/a9pi6aF6ekZlVUlldkbNq7f58fv13f7bv36VuWVoQDytYPBNFwkVUYcA8DZRO7XFgc2bsHbVosD95rn2g1VeIiWhm63Bf59NMbeYeRU43WRUBjt6KlRWjCyZ6uWG/feu8OHLVu1+jY9mFZaXlHRct133+y5/of1XTcXFjavCEWC0XiCvZTolOBu7MMtTrGxUoo4qKk0cTzJzuKF6AEM8Ax4PCrL6IpLL7lr3MgLR9b1WZj/3Cv/GjlqzGNpaK8GAen0Z1d92p3wBS/IyqOkxg46yrjZ9s4mZ9yKDSk1Grff8+qa2aJFi8JO+3T4vE2rVt8GfN540rS0srKyRus3btxv7TfftS8oLskwkTrmR/tbFZFRqVuqc1SNOKi5KrCvqKriTdhUBMpLMQg4Hs9JOvyAjmtmT591XJMmmsq7q8PxxPOvnH71qHFPGP40g9PANOJuVzDqwAKLiZuznCqLONqFhY+78iDfVHXQwjXYiB74yGretElRixbNv9ir3V7fpGWkxXxkUElJaaP1P/68308//dShoKQ0HRv8GQEf3wNOUUmpXnPbYeJ8yioqKC2o6mjgkXc9WTi3rMxMqqosozS/h/Zuv+dnc+c8cWTbRtrv7jz64Yefdn/quaVn+9OzE7EkKu6dScLStKRO1jffru/5v3ffO1jXsE+H611TG5iligNXXMNrrsaJysdH+9n9Ou3z/RGHHb7csC3LQ0k0k+S7oz5BHWjcZSaQ/GD69t933zVD+5808/d2SK6LOHDTAtw6Gjd1Eew4ZQo7nUewg6lJQa/akC0RC3EReXrAF9tv345ft27T+uMObdptSM9MLwpVRrM3btzQ/vPPvjzii3Vr9wikZRjYLBDiAAKzMqJSYjhqmIiyMcXX6XSqclO0XBmsgjZxSoQraeL4Mddfcc7QO+swhHfqSxtCHGDNQ6OHZCyu5teAcgxhHcCzbsVj1LpN64r2e+35VdMmTb/MSksL475VVJX7yopL2n3y2eedQ6FQ4/LKkAdRc83rJw/q0Li1NeYnVZDseiG3NU51jjQjSpjdKI/FCOY8v1ejUGkxtWnZtOqRB+87qvsBHT7cUdA7Sxw8+8qq0y6//OpnTd2r24aPMwkKS8p4F/ttD7WuQCRg1kKnOTjfEDXBtWegU10c/MOUFgxg8z57z7Z7FnVo2/arJvmNv8oOpsXQ06SwuKDRls2bO69bt65DZSichdRPtHrW4KhDW2Y4gBznTwJ7UjjdAWuLA8Prp5LSct6LAjuIZ6OJSqicDu26/8czZ087vkVWVtGOsndft/yNNYMH/+ucxY2btdIq0VjCr/YSwnVhTGHPhWg44kQIlXjcXupZ9XMLBw46lumWvUfT/IIObduua9E8f50nEAjH48nMopLi/M1FxU0rKyryy8srm5RXhtKwtkEsYBxy9z5E4dkJBO5qXxxOlcU+E/Ew732yZ+sWJYMGnDarf/9TZx3QruW6ul737vb6f0TkYOnL/x1y1XWjn4yZmhYjD+k+dONBwZpq5+WKA6Va3e4KymBiz1o8SucMG/Lg9FtG/vu3BsCr//3g1AsvueypuE0BzfBTEh50pwCHp4SE6szQpHFuuFuXA9Z07LTPO1267vfOIQcf/nZdd+fbUXHAHSUQlnM2AeGwpCMSsGBblrPTINo06ibn3+Y1ya4cNKDvA8MGDZzfuU3z7W78hWKjD9duPvDFl5YPeXrp0n//8N36jMzcXPbKYi8C7DaNRRvGS+pRMzmpn2JSwALipjqhExGfVyzOaQhuChG8iQgrwruF9K4OHTqU9T2lzyMDTj3lma57N/tgewYNvDkffre564vLVvRd+uLyK7/b8FMjCAQYJJg7YLi4nmnXA1pbHEBMIOKSm5XBAsXABmKJOB12YNePnl/8UA9N01Rrqh04fqqoyBty+vmrN27evBcmc48XBqfTSs1Jz4KXnodKwnS6QqnCSncTKE7/Ys+qKroN+o3oUUf0eHlg/wFPHnBw9+W/Zph+8u2G/V5/47+Dlr60cugnn6/thI3uMrMbsafVPdwt51MT6xCZwN/HubpF0jVpAGEKUpzGjx3570tGDHlwBxBUvwSpfsMGnvXOx1//sG/C1CknW6USsRcYHuFYrDpipcYJDhU1gEHDCweMDjNOXg1jGnmzvsThh3Z7bciggQsP73nki7+2J8W6H4o6Pr/8pUErX1k57JOv1u5nOd43LKacXoGNg5z8VfxN1fFDte/FPhBI10kLKFFV3WjAihNC4KOvunz0VRecOaUuLLb32vvnPzd23PhbbgtkZPN110QPakx7Ny2A8+gNVXwI8QLHA1kxGti334KZU8eOqO+5pL5fRQ76/bR+a3EWGYHfjRxwxzPelKkmGgSRmZaW5vQ0Vzt149mGUwIR2iZNG1X1O7XPgr59+z5xZJcO/91eYeoPP9iBdRs/OuXhGbOu/uDTz3uVVIQoMzuHn2t4EzGOOM2MC5cVvdp1K+4MhCiknyw6puehqxbOvOeohuT1Z35WfcUBzi3mpOVRIs7ZGRBTVaFyys/KMg84qMtbZw4cvOCAA/d5rkPz5oXbuxbbtoOvvfPpUctXvjRo1VvvDNzw86ZcNkx9AfZmc/toTlpRR21xgEhuZmYmlVaG2GtOJkSjTh7NpHBZCZ03YtiCu24d868dbR+9M8TBdyV29pWXnv/6Bx9/fhBSaHifH+wKjs6Fv6hprBEHnO5KTp1RIs7RQ6T5VVSVUrOcnMRBB3V9c+jAgQs7ddn/uc6tsku2x3/t9z/v88prbw54YfmyM79Y922XCLZuwlyN1sCcqmSgLGm74gBNHWxT57oH1DVwdD0SJj/qEMKVNGHCqDGXn3vG5LqM4eJiO+usyy9+ffXHn3WzNOxjEKCEE61Ap0OIlFCkgnKzstmBoVq0pVa7qb9WHRlPYqM4r3lQ1/1WnT54wMJjj+m95NdsJdu2tQ++2nTgipUv9Vu+8uVzvlq7tk0gmM6iQEPBPc/tKh1a7QVjkh6NU+uWzQoGDx4w68wRZ8xo2yj4Y12ud3d+7T9CHKx4c02/Sy+/6tlw3DIMhPzgqOOcSc4X+U1xgPqASFU53TR21Kjrzx829fcGw82T7p7+yKzZV3r9aewZxoSX2zinvH2rths7de74Vrdu3V7p2LnjJ3mt8jfXJWxZ++/uqDjAoux2DHJTVlKLzXRLLZ4o+ozFQjTglBOXXXHFv2+oy7bqH39TcOD4W26696133u0VzMxRoVLH0EKf/NTjl+JA5bW7R02epKoDQKqRiYkTKQCc62rTUb16vnjjDTeM6rJn469+7364v/96U1GnG2+dMm3FK6+dmJ6OXaXV3hQQCpiKantU3FAnvNScjoIuTGjjaugsDrKD/qpF82YfdcC+LXfYq/XAY4svv/n2qfdh59fKaEJFQSDKUjwntYuzXB4QBxAynAahIf0qRD0OO2TV6JFX39zzgH3e0jRN5VX9zrG50m7y+KInz5n92GNjCopLc5EGF42o1qYQY24bXtSacAvPbVrhqWnbDdNypCFRRft37PDZ03MfPyonRyv9vb/v/n7+MysuunbMuEe0QBZ3RnKP2suE2wULIop7uRvYyTzCUQWkhHmTCYqFK+jggw9cc+01V004rvv+r+9oLUhFhZ23cNnSfz346KwbN6z/KRfF1/D4wQMaxeKOOh1YmynH9saJW9gej4Woc/u23z69aGGvphna1h1lsb3XTZmx4Mapd91zq+YNoNnkr4sDp8DR/QyVb6+872cOHvDEQ5PGDa/PedR+77biwFdrX5Bf/iU3aum2MuUR5DQ74MU6jj1j/BSurCKvTzP7nXziC+efc9Yth3Zu+/GOnDd2oL1lzB2zFyx+ekggI4vCcZNbE8IzyGmITpxk20qymsgJ4oaoK0N6abNGmZWvPvNiyz8SBduRc23o19RVHLjpQDgPd17h+8M75KlalWhFBR3evdunl1140U37HX3oS3Wpwfhmw9a95j713NWPzZt/UUUk7gukZVAkoVxubgQZIxlGM7p+sZPBSXtx+9jjtbhncNh5rCTlZadXLV4wt0unts13yGjbGeJg1rPLh0+48dbH2UvtQaoi6p58LLzcWiL33tek2aq0FqQOZWakUaiqnKPAFE/SAfvv++n4G0aPPOrgTqs0+DN34NhYXp778oo3h9/1wIPjNxeUNPGnZ1EoluAUI6TvoOgbzyDWL8zxcFL6gwHsTEehOFJFdUpDAwi0Lk9EKNPvQRr1hueef7FrmzrM64tefGPYtaPHL0DSYEJTm5WquJFiAXGADRLdJhMIgKdulMqd5pyOV1WlpdSz+6GfX3Dev8YNPL7nK5qmqYKFHTjWbihssXLlq+fPmDnruoKSkmx/mtr8EKIAYx5fd2i35/oRgwbPOrnP8Y/t1SJ3l9wIcQdQ/OGX/CPEwZvvfXrk5Vdfv3JrcXlAD6Rxr+tYEjUA2MBMpUdsP61IRQ50M07nDR/24JRxV/1m5AB34YcfNnU84+wRbwXSsyq7djtk5eGHHbq6dbs9P+6+b/uP/0hrtl+7szsqDthY4B1GVdW/uzBz9wMU+RBRVWU55TfKMYcOHTJ54uhL/x973wEmRdF1fXvyzEZAooCCIhJFESVHRZJECZIzS1jikqPknHPOOWfJCiIiKAYwoARBJC1smtjd0/93qqZ3ZtcNs8n/VejneV/ACd1TXV11z73nnjMxLQ+hen03HsTlHjN+4tYDR45WDwjOxhqQkBUSPM3F6vt8wYEadvFyH3d59B5A9lzfHsEOVBNdViu1bPnRxgkTRvXOIaTdpARmLOH9+u747OwXNdAchY0JFDO1OZEFLmrTpid3AeCCTDXjTnsMlVgTuSDQ7BkT2rb6sMYmf56+hw+VwPBh/U6d/uJiOUkLibsArtzgAWbJNcRzKgto2C6SJSdT4XE64pTu3bouHdy99/Ds2dPuro3rPX3pauXxE6cuO3fp2+K5cuVlFCPcD7vDY/jllrg3QiLOrKoUxLOBEmmxkRi0ysxpk5t/VKfqLn/GAjrg4cP7HDtz/mJFxQCgpksyiMP1sOoOMpAecytcT0hIEMXExJDgdpKZZKV508Zrhw7vOyQ9JXBc7/krN94ZP2Xyii+/vlTaaAkgya2wPpVYO/jsvDn+7/OXixhgfjBNeKeDoMqpk0WaMWVChpVvZi3bMHrq7PnjdTAa06QMDtRrY66pPuDg448abVk6ZXRrf+6Jv+9JKzhQKYyqtCVrvvRUo/BcM4d1ZPbdsmPEqBFjerZtOMvfLLF6zTDPa98l7ML132695PbQBp2qEIKeq+IkBTrxeYADZqQk2SnYaJC2bF5b5d/Sd5BecODbqIqEA4qVos0G2ga1aNZky5Ahvfum91nCmG759FzLiZOmLLlz/1E2c0AQk6FWlevgGcSAvcewi82HRBVBfAcq+vif22GjSZ+MHtS9daPZ/szRTAIHX89bM6e6P8k78Otb9Iw49vmZ89U1SCbIyFJzejKf56rajgrIvJUDLiCBfjkX471HRT+lLh07bBw0YMCgPEFCunwevv/tXtl+w0Yu++ryt2VDsudkVTTWe2M0swZgJl8KMzsNMvhO1tuGfReCxlygRWb9fKikoRdn4uiR3do1r+OXpCfYBO3Chx85eOxUba0hgFcNmFQpP1Tqqu8+y+RW0UskuygoMIipQjLvCbdMzZo03NE3rFe/4i/nTLci3udf/1xp6vSpi8+dP18a1UpUS1599ZVbrVu3XdKg9vvrC+UKvO/PvHoW3/NMgINrv90v2aZzpy/uPngcrCBTv18ndQAAIABJREFUjA1XgLkOAj4sTUmpFXmUPUQnaWSRXnvl5QdL5s2tUfa1fKlmq3/7888C2c35YtIbuPkzEbsNnbJz+94DzVJrSFaVQtiC65F7jM8auSUyedSaunTuOH1cRM+h/pw7ufdcj7Tl/7hF6zO3/rj3ijEoCEkQtvkmFVypaivqa2rmyGvahOoDV3OymHTkjI2hlk2brF8wZWxXf7PkSV3nrw+iCrds/vH5P/78K7fWHEBuAfSv5CoHXGmDOc7CpAm8ZdDRsGm5nNSne4eZnwzpNdifMTv2xZXaHbt2PyppjQJTtwoI4d4ZUFhJQS2LlfthJ68D60tGs5gyoG+fMQO6tZ6UUbB5497TlyJGjd9+/MSpdwKzZWNZJqhmkJ73gKCxFXQufnieB7aRc5oLW+zdIstSN/zg/cMbFk6p789YnP76p+pt2nc4JesMAuDp38GB93lkjrkI+GSZTHpQVHiTsuIWSe+W3T06d5gyJiJsTFoDysTXeeuRNW9ExJDtp89fqAw1KzQVxsTZUgC3/BqxjrDqnIY3t8q2OKpTq/JnW1bMq5GR+8PBwdzxOq0lFXCgbr68+oZNntHOHLGoHGxZODVrwMGdB4+DQZ1UKV7J3Xe11wCvI2OsVi+ZbKYskhmA16CzTxn/Se/mjWut8Wf+JPWehet39R8zbvIcvSWIJXoYz1mEbwifv8n52aiqLloonMkOmjNlQo82TT5Ynt7r+Cc/lx5w4AsMsO4AGIDKhcRHnVq19k1eMr21P0Fxar/z4g+3Knbv33/P77fv5IJ6nx79JRo0kINqiiZanadXSF1duOM5k/f0NM/CPdkZG011alb5euuqeaBwJqc7Hn85/zQ4+OKb6xU+6tTpc1F069BrwRpgIQKECrMHHPiun76mhADFJo2bcfwNWkHp1qXLrLERPYdlRCUI58Ja1n/4yPWfnT3/HiqhVif4+noGCpBkwX6ixgXoF+QNzrznjVXr0YEE3xyXnT6oWeX05uWz6/lDn7107dZbTVq3O28TBaOsRa8Ud2ZXD98qHkv8eJyNmeEnFNQkFxP9wJ7fv3efBaP6dxvozz1PbS4icTl75tSVP//886utWrVa3rRus9VZGZuldj3/ltefCXAAl77m9Zr9dP3m3YIo0zvBJjFYuAJPslKmnNYCegWCoOjHj6lq5fJXRg8d1vPd0i9fyoxJm5FJ4i84YKV7ZirEMxa+iwOT8bNGU933a51ct3RWfX9LmCld9/5TF5qFDxiy1cGGj2tcJyVl5wUHPLiRFN50qUp2sioHgnDZDpkCqlW1yvEFy+c1yymkvfE18fUu37Cn38SpU+aKjI9pThYcMLlMyL1CJUKj57KXoouMkPa0xlGtKu+c27FyTlV/gsBx05fMnjl/4YDgF3KRSxbIKQukRVYTvQMpgAMENVisob0MycyWzZusmjdxZPeMBsPqmFy4ert4RMTgI1d/+b2gMTCQSGtkHgOYL0zjH5s1e7MXHLD75VF9YUGXIlLebNnjdm5e9XrRAi/8mdq8nrZo7cSZ8xeNdOuMhE1EpXX5ypbGzxuPWRBrULYYSSM5uUKQVqCPGtTbtHD6mA4Z3UzV6/3tzsNXO3TrefTXm3+8At40tLlBkUtq/qr3DODA5nJSqBnBqJ30bomCLQb7wd17ShUpGPp7amOR3Ov+gQNfJhmvcKmVA7fdSq2bN8picIAAzz8jNKa0wuRLXSxIwfxSUIGTnNSvZ9iIQf06T0nvWOFzN/+yv1y/aaOrD6JiLYRASG8mByqXHsZiUuDAF+SaBDeJtmjq36vHtNEDug/LyLX8U59NKzj423VBIpP5iIj0RskSV9auXVM3V6CQaZnUUxev1urTb8C+vx5EBpiD+bOkSs1abQ5G29PCSRmVUZ+kA64zXiBBcVKuoIAn27auq5Jc/5vv7/qnwcEnC1ZOnrtw+XCtHop9AjM9g1wvqG1MQtkjyYtsOA7VkZ2p6aDf0WUjQXJS/Q/r7Vw+exKM3/yiEaU2x24/cBRu3rHNkWu/3nwNhpI2u5NJrHOpWl7NYFQ/1jTO1dBYstRjIoqkENaz3KHBjk0b1pd9q0jSvYe+1zF7+cYxn8yY+wn6pBwS7w1j54nvGPNSNNW/MTU4t4iUBtvfzBoN1apR9eC4BdOap4XSltp4PHr0KEg0Go0ZqYildo7/2uvPBDjATes9eMzeLbv2NbKEZic7KEUennPyDsn8VkO1gcm76TQk4MGSRXfN6lU/bdWi+frXi71+Kr027xmdSP6CA1X+kzcfc75dvFOy7KQgjSiuXbWkdpVyb57J6DWpn+82YMzerbv2NTKHZEsgP8lf9+j0x+uleDKfbg4OYHvOqVA8Q0+ynXLnDI3evHZVtZKF83+XGdcIfmZYt/7nvrj4TTFDUA5y/a1y4GbZR1wZFnHo4jMHUVy900FmOGPHxdKrBfPGHjq5O68/bsmNW3f/+tzFy2/rAkKYI26M1cmcdpGxRFCsZmAT9xxYIIfntLL3FSlU8Oc1y5e+XyR/jruZMQ7qdxw8+VXzsD7hW51Q2tDAtRLytAh2nfFqL5yWwSVOvSZkrIedNMj//x/QHj96eFjXVnWXpXZtjTuEnz1/+ZvKaIpW9FzNIykTNjYWTGkCpWcIB/BKhVEjUf5cOW9vXL2u5msvhd5I7Xxpef3o55fqh4X33213ygYBmymbrgn7LPBf1HvGVJ+gOMLkUQW2oWolB40dOWRwWLvm6Va+wUY7ZdacT3wrB16vA4/ZlE+bCQ/SudsxKgeSI45aN2+YJeCg9kcN79559DiY+TD49IskNc6qBLKaoGBN0wYDd0/XyPRhrUq71yyY0cafzGRK9xHiA53Ch+4/dOyzegpTSiMmEakmLhFsqvMMf6ouveCJg/9s1rnJEfuEWjX58NCSmeMbpGXO/P96rwccnPrraUwg68fxuEmrY+1bJUh8jSxAhLqXPZZy5QhxzZw2tVn9Gu+mS5I4pd8/c8n6YfMXL50iuTUsEEV2HY3KUTY7hZgtpIgO7tNCOrYOI6HEG2i5+hhcMNz2WJo3Y3Ln1o3rpFpZyiRw4JeUKWg0Tbv0O3b24re14ESP/iQ8ExCTMJu5gAOkvtkK4gEHPOnFJTYBjPSyjfLleuHPTds3VyuSO/3JhKTuwdGzl+v07jdwt83lMiMZGmdzsOtjzfrMVF6JV8HzUno9Ep+g+gkyqyqNHz10YO+OLeekNs/b9xp86NDps/VQjXdrdUyOHA3mf283VsGgR1Ic9FoNZEVlypsz5MGqVcuqlnkl/6+pne/561k7As8MONh15HTHHn37r3FrTQxBO6HSojcwY6eUDnABY2JjmeOo02WjAIOZYmNjKCDAQgVffvFuhTfLnK5Xv866kiVf/e6fRKXdh0zdtW3f/qap0YpUMMCMtbAYeDwLoLgiuB3UplGdHYtmTGiRmdPs2PnvanXoHnbcLaCdW5cgmEwMDjRwa4WEpxtKMcireEximCmSg/2vT8+uE0f17z46M69xxKQ5c5etXtdPa8nuAQeJGqV8wAF4kwwcALSAWw6ZRIeNXggwuo7s2VK8SMHcKWaIb92PKvRRizbf//nwcSAccUlvIoeIkj70msGtTRocALgi0CO3SCaBaPL4MR07fFR3XWaOAwt0FUXTJXz49n1HTzaTjSZWPUAjGfOtQE8ErjEZl2Ktx0THZoumDi2bbV40eUSKDbB/PLLma9Ci1bXbd/8KQYZJdbnk349DBWY8UJBg5gMDHfAfABidsYQs76ihg/r06thyUWaPBb5v4NgZG1av39IWTX0KuMPJgANmKEcGpsaBjBeAAQACNtSG9d4/sGbBtIbpvT7fyoEMKiRzVFU1ur0maKoyeJLgoEXjrQunjMxUEx/0HPiCA7VXK7nf6Ruw4j1qxjIqOppKFi18f+eaJRUK5c3mV7NpamM5cc6yabPmLxliDs3OKI2gh8FBnJ03GXCgUh8AOOF2XbtaxfMzVy18r0Aamh9Tu66sej3j4ECiAA1R5QpvH9y4dHZDfyqgaf0tt6OisnXt0Pvzyz9cK6kPCGLURUVvYvRFFvwr3K8mITjQxIMDJEXIZaXu7dsumzJ6UFhq5/8nwcGt+/cLte4Y/tn3v90sEBgQys0RRd5wDblt5h/C/LngUu7p+fN4RDApTZmDg3GjRgzq3q6pXz0Vqf3+xK8PGjNl7dJV6zrkzlOAoqyxZDQFkKxoyQnREK1Hql1B4oVTvVilHAG9oDDDV1tsFDWu8/7xdYtn1E7p3H9G2gq0bt/l8+9/u/GyIhiIqQTJsldm2rO+8/XUxxjPLTBKG/ob4G0xeEDvYcP7dEqTQlJax+T5+/0bgWcGHICH171H2LkL335fGEEJHhDwAhHc+B5elMszTczRGGZKMHwBZ9YJ11UjPY56SgY4scIkzKSjYkWKXK9codzBD2rVPFjxreJQGUiVH+nfLUr6Xf6CA3zat+8AWTvwPhGUZQ82uVfOm1a3dqW3j2XkWhJ/9qmihLZq2f3MhW+vvGE0BSVcDBJVDiAcy/wW3Jz3iCwxO2SZ0Yny58lxd+/uTeULvGBJla6Slt9w+svv3+vSq8+xGEkn8J6DxOAA1SWPqQqj9ngMflxOBg6QVQ8wkHvjqoW1qrxZKsWqy8Ej55r2HTZsp83lZlK6hCZtQQ2+OTjwqnV4dVUADqANHWzUU5GX8/+8e/3GimlRBErLeJz66scPuoX3O/DEJupZI5mMzBHfwFVwwDKNni9Vg0JFY2CLuzX6CVV5961vNy5aUiMlPuenX35fNyy8377IGKs+MDiUNcmxOerj4MurNl5wAI8Ks9FAAZDYs0bRawXy3ji2a3f5oCAhSXnFtPzupN57/Oy31cMjRhx68DTaAk8IX3DgC25VcAAX7iBkw20xFBRgZBrt77xV+qe1a9dVy5vOa/QXHKigimfwfSsHUCtqvHXhtGFZAg7uPXwYrIAW5vGHSWnMkclWM9vq+/AMDegb1jOifaOlGb1f6udXbtjZJ2L0JwuMQSEEogJ7plQHYB8DQe/5NFxVzQ2utZNkRyxVebfst2sWTKvpr1N9Zl17er4nveBArSiwxITLoaxctrDphzXe3Zuea/DnM3OWbRw5bebsiTpTIEFqU9Lomb8KEiyBOhiruUmCnHV85YCDYKSV9IpIsstKNd9596td6xZXSa3f7J8EB6e//LJ6197DTj6MtWmwzzFHXlFh+4Mowlmae45gdedUHvwmrswGlR5FdtBr+fPe2LJ5Q+WXcwaku+k2pXvwxTc/VejcPexkrNVplnUGVhG22kUm1cwc6N12XnHyVOxVehGjdSE0ku30SuECt3ce3FE8pV6Uk198UzUsfMCJSJtTD7ENeI4gzmCMC+yfCrFmYF9wwPrWmImlRBq3iwrmynH7yJ7dVfNlF54rB/nzYGXxe54ZcIBxnLZw9fC5C5dMjtciBn2C2XcndXgNqMCVNHgAAt7JJDX1etbsho0Fbpw2WxxT1skRGiK+XCD/71WrVtlXv1aNfW+WevVCVmRkODg42BRSqQnFFhP+FrWMjz+xeKFyYLVa2QJWvFCBq5s2zK+WPzg4MrPn2aBxs1at27StM9ShEvYdJKQV6UCDYOZfaHDlrrBMXQmeELKdenRpO2/8sJ79M/v6rt+NzF+7QeObVlmrgyZ0QolKnr1mizgzTUH2nDtRglYEzjQy+mYNuZfNm960fs3y+1K6vtmL14+aPHvOBH1ACK9YGYxsc2DSggrCGBUceKomiibezRKZ6OjIh8iUTxzWq2OmVk98rxm0jBqN21367tffy7h1MK3RMBleZJGwURiYVrV3pqlBIcrTIFzBayBniOXJ9q1rKxTLnzPZkvD8VVsHT5oxbzpMAh0Sd7xOCRyAgoXnTZJFsmgU0thiqHfXDrMnDOs3KLPnhPp9qKQ07tjvi7PnviyvswDcevp14h2KudwiBwecc++SnBRkMpLoiCWNW6ICeXLHLV08p0K54q/+mJ7rBDiYPmv+eEVvITS7eE2CeNUANDTeo6F2hKjeD1xhSmY9Bw2zDByotKK/gwO1uuH91Vh7sN7guZZYJt9Nrxd55cqhvWtqZBNSN4zzd/x2Hjnz8cAhIzY6FEEjCTpm8MgSDz6Vg4TfhfsHoyTIZoqkkexU8a3SPy5ZNqfGP1kF9vf3JX5fRsEBQH/JwgV/2bJiWbXcuQMzJL2b0m+4+dfTl2vXb/xjjM0VABNShwItfjNLsJiIz4ekKgeY32aNm6wxUVSy8EuR+4/tfTmXIMSldK60gAOcFz4DTMFP4u7cMJSsWfldv2hFm7bv6dI9YvTK7LleJJsDDsZCfF8NW9O0PLzCSoEDVXItfJTwHKCCIjsorN3HiyaP7NcnvXMgtc8pimLs0Cvi4IGjJ99D5YatI2g+1hgY1x9+EvwisQ9zI0W1P1FQRLY/ZQsyRW1Zu676W0WTp/Vu2XOiS88Bg1aagkMZZVsVuWMyuawyzk/z9/4S9CQQifZo6tK6+cq5nwzqltpvev76PzMCzxQ4ePpUCe3Yp/vBM+e+rBSaIwfzITAYTMxCHg+EzsA3MP5A8+ZdJrUF+eL4yZ0wFI9v7sFmRDKJLpk9dEadHrbfUo0qVU41adJwdYXqbx3IDBUIdVp0j5i6a8f+g031cHlOELap7/AEDTAPg7kMC7C4kyykF1HW79qm5Y5Fk4dmKqVIPfvyTbsjRn8yZQb4v1gsmCqIqniMRjiPhCc4v0wn3oiAWyCnU6ZAs4VllUyCTPt3ra/4VrGXv8zsxwHOwU3ah12+8svNQpBdYwuXytnFYo6yr6cE7Hv/1etgdC1yKQumjW/Tsn6tLSld38CxU1et2bitsyEgmAXd3K0R8n4i413jUGkhvFqB4BOjheKTk0wa2bluzfImtd4qfSSzx8H3+8ZMXzR3wap1/ZARNgaEMPM3VM1UB+nEClN8T9GSFl4ZshsEG9q5ZXn5Cm+U+Cq56xwxad6SRSvWhVmCQ8klSyxzm/h7EzuV85sjswAuUKvIi+fOalm/Znm/ZFPTO14zFq+dPHXW/OFQLZLZs81BIoIJtjoI3JxOwK9mhnVwk4WxHUzInKQ4HLRr6/qq1cuWOJuea5gDtaJZCxk4gEmb5HFG5nODN/vxMJz/vwoYmJ68jISflVq2aLxtydQhrdJz/uQ+80hRgt6r1fDOnQePQwRYlKvzlfUM4QD9CdcjeXp2BCaTG2QKYF4GBr1Aguig8eNGRPRo3WhWZl7b0c+/btSz78AdsS5ZTxo0u/NADEfSDcn8etnarogkuBz0RokivyxfurRa4SwMljPrN6vg4F5UVHzPAZPVZfKw3t8eXylgmWyejAHlg2QHNa1d48jK+VMgRpHIkSazrpKtq8aG7cLPXPj2m/KQEQfvPdbJG5LBxVezyrx6ioqh6qjskbN2i5TNYnIc3L29SGr9VmkDBx7KD5I+MvYkX3Awr0Zq+/WYaXOnL1i9ZTDfP3hSizXaK2qlgI+1j40PG39mDIdKguSkLSsWN/ygStkDmTfaf/+mOSs2Tpw8c95It0bHnMTRRwUZbVY5YA3p6jrCK7bqwSrGgkx6QXQtnT+veYNq5fYnd53jZy+ZMmfR8mGmoOxMzpUlTjAXAbzhh5MghZmob00RSbTH0boViz5uWqP81qwci+ff7f8IPFPgAMPyzS933+jSvfun9/56kFtvNpMLsjpmI8sg2UUXydDH9nTyM3dPHy4035gTggNQLxDU4lC1jRHw6gUNaXQCOa1xTK6yXJlSPzdv0nBRtcrv7k1tgfPn9vUYPGX3rj1HmmhNCK58c7rqp/lDzhp72TVyUMDAgVZLkuigvmFdx4wO7zTBn/Ol9T2b951oO3z02HV2t0bDxkXgzYHMDkWRycjbe0EMZi7ICqthouHXTWaANLeb8mQPvLt35/JyhXLlyjQFDfV3QGs/bGC3059d/qFcYnDAKhcejmhyv9sDDmj2pDFd2jb6YHUK79N36j/qwM6DRz4ADxMZMjU7AxCJUjMODg50zJyNzzMODhTJRgXzv/Bo867NxYplQYXH97p3H/+iUffe/fbKBgsL+lngzhoXvcFVUhK0CK4ADiAFuWb5nEZ1q1VIdhMJHzptz4btuxqbg2A2xsEBm6fx46Bm6XmQwKo1cE0FmHSLlC9bYNTOrZtLv/pijjtpnZNpef/uT8+8Hz5oyDHBbSKRGfphq+SLgYhspwcc6HHPJIUUHddyh4qSLDpJdNlp9dKFHzd/r1K6Nrs5yzaNnjpz4Xi3wUIiy0C6WdDN2uQVLRlQMWB9COypiR8/VsmQ3eRyOqn1Rw2zDhzcjwyBxCzveQBA5LQmdjUqOBBkklHhgPKTBs2JbtKTDLArLVo6q1KdiuUupuWepPbeT899XTesT8SeOFEygveMuQWpRhzJCU/EyxhjnXQ5qEyJor+uWL6kelbRPFL7DWl5PS3gQE10qOCA+ZfIDurfvcPkMQN7jkzLedPz3qFTFs1evGr1AAtMBt0KmQxmsoncwRpHcrRKwvqjuOBB4dq2YX3Vt0sUSDbxgO9JPzgQmUSyZEfloMLFeWtSBwe9h47btnnPsRZao4WvYQwc8D/V/UMdd7V6oI4dXs8eaLIe2bH59cyIB1K6J3tOfll30LCRe57E2owGmCrqtOTC1os12zP+qrCAmpyCaRmrTMro+3PR/GmTe7Rp+F6yEr8Dx07ftHbT1tZ6SzbmzCwiuQZKkRvfA4DA1/iENEheuTFoFLIY9fAYKVbx1QK/pWd+Pf9M5o/AMwcOMISfXfqhdo9e4bvuP3waCEUdhwt9BQYStNjgFWa3jUAa/QZeV8nEKjv8ZgAEoCFR5e2pyiZqpQGlU4vRwHTx0bD4ZvHiNzp0bDOjWpMP1mWk6a1XxJTd2/ceaqI1GVIEB1isWGMUZClBhfLo1gO7jxjUd1j/Ts2zpPkHrtThAwfvinHKupTAAbTSAQ6g6sAysZLAtJEx/sVeKfD71o3zK+YJCkqXIUxKj4uiKKZ2PQYcPfTZl9UyAg6mjxvWp+NHHybbGPvkiRLSuV+f46cvfFVObzSToDF4M0xQ4vDosCcHDpz2aCpfrtS141vWlsj8xz/hN177437JWvWa/OBSAE10rGFfNUFTg6ukwAFrSsYe77TSjGkjwjo0a5ikYtEdRTEPDxt5/PDxM5X0gUb23ACUJ3Woqk0sqQuzLMSdooNKFC745+eHtufP6rH4/ua915s0b/WjPc6tlbSgu2nJreGZQAntRJ5yvFbhEqJqEGqAi7UkkuSy0ZRPRg/o1brJ3PRc6/84OPjjzv3IUH/AgcJomxrSuNxkwnxy2ijQIEjbdq6r/PZrhVIM9NI6bsfPX/4grE/EvliXZESw8xwcJCwGqMAgPpD9v6B79vhRYe2apa4wltZ7kfj9K7Yd6t1/+KiF0N0X3QoFWoIYvRVyzimBA1ZLkFxk0LnlNauXflirXMrV038SHDTv0ufzE2e/qcLBgScG8Ji7+SaXWOUGlEhBiO9hhMxpqaKFfz64Zl2W9ZGp9+DqnYevtmjd8fs/Hz0xAxzAb4L3FoipggONZGOJjkkjhwzr2+njZGOFTr2Hnjpw/GQNMgSx584lg1bloQj7gAP1mgQmXa5WPEUqXCDvzX3bdryb3h6tjM7P55//+wg8k+CAAYSvr9Xr02/A1j8eRQaZLVyDmen8mk3kEmXWKIkGZO+RHDjgPQgSefh6niZWNXtgMugIrpAkSxRoMpLDYWPyqPXr1TkT0bff8LLF819Iz8TsFTFp9/a9qBykDg6YhCmMmmCCAqMmlJTdIg2PGDB8SLdWU9Nz/tQ+c/LCD7W79ex9KE5UUgQHaAxHRRu0CWxeOkVHbugQKgq9UeyVG5vXz62QReBA36nPkEP7Tnz+fkbAweRRQ8K7tmq0MLnxgCtzh04dT1+59kspnd7I3LlVeVnQ0BKCA29Zl7PMJXI6YqhmzUpn9yxbUDW1Mc/o6z/dffRak2Yff/cw1mYyGAOZ34EKjpMCB8w5Gg7BaOiE7pI1msaMDB/St0u7GUldS2RkZHCn8LGnz1+88pbWwiVAkzPRUsGB5HHQNZJCLmcsVSxT6rvD29eWyehvTe3ztx9EFa7XrMW3Tx5Zg9HIx3m6cNPmQUB8YzKAkVZLdklkvSjQ58KzjkRARN/eY0f06jg+tXMl9fp/CRwwFRS7yMCBZI9DI7+8a/umSm+XyHxw0DN88L4Yp8jAAe4ZlyxNU+Xg+orlS6r9VyoHiTPYvlltLblo+ZxpHzdKZ3UrLfN648HTbfsPGbEBtWON1sCyy/E0HCF5QQbmng16L7ncSxbOa9EwFTqhBxysYkKcKTbLeyvr8dVJtXJQpcJX81bPq5kSrQh9SXVbdLz41fc/l9UagpIFB+p4a3U8PgAoQJIOBpg1K5a7sHz1vPf8kcJOy1gnfi8SVJUa1rnzMDImCLQip4heLz3vLWDJQhg6ehql45M1HpU6QSabPYqG9AmbMLpfzzHJXUfT9mFfnrv4TXm3zkxaHVfj06GaypJfnB7me6jgAJQrpyOOypYq/t3O7WuqZReE6Iz81uefzbwReGbBAYbw1MXvq40cN231r7dvF5YUogCLhT20yGYaLGZmO64eaiXAd+h5mczbuKyW1dU/sTCg+gA9e/QvIDDHwgDgIUlOCgky24b36zOyZ7uP5qfV1KrXwEm7d+4/1EQwmVKsHMQTjuB+qEWzIhdRgsNsRL/eI4Z2b50h86HkpuJnl36q3b5Lt0N2WUgRHEBy0GDQkQtmODBKEjj9AI2LJV976caOLYuzDBx07D3k0P6TWQsOHjyIy/1xt26fXbt+u6gCGVlBz+YCAkpeaua0DB4k/x0cSKKVGtd/f//qWZMbZd5jn/Q3Xbtx76WOPfpc/P3uvVwGYwDbRKBX7RtcqZUDlQaAjDoDB4KGnHFPaMSgHp/xFS1iAAAgAElEQVQM7t1tXFJngL9E566DP7v8/U8l9UZdKuCAfwPmhF6nIY0kkuKyU60q5T/bunJB9aweizuPbS+2aN/u/K3f7xdklQMEuBrB03OAs3uSBT7gAM3+UFgBOCDRRr26dkm36/h/BRyAVgRwoJOIzRHwrC06RV63cVWlKm+8lumVA4ADVA4SSyj7TSsqWfS3FcuWVP0XgYOT96KiglQ1qKR6DjBbfasG8XuaILrXzJ3dpG7N5LnkmfWc7Th+rmn/ISN2iC5Bo9UbyO4U2bqvViZVEKfunXy/5bQXVA4ERVQWzJndtlmdyptTuqZN+093HDhy9Gr/wQGnAjHqogccVKtS4auFqYMD7QfN2l35+ur1kqkll5AMYr1Inl4PxAB2h4Pq16p2fMvCyej38HUzzKwhj/8eRVEMJavVu/3gcVQeNIIj+ama0QnMfyF5cAD/AUj89g3rMvuTwX2TFIEAUGrUptvXX3/zw1uy1kQwmmVS3XCJ9vRoJQcO0NMAcFC1wjvnFq1dXDsjbIpMH7hn/AufaXCAe//djUdFx06evuj4qRO1jCZuyKTRaMlotjB/AzTzJpfd5MsXGna4WZaaJeCLMadLYFFm9CQNb9Bhi6GOv+a0WylE66ZhEYMG9OnUPE30g14R43fv3HvUL3Cg9hzwYEtmFQRQNQb0CRs+rEfrLKkcABx07Nr9kFWiFMEBGnR1Og0DB4yzrTEyIydZkqjYK/mzGBxEHNp/8lyGKgdTxwwJ79wi+crBvZiYF9q373n6+59+L+nW60kLHrSssCwzq+B4THJ8wQECcLWJS3TFUbOG9Q6snDE+3Zr5/q5xN+49fal1p24Xr/9xNxcqOpC9g1ZRSuCAUUbQjKzVkSM2ksaO6DdqQLf2k5I659OnT0Pb9Bp56svL379pMKVcOcDn1YABPH7J5WRGcLWrV/ps49I5WQ4Ofrnz+MXuvft9+cv1mwXcGn28YhBvDPaCAx0LfjWswQ8BGjM7Qi+FaKO+vXpMHtO/R7r43P/j4OD2nfuR2fyhFQEcYC00KhgbYn0jAAfLVy2uVPPt5BvX/Z2zvu8DrUgFB5i/z0jlwC9wkNR4oqNu9byZzbO6uR/n3nnqyxa9+g7cphFMhEQcE8/0SVYlCw5APYSDriDLixfMbZla5SB94ID3NWk16NWxU81KfoEDoV6rjpcuXPn5rZTAgSojjsqB6umC/RcVhDrVK53asnBKXUEQuJ5zFh1oCH+z1od37t6PzKmBhw1iE42BnDB4BSJKAA48FRV1D1Kc5LDG0KDwnjPGDuw1JLlLbNa+54VzFy69CwEFBZUhqDGBYuURUkgOHChuF3NGrlmlwvmFy+fVzuoqShYN8X/ya595cMADZsW4dv+nnZYsXD78t5s3Cup0BkYTwoPNGya9HfxeSUGPSoiqRoDmQLSTuhVP4y/PeuJBxEIApI7vQxMWwgtVBcboslOAUStNnjihY6sPa2zyd5b5Cw5A2QE4QM8BC2ncXIFJUCQa1Ld3loED0Ip69A4/lFrPAeMGCwoDBzj0pGdBBGhQr79S4PcdmxdmVc+B/p+oHERGKsEdw7uduHD5u3Iw/9GA6uAm0uuNjPOZuBFXnWuqI7HoslH1SuW+2LN6UWV/50Z63wdaUeOmrb5/anMYoTgBcKBm9tQnQPYEx2rlAJs87pUFPFPrU5oxYVjfLq2bLUjqGu4rSkDvLoM/PXn2y0pGM54xlVbklb9MLITJNPJ1AuPxQ+WmYtk3vt+/ZdUb6f2N/n7u19sPCjdv1/mbB4+ehnjBAZqROY/bS7fif1ddaZGJYxue6KBREYOG9e/eJl09Pf8VcABCAdZAg1vDcbDooAA9yevWLK1UJQvAgW/PwXNwwNf+xAIL8fNVcdLc8aO7tmlWd5W/z0V637d619GufYcMWxEUkJ2cktdUUvbIfKrrnpcGxgG4xg01I4lMOpKWL13U4P2KZT5N6RrSCg7wPHMpU145gBt9zUoVLixcPa9WampFTTr2+PzMl1eqpAQOmNqhJLFkkChy6qGqFvVumZKX189dWD1XrpTlWdM75urnULGt27DlrfuPooMACpCggmw4vBiwtiYFDhDMo5EYlT4on40Y0m/M4J5dkhUv6dBr8PHDx0+/pzUFkeipgrsh7MKiHVWtyCsRrtKKoEKnEZ1UtnTRHzcvX1slW7bMkzbO6Lg9659/Dg58ZsDP96MKfXrgQPst23d2vXHjZn4DNPpZzRHcam7K5Fmy4gEDFhdVBQ4ZVMabV328mNivhkmG2Z1OhqZZT4MkMWpRoNlIwv81LoJPbTabYzZsWF2zfLGXLvszKf0FB6paES4J4AQBKcqbAAdD+4cPj8iinoNjX1yp3bvfgEPRDinFygHn4IusIRnXp3VrSZEQYLmpeJGCv+/YvOh/HBxEhHdt1STZngM04Q7q0vfImfNfVUO5lUliQs1Kj0ZszsdUZSj5feeTRwUHkMUsUjD/rfNHtr8qCKootT8zJO3v+fK7X9+t36T5BUNgMCHDBFqRGgQnBw4QgAF4Bmj15LJG0fzZ4zq1aVh3bVJnVxRF36bXqMOHT5x5D+CANyRznwCVpqOeR83Psz4gg5bR95zWGCpe+OUHZz/dVUjIYgfbH288eOP9eg2uYDOFWhHrOWDNyN5fxntk+L/ZOEFNyCOLCXAwaeyIPt0+bpouF+dMAQfNP9y6ZMrQzDVB41KmflcOVHCgFRVWXZIdVgoyauTtW9dnSc/Bc3CQUMrUFxywdYUp1vE+OcHtpGF9w8ZHhLUfm/bVIm2fmLRk3fiJ02aOzhaSiyS3QrIksIox5IH5s+/rJaJKh3PaLsBBgFErrlq2qEbVciW/8AMcoOdA40/PQXLgAD0HqVFc2vTsd+TwqQt1UgIHKjADAwHgANRDp9PJ2AQlX3npwd7ty0pnRU+d7xhd/PVmmVZtOp2PtbnMEMSAx4JWMDAfBt7z5ksrUj12mLQKT3S4rPTJyKERvTu2TlZ6uFfE6F079h1qCi8fUIUJ+zr2dI9akWpyqfoHqeCAUblscVSoQN7oXds2Fy+YM+Be2mbW83dn1Qg8BwdJjOxfsbE59+063OHwp8daX/rm2zdFZL20elJ0YBRrGHdfEbTk4E5W8Y1GFjgj2h1kMnFfAehNw4ZcPRKaKfH/aoTGv0ag6OinVL/u+4c3L5newB/NaX/BQeKgixmSgOrkstOIQf2zDBygctC9V5+DsS63PiW1It4I5TWjAThA9QUBZ/EiL/0LKgcpgwPc47CBo/du33uwkWA0kcFoYUE3k1DU6UgDfrrP4Zs5A0CAx0D2AHP0ti2bypcu9MLPWbUQ4HtXbNrTc/jY8Ys1pkDuYCoiw5cwXE88hxFkwARNi+y5I47WLpvToEHNSoeSu87eI6Zt27h9Twvw980BFhYksKAlvmGNwwJvhY5L4Bkg1+t0UvZgi2PDiqWV3n6jyDdZORabDpxqHz4gYp3eHMgAXVLPLs6v9zTwsYocmCwwRdQRPX34J21et7Z54/cq7UzPdc5btmX05JnzU5UyJa2G0QNMZq6CxZzG3QrZrFbq8HGzrYsmR/x/Bwe4u2rlQKdIcIaQt2xeU6lCFvQcqOAAwYmvs7XfPQcliv7bGpL9phX5NiczBTvRRu2afLh7wbTRzdIzR/39DAwW2/UfduDIsc/qkqIj9Bwgc43EFTsEBKdJgwNQdpEUyB5sch0+erDYa7lDb/yvgIP+oyasW7Ntf3tzYDYW8GM9x6GCAPydixeoLIKE4ZZGcSondmx9o3SxAj/4O5bped/GIyc6DB48ciVpzTooM7JmZGY4qpAEcAClQKYehOvklQRWvRckUmQ7WfQaZdLYUd3aN2uQbIVp5KTZy1at3dhdawxiLthoSlYVnPA9yYEDVA5gIitaY+nYwT3l3nq94KX0/Mbnn8n8EXgODlIYU5imXf7xm/IHDh/tcezkqar3I59k12kNTNOcwENGNlFvYI3LaDqGtrhJy3XsYeLFOMiJvGVgIc7WQ4/DKRyaQZlQSKIcoQHOJfOmv1fj7TLnUrvVaW1I9iVG/VvAQYkiL/22ffPCSlmRWUEW+5+gFeE+jp46b9bSVRsGwi2aZdqhveHBjNz9wXskBgdOZFoNRpoyfky3ds1qr0xtXmTk9R4DRx/Yd+jTBoLJQnanTEY0u3voaCrI9A3amTkcqHeeBvIQk861Z9v6d998Lf+V5K5j7PQVUxatWT9MZ4DiPYJZPBAw9ErI5VfPw8AHGrlBwXK7yOiWaMqE8eHtPqqTbLUmI2Ogfrb34Mnbt+3d21xjMjG3bLXvyLdywJ5jSWF9SZDjBa3QBA1xp5VCLEZ50+pV6Q6A0wIOcG40PCIbyTKCJJDdZqN2LZs8Bwf/fbWidIMD+ByUK/H6ta0r11TKSjrHb/djc7Vs3/6nO/ceZkcyCNRKeHSowAB/JgUOWHLEUznImzMk8uiOg4Vy5hRisx4clP9y3ur5tVKrHMxetn7Y2BnzppgDsvFKjCdRCOCVuAHcK4nOr57REBUXTRgWMbBn+6ZzMmPNSu47+oyauHrD5p2dzEGhLPiHQACMX1nPB/MkwTh7TQwZ24A1g8ukUUSymPT21csWNKhW9o1TyZ1j8Zqt/cdOmDJHbw4hN2ThSUuim4O/xOBA7a/DawAGsuQgjSjSyKEDBod3bjkzK8fi+Xf7PwLPwYGfY/XzjUdFv7x0sc7RT483vnj520pRMXF6MhpI0ZvjZU8VF5cJNZvNPJPqdsdzthPalPEyKoCCDj67okjBFjM9ifyL+vfsPHfC0P4DUrssf6VM/82Vg/8KOFixcXfv0RMmL0TQjZIrqlCoHCCr5FXB4sGx2vDKGl1BBfO4djZrWH/Xkhkjm/tTVUpt7iT1+s2/nr7coFmrrx4+jsqlDwgiq91JRqM5Xt3KG7wn9LrE9Roh5RkTRyWKvHxz56bF1V7MkbxB2eodR7uOGjd5OXYFKJagQpESOEBDNKoGMIxDhU2yxlKd92oe2rh0RqOsolk9jFPy1G3Y/PLvd//Ih0qPCuj5VseDGtwfHC4Fkn28AsSc0bUaRp0p8lL+v9avWlalSMHcv6fnfvgLDoCtWF+RRmHrkF5rYqpAqBy0adEwq2hFt+7cj8zuT0MyaEXPKwfpmQGpf8ZjgpYucIC1B024IQaNvHzJ3Pfer/DmmdTPmL53bDx4om3P/oM3BASEsLkAQQY1eMY+6QsOvGfgPHW37GK02zdLFb9yYOvK8oIgeCUEk7gcT8+B37QiSRGQr/HpObBRzUrv+gUOdh0506RLv8G7BYOZJUnQcAzaFvwMAH4SCpRwhoEKDFRaV72qFT/fsGxWjbSqFfp7J/54ZM3XuPXHZ3+/da8wfHbYWgsWhOTpRfwbOODfzGqlMDF02ihPjpBH+3fteKdQ3my3kjvv8VNf1e/QvedBBW7RELJwyUzdjd3nRJUDX3DATTYl0koSVSn/5lc71iyoktXqTf6O3bP+vufgII0z4KaimJ78cve146dOtDxx8rN61367UcLmdOkVRUOBAQEMDDicosdTQGaLhu+Cx/+uZkk1TDXABU8Fo55EazS9WabI1e3bN1bOJqTcmOOvCVpK4GB4RL9hg7smb2ySxqFJ8PbMoBX9V8DBF5ev1mzXtedRq+TWQ2KRaXzrONcefSq+c8IXHOC/g9Yj2WyUKzTYumv35grFCmTPkhL07BWbRkyfOW+SrNOTRm9h/TFqk603r+flBqtX7XSLZALdzilSjUrlzsxYObtuIUFwJDd3vvj+VoW2HbudtrocRpYtZKpeyVcO4KPApF/dMgWYjeSMjabgQItz+6ZNFd8u/mKWUIuWbjjQb+ykqXMhPQtg4CE/eH5SQnDg1vKGQ7igM7V2WSS9RqFypYp/uWLuitrpbTacu3zbqMnT50xQjAEpOiRLDJygH0pmwQnAAaSAAQ7atmi8dem0LOk5+C+Dg3+bQ7Jf4EClt6jZbUxmNM8LopPatmq2Zta4iM4ZWe+T+yxkNFt0izh+6OSpqoEh2VjQ7NuY6yUtemvb6nrIA1SFXHEx1L51iy1zJw5vndo1pgUcsCog0LUWUqYymQSoFQEclD8/b/W891KrHHx99Zd3WnQOP/0k1mZBXyHAOetDAu0YDsFJNIOr18/WVrdMoSbBvnblig8qly16NrXflp7Xl27cFzZ20uQlGoOZgTL0GyCZwfYVGQG8p3Lt9qorQj4WhAf0esBb5p0ypa8e3L6mdEoA5vqtP99s0qLd6cg4Z4hbZyKnQyS9ycioY15nZG9vA9KibA4KqGQQifY49CK51i9f/GG18qWOpee3Pv9M5o7Ac3CQgfFEs+lvl36qtGvf/g5HDn/aLM7mMLNAx2Aku0tkYAEcP19woKrTcH8EDWl0JhJFmZXWDDo3WfQyHTmws2ix/Pl/TenSegyesnvXHpig6fzyOUiKVvQcHGS9zwHu4cOHSmCj9i1++enGrXwmcxAz3IP7MGu2hSmQgj2Kl3e9gaiGVRWwiDtsdjIoMrVo1njzwmnD2mRgyib5UThotmzV/vMnUXF5BaPZM2fRhK823PqSiRLCWzafZYk0oky9u3ecPi6ix9CUrg/KYFUatL/20y8/FzaHhJDD5XkOEpnkqGdUNDpyytA5VyjQaCCXPYaNS62a1fduWjS5WWZn3H6/Zy/40cdtz915+LiARse1NjiVyM3iCI2nYqBWDlT1ItDDWM+BLJHbZafuHdstnDS8b3h679X85dtGTfQDHICahcoBU0qDOohgYCaCostFrZs32rpkyuCs6Dl4Dg7Se2Mz8XP+VA6SC1BZUEbwk3FQvhzZo3duX1e+aL7M72naduizFoNHjN1sldxaVAkBUpxQINIKLDwUGK0wYY8R/q0KMhj0WrI+jaQZU8b37tqq4eLUhm/zvtMdBoxiPgepNiQnBgd6jZtkh//g4OZTJbRT9+6nL/9wtQw8kkDrY9VgVBFEN1dB8gEIajDMfwMSIhKJcTHUqP57h9csmIZKaMIGtNR+bCqvX78bmb9Tj/CTP/x6/TWzJchL3fKoJ7kkJ0tiQqCEPOAAlERUIQmqix5w0Lt716WfDOndM6XTQZWvfVjnU19duVoWPWuypDBwAMpjUuBA9oADZoqnQQeKRI6YJ1S3VtUzm1fM+SCr5V0zOLTPxMefg4NEt/n2gweFA3W5HufIIcSkZQZ88/Mfbw8bNmrp9Vu3yzpFhRySTHqjiWWJGTc7nlrOg0A06LCGOeh/oxQpiaTVSqS4Ymjj6kUf1K5UKUX0DHCwfd+RJjCT4otr4iNhI+n/J3BwINblNqS3Ifm/UjnAnek4YPTOHfsONkNpHc3sakbcxLLnyKjwxltfcIDPoeEVCzZj6MtOccrEMR3aNam9JS1zM6X3XlcU48zh47fs3LW/iaLVk94UxJyRdeipwRbmaRpMSCbi840DXSzzqG44pO0b19avVb5YqlmfnsNmrN2ybUsHQ2AgaiPsOfj792vYc4MSNOIHUGXgtmnEOLgl0imKe+zIiB49WjfOtD4MRVF03QdNWn/k+KmPrU6JdCZjvOkZwBsfj4SVA/gboN9IdjrYeAAkSA6re+2KxR99WP3dPem9TwtWbR82adrcKbLenGLlAA3JaIbG2HCJYl18Q3/TBrV3rJg5okV6ryGpzz3iakXPwUFmDmo6v8sfcICv9q0a+J4KgauMXhnJQe2bNd88b/Lg9plJ1bt24+lL4f0HHv/up5+KkNFMslZ1JeYKRTi/PhVwIIjgvOusG9Ytr1v5jdSz6+kDB9znIK3gAGPZc8zs1eu2bOuEviNw+HEAHIBWo/47aXqRhhm86RWZXI44mjxhTM8uLT9cms6p8LePKYoiRIyeuWbd1u0d9JYgcjhl0hr0zHjOZrORVq9hkusQTWH9j6BXMelRrrqmIOHjFglS2muXL2n4Ya0KB1K7tmHjZy9ZumZjmDEgmKkV4dYmVzng4EBgst7Y9bIZDSQ7YiFdRMMi+g/u173d896D1AY8i19/5sEBgiPhkbPAmVMnap/9/GyTn67+8FbPrh3Hd2rXYl5ax/6PB1GvNGzS6nxkjDWXKOhIVIgFgVA74d3/XgqJChac0JPX6cjI7oST3M5omj5pbLcOzVIOeroPmbprx97DTZ+Dg7TeJf7+f7IhGedbv+dYxxFjJq6JdUlkNFmYuRhKy0aoQ/iCA6iVwsDJw20X7S7KFhRMjpgYMhu1lDdnyIM5c2Z8WOnNol+n75d7P4UNZO7KzZ9MmDJ9ZFCOnJqoGBsxB003Mfld0N30HlSZVMMwa2Rzw/HATa8VevWPPfvXlswppNwwiLNvOfxly6Ejh26NtjvIqA9MERxghwG1B8+IJDoZfYeBA42bXggwRq1aOKvhu2XfyJSS/NwVm0bMW7Ry4qPoOCE4JAdrqBNJZptcPD2PgXxUdbw9BxgryWHnhnaik14tVPD+3m0rS+ULDn6c3nu0eM3OgROnzZ0lao0pggPwerEBq5UDRdaQXoPgxEVVy791Zs/a2XVS42mn5RozCRy4N29aXaFimaIX03Lu1N4LE7RMUCv6z9GKVHAA8OgbqKqZbWSwdZIkTRk/une7Zh8sT22c/XkdDuODBo3YeuKzc5UNQSHkggKdFpl0EOAU0rDKOZHB8xwlrk2qlQNXXCxVKP/2tcWLp1YqlC1bVGrnzgg4YL1NzjhGK1q4et77qfkc4Fo2Hfuq+YAhw7fD8RgAgTu6Y62CQ7DXGNUL0Lz0HdC6wOu3RkVR0SKFoiZ+Mq5pncplTqf2G/15feGq7YMnT50x3a0zEnrIYq12Vgk2GnS8N0lDBKdmVDv4AserHAAH7A7ByFF20UsF8v65Zd3KCq++mHwfmXo9B0993bB3/4h9NvQzaAzsPuN+J1c5gA8C+pasdjuF6iFs4SDFHkUF8+WJnTZhbIv3alQ86s9v9ec9u/Yc6Xj7zzuv1GvQcPXrL+e56c9nnvX3PLPg4NJ319/65uoP1U+cvVD7q0vfVHTG2YJEyUkkuqh4sdd+37R+fdX0aO6OmTx/8fzlq3paQl4gpwwqAkfQ6gFmMg4urach0CaYIgs4fhqJXLbHNHbkoJF9O3WYnNLkfA4OMvbo/tPgAB4abdp0PvvbH3deNFpCeHZepyO9rDBw4DUXU38Xgk8NU79y2uwUaDGRLTaG9FqZXi6Y787MGVM7VC7zero3EtB7pi9cPnrmgiXDSG/R4jJMlkByOd3M7deoN7FGebgT83DYW5tS/8Yz5TJZY6JpUP9+s8b17xLhz11Bk1yLth3O/H73bhFBYyJVztaXdezJ07PnwyGJHidPItlhp4BAM7kcduZCXChPzofTJo5tX7NqxRTNkVK6LlQMpi5eOXLBwhVj7E63JiR7LraZavS6eHCgBjPq93BwoGEBD3oOUDEwggIRF0UdWjRfPH/S0N7+jEVy71mybmefSdPnLnAIXBUNvSioXjCXYTSqe4IqVCbVhmR8F4ISk8FAcTGxVPK1l57s27mqRK7AwPsZuRbfzyYGByo9kt9Db7USTYhyAqDLaXKgKhhIdG/b+BwcZPSepLVyoIKDeGNDZtDlZvPW6YilbBazferEcT1bNqixLiPXduuRNe+QISM2Hjv9ec2AwFCSNVglBBLh+wN+P6qNyCpLarVLnTfeFUBVKgJFr0P7jxfOHNXfL4qeBxygIVmbms8BKpOsIVaDyoHMhQ8ADipX/GLhqjm1/QEHt6OUbI1btPzmz7/uv8wMz9BsDVECCb49kGtVpUy9njFsbCE7DHCAdddsoNgnTyj/i7kfz5szrX2tcqWPpHf8IRu7YNnm4XMXLhprlxSdAEdqKMrp9OSUJNbihQKOLDo5358AYPgaz2mJoDTIJLtdRJKL2jZvtnbOxGGd/RHCgLpjvY8+unzz3oPCLkFLOr0+XpAlKbNPpJVkgAObjXIEmEl22cgCl2pbDOXPl/vJuDEjunz4XtW96R0LPsyKcfaSNQOXLVs+KSoqRnil0CuRtT54f23Lli3Xlyqc+/uMfPd//bPPDDgAP/D+vbtFz50/X/vTUyeb3L7zR+F7Dx6EaHVGcrsFCjJbWHYQzZ8w5mjS6MO1i6aO7JZWHuDYaYsWLFi2so859AWyOVxEWmOK4IDlXZFBhu69VmbgYFCfsAnD+/Uc4y848KUUJbahVzOe2JixULFmI4/PwciIAcMGdW2ZLgfX1B4MT0Pyc1qRz0D1HjZxzbZd+ztC0hTNYVqjidHJ2HbpCyBVmT9UnDTQsXcycABHS+hCizYb5X8xf2x4zy7D6tb/cGuBEOFJavfD9/VLP90ptXzdmolbtm5vaAoOJRGbAqtWcBpPggNzBpsngCwUTqDApeXXJbhdZJLsZNZT3OaNmz54p9Sr5/29jnEz5y+cu2hZb0toXooBhUcHl1IOmNCL4cvX9aXleatv3KRHcLkoOMhs7dczbHTz5q025QkSHvp7DXjf1duRxWcvXjgePUMuNOvp0USH5gIdC/rxrKjnV43O2DghE4rNjXTsmiWnlUx6gYwkiWtXLf2g+tsl0w3c8P1bD5xqP2TEqDVO1EhQCfBs4NxUiPmKs2vj4IDzxz2bIZsjGgQpikjDBg8Y1K9Lq9lpGZOU3vvokRL0XsuGt/68/zg7VE8wbbkPhA7t2Pwa4EvhMVfy6J6QCDlYlimWyKg8BweZcT9UcPDX05ggNUuN50YVElAD0+TPBcqeltyiSIEWA1ljYyjQoHX16tF1Wlif9rNTE8VI/L1IuBw6c6na0mUr5nxx8XJJtrbIQvy8YMpaHsdcth95aIlY+9wy6LW6+IocwIMk2olku3x4386q7xR72a+1JW3gwM3WNO6QrHDqosNKNSu/+8W8Nf6BA4zBpLkrp06fM3doSOgL5HS7GVUYruCi22s6x55ZRaUUc/8aBqaZhKiGjILAJJDNZkmPENwAACAASURBVKOjT+/u49q2brU2d6DwIC3z5Ptf7r2+bMXy0QcPH2ttc8oEYGZH0zGeT8/+wgUvvBED/A6YCz1WMw163HAvRNLIMhn1gnPVsiUNa6WhQXjGonVjp81bME4GRdUQwPpLzCYLWW1xXOpVkpn4igIhDo2WHKTFKu7pQADNSmKrCRSM9G63s13rliu7dmo3/ZV82f9Iy1gAJJ389nqNxQsWjzp/4WI19HXqTGa2trtkibJnC31Su3bN/Z2bN1xcrkThS/6An7Sc/7/w3v80OABqPHnhhyrnz1+se/aLi9V+uXWrzMMnkVpIkAZaLCwjCQ4xaAEkyeQUHRRgNJE1Lpry5MxO7du2HjayVwe/g+cnT5SQRm1bffvL77cLceRs5JKVnk0zYdWATx/QiozgK8oSybKV9OSiccOHDOnRrsWMlCZYt6FTdu7cc6QZaEXpBQejBg8cMrBLyudJ7yR/ZsDB8CHhXds08ktz//Ovf67UqUePU09tDoMBetAwylO4QYyv/wUfcx5oseBUkhhX1OFwMMUeBAJPI59QSICJSr5e+ErLj5rM/7BWo50paYAriqI59+2vpXbsP9Dn0KfHWjx4+Dg4KCiE7AhyWaMtP6uqrcVNa7iiBQs+Ib+KYNnA/8Rh1ijkjntE9etUP7xm0YImaWkiu/jt1TKdeoZ/cedJnMUYGMqCXabaZTZTDChU8A2RnKQV0HD/944adV4qkguwhW14r7xc8FrPLl3nNWpae3tKgQ3G4tvf/nh908at/Q4cPdPqr8hHwTAztJixJvCuD5MBMq7e88ZnAD3XovYMARywAANOoo44er96xVPbVs2HkaE9vc8OPnfi/OU6XXqFH7CJpJMEdHWgTwW9J54sH6hEyEoytSeP6gfctpk0ICSUJbbhZwsKips0eULbJjXe3Z/UBohN9MbTp4G//njr7djI+681b1x3gyAIcclde2JwoEM/uqAhp0aXYJ0DCMB1qAZyAAc4dCSRiUT33vWrK5T7H6UVLV+2uFqhXJlXbcnIPEjpsx5wcOKvpzHBGQEHyOCDHmi2GJkwhiM2liqWe/NyhzZtF1SsXv1AaskHts+eufj+xu07wj8/f6FGjM2lRwKEm9Dxp5PRVhJUzTk4kBAE6vUkiQjSDeR2ShQcEEixMU/IrNdQ5Ypvn5s1ZlbtAgX8e57SDg48iQhJIL2gIclup5pVyqUJHFy5fuvN9u26nrz78FE2c0gONuchtKDRG3m1BPQaDyjCM4lqG4JfDg5MLCFjc1gpW0AAibKL7PZYKl3y9V+6dmo/r3612puzZxeik5sHWMsu/Hi76NHDh8IOHjna+ufrN18ICg4lc2AIPXoSRRZzAPuoLzUygVqiVk+gRJn1euZrAM8l3ohspRqVK53fuW5R9bRIi35z/Xbx1m27fBbrkl6ItjlJazAxAQ7MzwCTgRRRYt4GDnscKfB40kGo1puQwjgBRKkGoPaYGHqrTOk/q1Uqv6ppw0abSxfN92tygTxosneJTNe++KH6jgN7u+0/eLS+U5INgqAjjIkV1CpZIaMFYMVGJh1RsMktvl+16t5WrT5aVvOdN05m1bP6b/ze/zQ4uPj999W69Rh49O5fD0wkmEgXEECKoCGHp3mPq5hpWaYS9A0EagbG17WTaLNTnlwvKJ3afjymW3in+TmElBuUQU34ZNaKBbPmzQ8zBYeQJSCYacVjcfQ91Imv/jdWjtfqiVyQb3aQ4oqjVUvntWr8Xo1tKU2o7oOn7Nyx7zk4SO9D90/TitTr7Dti0oatu/e1dSHM0/FmdBbceTL2iSs/rFQtSWTWaZkEIMrfZhhzySJTGkEQZtBpKF++fA9Klyz1RalSxc+9mLfA7cAQS6RAGlNkZGS+H69eK/X15SvVb/155/WnMVazwyVyyT00CcYPYOJ5yjd0X54yFnhQWOx2O1ksFlIkBwWQ07luzbL3K6eD9z9k/MwlKzfvCHPIRCEBgQRZTpvNSSHBwWSXRI+xEIJfb5Cu9uqogAEBfEiAhY3RkyePKchkpLy5cj5+/dVXztesWeNsnlw5bwaFBke6ZTI8efIkz9Vr10pfunSp5o2bN4tFxcSZUNYG8NHpYGQmxW9kbo1AcTYby3rhUN1cfc+Pe4YMIQ49RAZkh7hs0awG9aqVT7UpO7V5e/Xm3TINm7f+KsYuGbzgQMvoS3y+cHCAjRV9TewaYCoHoAJwgOoBAwluCg4wiyWLFfuqzFulv84dEvo0Kjo6290//8zhdLhy3713L19sbNzLTx88CMqTO8f91RuWlymcO3eyGUsvOHiYHVQFvQy/lufgILX7mRWvZxwcwIyLOBC3OxgYDwowwuKXmXgimHshW2hUsRLFL7xZpsxnhV4qcCMke2ikViHl0ePIF/7660HBH3/8ocK1n34tf/v2rdwyCVpFa2TZYsnNEwrMMNQDDlSXat/+JTvJpIeJIBpmUYmS0I8A2i0yyJK0cO6Mdk0/qLTV3/H7/wEOcG1DP5m5cMPmzb1dbh0RepBkgWWqUSFmz2sicKD+HtmtoaCAYJYQQcbeYjGRQiKjagYFWShn9tDIUsVLfFX2zTfOFH658I3sOXM8kURRd/fO3Xy3bt8ueeGrSzWv/fJr0UdPowKCA0NIMBjIbnOSW9CwBAdzwvZJ/vCL8a6nsqIlrcFAAioeoh0uFGQ2aCFx61o4b+5H/jQiJ743Y6cvmjZ/2cohlpDsjE7mREXW4wMhO5wMhCpIwkBMQYYanHfvSTxHQIFyO52scT5/3tzWV1566UrRYq99/0bJUucDg0Jio6OfWmJj43L+ee+vwr/+dr3ML7/9XvxBZGQ2WVR0BPNM/CIk1/RGhSV4FFR7FYHJ6WoVkkUr86YJsJjsb5UqdaFjx3bzG1SvcFRIQY7b37n4b3/ffxocPHjwIHfz9j2//O3WH4UMxmByoayl1VE0mgc9ygl6jZ45HAfB0IwZw8hkMiKT4WRZBJTA3ij5+lfhvXtNKFul7OeJGy7R0Pz42q0yK1auG7r/4OEm5uBgcjKnKx3LhEKyUj18gYGaVVN9DhDgGQ0aEm1P6ODuHaXfLvZKinr23SKm7ti5//BHGakcjBgyYGhE55bTs2ISPzOVg1FDwru28q9ygHH+6off327ftcdxq80VapMlguM2qgbJgQM0tyGzg2UODW+yJLGAz2zCvMKC7mRKOSoNRxYlNrWNer1LUWRdjNWuAZggnY6ckIbQaMlgsjAHS5vIG9N8zb3UjVydE/BhQGYPgMBo1LPNBnMX1ba4J4+pU5umG+ZMHNUhPWXZK9dvl+jcve+Ju4+e5BFFFwlaA6uiYUOFgzT7u6dKwa8HWSXvbAVAQEY9xhrDAJNZr2OUGh200W02Nm5QW8qZM6cUE2fTxsTGCpbAINIb9ORGWVunJ1FGOZ03gPMCPACQwKhTfEPjAbcvPQ9XwM6N94GOoBVIssVRs8Yf7l42YzSM6pIvdfj5sIHL3ODDOjceRllDAQ44ZUfD/B5wwDxKARUBxQOPuRL+Ox8fL30B/0Kgh7njcNpJcjgpMMDskVj09JNgz3TZ6ZXCL909tm9r2aCgoGSpWQAHtVo2vHnv/sMc/6PgYH+sSzIwtRSWueYDrgYdiYcfgQl7DZr/LgeVKVH0139L5eCbH35/u21Y/5PprxxgNLjvAPY50OMwRxC8GzC3XC5GM8EzyKh+Oi2Z9Aa3ohVIdIkafA5rAwIu/ClrNORyOUmjM5KBGSi646uM8euJB+jz/Y/IpkhkMgWQ0+5ic9diMrF+IsXhoCoV37kwf8OCmqn5Dfje00wBB5XLnZu3ds4H/vQcqOf+9vc7Rbp26fH5Xw+e5BE1MHrTMuEJACWsKr5Vk4TUSO7jgvGDy7nT7mDrN3IOkCRGpUGW0CDsZv9dq9WzkoPbJWqQQAE7QW8xkaDReaRUOSjD+oDlPn7cMdg+yxKcp5EohbKiwWwmyWknvVYh7CpxsZHUovGH+5fNmYS1zOXnkhX/Nkioftyhy2d/PHhUmK2vjKqp4BFj+5RKHVXXUV6lTihnqwJIJEAEBRKxbjJqsBdaSXS6yGTiNFskdfDdSCxhrwRVl9GmmdGeNt5nSpTc7Czch0Lg7tBuN9pN+B7qcLFqjsWol8u+WepiiyaNFtVq0mC/PwIbaR2ff8v7/9PgADdh+Cezlq5av6GHyRJMUTYnafQGMiBL6Xazhwn66SqtyOHZRFH2klwet1NZJAUcPA1RqeLFrhV//bXP8xfMdy8oKMR676/7eb/+9pcKP/x8rWJ0rFWApCEzQsGDKopsAvtSE9QJry4ULOunQLWG2OIs2WKoRInCV/esXlwlNDT0aUqTKAzgYO/BjzRmw/8krejEhR/e79Grz8H/bSnTwQf3nzxbWwtXR4/kn2+mPLHlve/9YP0b5KLJaQQH+I5pC9aMnjV33nhLcHaySZAx9QYxKp1IjYEVN3fgxQbCGpiRVxJF1tAGDWloSaMnAHxZh9PGVGrMJiNfSO12DhoMOk4LAn1JUrhEqMCrFmqwqZ5XlQ9lizW4wJJMJpOe3C7eG4G5iwbGuLgYeu2l/H+sXjK/ZqkiBdPlAoxzLFi9bcDEqTNnA7BIAO+4bqdIgsEIL68EBy85e7cRxp7V6tjvx/0Q7TbGj7IY9EzRSIv+RwT4kkTwI9DrDSzYZ2ZhRgPnZqsbE6qIkCJUNGR1Odn7mAqRh1qkOrmqIIH5U3hMmtADUiB/ngcrli6t/nbRfD9nxuKPEnm9Fp0vX/zx6psKXKS1JnJjrQCHWFHIIGjY9SL4UKlF/P6oBx8rxvNVuKwi1jAEeTyDhvmD4M5AWsgZyk56tfBLd7duXV02z3Nw8K+gFWUOOPA+I8xsUK8hkw48dJ6EYNx5D0DXGfSs1wZ0XKbnj2AMcpis+dYDqj3rFV6Ps1pZs60a/CV8LtBnpZCdKaOZWSCMRIRJB9UaCdxz59Kl8xvXqVI2TYo1mQUOZq+dUzstoAS/bdXWPeGjxkycrzWbiXQWxhxQzS6ZXKiPWqE6Fmwf4YEqC3YNWi0LcpFfUCTulYDxZ+RkjZZn2j2N3EYoyslu3lDt9vZPMB8JN78/8eDAE36j3xgHp7KiyUBPVpi2CjIFmHQk22wUGmx6unH9quplXy+c7obdDbuPdho8fNRKrd6sQTUDYwGfC8RE0TY7b37WQsqWJ5vY/utDL1LVq7g8Mxqk3SxZhAPJXCaDq8PYcFDAAAIzdfOugKCkol8PlTHEcPgOrPfIBeF77XabomiMislkQpZHAHpRRAejVOFMdd5/b++6ZXObZMZ6/m/8jv88ODh/5Zd32nXsesYpKmYyGhWbQxJ0ZgtFx8UxfXJstmyiQcLL03CJTZRl5qD1C1qHw8443y4R7TO8gSkmLpp0BgtpjIFEBiNb2JhTqpGjZGQCEMTFy8glCOE92sJwXwUw8GRLoiMf0qhhA2eN7t8tVdWXsIhJO3buPZIhcJCVlYPn4CD55QC9KV3Cww6c+PyLKubQ7KyZMzGdSAUHKo0IGwQ2AChqIMCDOZoerpyym2fINRpGqcF8czk53R2Lp07QsQYskfE4tSyYxoGsEhZdBJkMtHr8BNSmUsjM4dDptOz7YEBG0NOXXKyiZrIY3FPHj+nYvkmdDRlZ+O4rSkDvjuG7Pz9/obbeYGLVDIMlkDXyWx0u0nmuF1sHDhUgMMoMfoeChjZkl3gAjPEBPQIPFqordquDdLh2pNs86iGQkcV4gZrF1JhkNwt42IZlMLH3gpuKQ8UnicEBAm9cg+K0k/J/jdlTJ34S1rVVw2UZGYvEnx08buaqVRs3d5axvugtDAQALGIe4PxMGtJz39TPqhtt/L8lnqRAv4oa0PGNGUZNIgvuJNFGBoWoZNHCf27YuPStZxkcvFGi6C8rli2u/m/oOcgMcMCU8kC/QIYW80InsOCLVxMsPOPrqbJjr2I0Fablr2fBHarkqHqjigZ1M7yOvdIIei7mlxqNJvFgoGKq6LlaTTAy4KhIWK1MW79L29brZk4YApWcNFXhNh041X7giDEwQfNDrQgBdRI9B5XLnUsPOIAbdLueg/bsP/xpPTRje6tXXupo4v4p9fzIZqtAAeOh8YAvDu65zChbwzwZdm6cSay6ozEavK+jmokg12PGBo4//5x3GPkt8VB5dLwabNARRUdHUvD/3cvxY0YN6Na2ydyMrGXoZeo3YuLGLdt2ttKbgwgUHyRcsAtZRYnM6IVQZNJLLiLm/ebtTfGtpLNYymwi2SlRjMNKAXoTm1+4ZvxP9ZLAPAYoYk3tKHcxUpqLAgzGeDouZFxh7uZ02UgHSiSuSdG74xwushh0gqCIAqhGisNGFpOB+vXqNaxv9zZ+95xmZLz+Fz/7nwcHyMCFD524aeP2nR8bArk5h6TVMW3dwIAgxvOz4e8GIwvs1WwrNlS7LY43C5NAdoeNLZwIF7DogWIBXp+iNVOszUGBMEJy80DthezZKSryMdMRZvMUwUaikeZShDwzY9RpKTomhl7MmyNu1cK51Sq8UeSb1CZLr0GTduzcd+gjMkMK0nukUa1o8KCuLbPEbMQDDg7Futz6/1UTtE69Bh/Yd+rsB/905QB36+cbd0q37dLr6J3H0Xl9OZdqcK4u3qC2YNNlAaFOx3pj1CwTFkIJajU6rqfN6rYeCgXb7LWQ5pPIYDR6qg9cphRAABQB7Pk6hhISgwMhXt0CexIqaox2x5puHRQSZKZmjRstmj5mYP+0qnklNa+/u/Fn0fBe/Y78evOPQkZzAMU4RdLqTCSz36qw1j0OaXhjnxqYqxZs+P0G9AzBtMfuYJsDaDR2J5rOjKTR6chqtZITsoHItnnq7WYAfpuVQM3Ta3klweXRX4+v4HiCJvRa8LHlql/MdExxU4iOqM4H761aNG1s78z0E8C5th083bbv4CEbJPQkoVlT4B0HzLCIV8njiwYpKdMwmhQUSVA98ARxAEcAhngNmTKdLFORQi/e3b1uTdk8efyhFT3OwXo10teQrOxdv7p8FjUkZ4hW9KyBA9KBOifz6hroLTodS1ZhXjicnr4fLdYKHnAxcQLWByWTVXKREVUtrCkEGqCOJdVATULmGuIJrMrpc/j6GTAVML2RouOiKdRoJp0gM7XAt8uUvD518viabxTJfze1fTDx65kCDqqUOzt7zZwP0lo5wLVcu/OwSO/efT+9cvWXQgEhoeQSeUCsrvG+2XG83wRTMruVq9LBfwDVYb2erVMxsbEe4MafX6ZqqNEymg56BBiAQ7+Iy0UOVBM8GXFmPMZUmLyjo/qyxMMCxB+Cm1xOiVV3sLZDfa5x7doblsz+pGt66ESJ78XPt+4X6tot7MS1X38rbAoMJbdGz5JZGr0Z5SqyO+wUqPUoN7HKCr86VcYa80MFo0atgQQdyLBa1rTNgKfHdA5zUq0q4PdA8hlxlUuEoAXmK7G1Dms2hC/wbyYGwlCuRWFsAcmFxJcQYNZT9KMH1LhBvd3rF0/7ODPGIa1z+H/l/f95cICBvnL9zzc/btfxxJOouOyK3sjl//Scz4wJxrjFDjQEI1PKGxMRDCAYwyRU9X+hRQ9FA0XjJgl9BVoEZ1pW1kNGT1WMAGJFEMfQPrKtnlH25ZWr3GkN0K5bZlzNtq2br54/YUgXfyZHr4jxO3buPZohcJCVakUecHA41uXWPQcHSd/RE2cv12kf1m+HpNHAKpiXeZnnsFf3Wy0Xs+oSQILTxUAsMxNCJkaAhjX4pnwjB+WHAQPwUXU6XpZmGT0+n9nGrvAsFWqsrKyLgNdzTgBeFHpxuAWFPSPBAUZSnA7WsGYSFKpZrfLeaYtntkkLJze1OX3q/PfVBgwatO9+ZFSIYLKQ3eUmvZlLvqJewI+/gwNw7pmSD54/Ha8AcilUvgGov1+vN5LWaGANz8i4BVgCyG61ksWgIcktqnIerILD+ze4UAHL3Hnkf6ELxrmzfKOGVGiNcm8d2bFuUUvBD/O31MYg8euXf75TukXrtp/Z3RTqdEMnntPBQL1imUPcKZZRBGBCK6HM/vQmCLhbKzLBcLxWZS7xGRVM4DtYP4tWoZfy5Lq7d+e2sinJwXp7Dp6Dg7Tez8x+f0YrB2rwhcoawKaabUaQivUCAJutAx4aWgJNbi2ntWFNUs20QN1AYIv5hAojBxTeQwUGvskQVg3Va0mvuMkVF0MBRq196bIFzepVLpcurf//3+AAv/bzr3+sFB4xeP+tO39lNwUEkuJxgU8IEARWHcDzh2Be7a8COGDPq4cqg/ugxij4bgA5VeqZxRseJ2b8Hc8/qqHqsKvv43eA+4x4vUi4Qh3WTChUKS4XVa/07v9r707Aq6jOx4+fe5OblZAQIGwiS4AAiqCAWkXEBYVWxPoTUXHB2p8VkLIlLkhdW3+t1qqtOyqroFgtsoiogIi4gIC1KLIjYAg72XPX+T/vmZnkJkAWmGjn7/c+jw8t3Jyc+zlzZ857lvd88PJTT1+XWsfU2NVd1ytXfdv399nj38zLO5QR1hu0PXrJaFkwomJlX1ckWB4OHOv6kAEI8bADAflM8owzT3cOqThPrCryl5lGEnzIsu5YSUgZZ82IyHJbf/kSWjPznrmPRr8/oveZGfGxXo84KH+pOq1L1sZXnn+xf4dWSbuc/s66qbyfRXAgDfLESzPv/evf/vFoUIfX5sFCdiYYuzNg7g8wM7ToTpqVb13GY2VjkJ3vXHIFyxet4v/bGwGtLow+OdYc2ZOlEtI5k4DDXn/olXWFcmOVUUtvWHmDAdWqVavcmdOn9evaOnVzbS6gUdmPzHlz7qIhdZk5MG8N5rH1kpHp3pyxd+Xcdl21KVNrU5djvccKDhYVBiIxVYMD6czIMgb50z4AS25s5hr4GDOHfDisTuvYZsucWc+cX90yhxOtn2QrcmTmoA6pTI9V19kLl98w7t5Jkw3DSJL1kv6ygEpMTtFT7ZLFQta/mx1Ac129PXKnc2YbHt3Rj37JdWq3c9XfF53dWv5NypNMDbLkRDqcesOzpBS1OsXmgvyICgfK9JKlkoLD6vKL+r73+BMPD2udmlqnsxVq007zl3w2aOIfHpy1Z//hBjGJyTqIl5u3ZN2Q75B0RBrojdgyWBkwOyV645nZ2ZWHrGjYnRJ5kJpnNJgi0fspyusTNh/EMoIqAYadplWuRfN6NHTwIA/tcFCWOZnLrOTf+vTuueyl5565vq75yGtjYbVP7E0jcxYu+nDZZTEJyTrtn6yxtZeCyCyAEQzop7zMRMrghfwZPZNoXzPRnQIp2w4gZBJFZjflId2pbctd019+qVeHWs4cSNKFOENOsD5+tiJpQ3n8hqyMSlYq0/qcOZhf4A/4DE+cdXicqV3dhmTpzMqyNBUoU2ee3nnjC88/49plRdJJsp9bFW1vPZesA7ns609S4+rvkuxj0hldZCNrrLnMJzmxUjIAc/+KmXlIj0rby/qsAQ0dWFizbjK7J9emvPSzRgbhZIYh1mcOcEhH1cpeExsO6DNcCg7sUynJica9OWMmjBo+9Mnafkeqvu/1+ctvHjPxvlfDhidGBjpk4ODYL7kfVOT8l+eOZCoMFBdLKtMTnjmwf9e7H60adM+kSTP27D+cKp/b8PisdNBmP0LuabIeXu7XElDpkWz7vqsLMWeK5e8qvq+VV1hFH4ao74F6E7K5tMuQfWg+j04RqwOHoCz3kg6zuR4pOTlZFRccUQ0SY1Rp/mHVr895H//ticeua9s0ec+J2h/v5xZ/snrgPXffP/P7vP3pcUkpqjQYUgkNG+mZEZk5kYNndR9M7wkL63u6vv9aAx/6OrKuJfnf9j458+Tlivtd1cyQ+lqNSsdtr+KwB3vkzAWZfZdnSYIvVi8fb9E4bc/T/3hyaL+eWSucdnBbeT+b4GCXYSQ+PP7+abPfnjskJa2x3twnnStZty2dI4kLzJES89Ap+bLJlF2pZByKelXdVGQfSiTnJRj27kZrw4/8WFnA3Icgac0kqtU3Y1kf5/erRslJyhsoUUawNPK3vz5+83WDLnqtthfQqOxH5/zznYVDjIT4Oi0rkhu3dJgC/hI18a5x9R0cvFcYiHhrO3OgMwnIoTDhiJ6Jqe/gYPionHnzlqwYIOu57Q6mvbaz6oO1arvo9aEqoP7vvgl33nb91c/Wtt2O9b65y1ZfMyZ7wpTS4pIGhp4+leAxTh0sKFRpktYzaE4TS6o//aCQUQ/JzqAfKnaQai5Ts1/R2R6iH9TR79CXq70+VTY9hw19XcYlJiifL0YVFhfowwFLivP17Navrxgw769P/umWuh6OVBcbmU0Zk33P7B/2HUxLaNhQ37zlOyR/2puLdefHWuYjQY295Ee3WVRwoDegWZ2Uo5YzWMv6ZAmSfP/9hoxg+swgwHpQS9YjCUoaJiWao08qItksVHFRsbqob9/Ff3/yiZtapHj21+Xz1fW9s+d/OHTsXfe+LnlLYhNkna5XB0yyvKCouFA1SIyvfH+yOoDRn7fy7zQHPuzgQB6esnnbG/KrLh3a7PzX7Nd6VztzYBgp/S8dvP2HPHPmQDY26zod55wDGYSRAEHOOZARaJ91zsE7M6Y4fs7B+yu/vOyOO7MXFAaCdQoO7Cxysn/EbcuKbhox9sPcQwWptT3nwJ4xsu9zssxQTgLX2cdKSvS1IbPj9oybzIBXvadEbyOQ0yx05618Tbw5+GS/9OxCyOwQS3Ah15ud9EEH+Cqs4iQwi4Qi40ePfCB75M1/rOt3JPr99szBiQYH/qIidfEFvVY8OfXpE1pWFF2XDz5dc/mosRNmF5cFG8kMr1+v/5fDwWR1gnknlkQS0iaSbUePflsBgaw+sPcgSJ9Dhwhy4njUSzYVx3vMEXI9w+z1mIMh2to0j4Q9VuprQxUWF6v4OHPJmL8sqFITfar0yAF14fm9l7z80os3N0325J6MfXU/+9HqJGUwTgAAIABJREFUb/uPGZ89fceuPc1lP4Z8fNn/Fv2c1fsIDHOJkH392c80uaKOToVrzWpZv1hnhdKHVkadm+CNLV+uJb6yPFxecoq8Vy+xDZsHwwYCqlnj9P1/l8CgV+eTOsCyvgx/7HJ/NsGBwOYWFDS5c/Q9/1q6fGWfuPhknfbKLxk79K5+88AnucDsKT2dvcHqkNlfy+gNRfZDRecUr7Ix0F4MbI/kSOfCXk8o65olqJCOelywWI37/agHc0bd+lBdGt8MDhYNMSSTTNQPVrfnQN72I88cLC4MRDySh91eLy0XnJ5G1Q8VOQTMzGMvozjRwYE1c7D5jVnPnN8iJcXxDph5zkHOvPlLPzlmcGAvSTlWkGA/YHW2oonjTzo4kHZZtuabAWPHjHt5/8EjrTwyIi7BanyiKi4p1mtM7awg9mZS/UCxslbodrXWkFa9hvS1GfWwrgh+rKVDcmKlpIWz0hVKJ6E0WKaCwTKVkpykSvIlQEmKXDXoisn3PZRzV03nfdTlGj7ee1d+vanv/fc/+PLqf3/TMd6XoGIl+4fOmmIGtvYGSr1cSpYTWTN98lm1RdTnrTpiLv+u5wf199Vax6uXaZmpG/VZJz5rCY5kUJHnjARQsiY1ENAjfUOuuWZG9t33jWmT5qk2o5gTFoZhJAy+deR7X3yx9kK/IQ/6ZN3ZkuC5YUqKKi0tNg8bs4KCqmua7fbWmad0WsCKB6c8RCW4kuAgXJqvOndou3P+nDnVBwf7jZT+1/162669+5rIKLO+iqoJDqR8OzjQo8v1eAjakpVfXXb76HELCwOhWNlbZsg1Y21kr+3MQY+unTa+6KINyTeNGPdh7qH88uCgLjMH0nRy35Vnk9wD5H4i33+fZHKR9MnyXLRShsm1Yz87JAuY7qtKJ9M66Td6ACJ6/4u0ve7oKfN0df0E0lmQPPrsFp9kA/SXhHJyxtw/9n+HPebxVOkB1/FLJDMHY++bpDckS+By1Inv5eVVP3Pw2JQnL2vnQK77T778ps/9D//x5S/WrMtKb9pUqUisKgmW6QPAfLFxOqW0nUHMXMJo7i+QiTbph/jD0YOT5b2Q8k8RvZdAL8CUGQTJSmYNcHi95mZzva8yOVnPWJRYQaDXCKhhV/1y1iP3TBrt5FKi4zXZZ99sP2fS/Q9O/s/6jd3k/IuQpBr1+pQkiNC3Eb2XyzwTQf5Grkt7L4HMFpSfDG+nw7Ws7P6PzBSZfRwpu2L1h1zbep+eNTsm16PMYElw4Av7dSajzpntd+WMH/+/V/Q/Z3EdL7n/b9/+swoOpBW/3Zbb5pG/PD5j/sL3L0hKTlFeyS5UfhqtOQWpp8LLp2DtdeDmNVA1ONBRp70WWW581sFE9s3TTmkqf8pop9xE9UUa69UbgCbcOeLB7DtufqSuWRkkOHhz7rtDVA2pTO3Dm+xsTPbMwY+xrOiOUaMXF/jDlYIDPdJoLSuSEd9QRKJ9OfbFXD9dZeagXoODm0fmzFuwdMWAqhuSdQfSeoBV9833Gn5HZg7s3/HtzkOn52SPe/7TL9fo4FUebjKbZY44KeWLTzQ7Yn5zf4ye6Yo6xffYdT062YdeQ2xd87KRNxAoK1+uZKiwitdLcUKqtKRYZTRKK77t1lvuzxl5699+zLvg1l37Ov7hkUefW7J0+aVeWZIg6YHlkK+IzNCZaRPLRyutfQHynTU/W3SAUHndc9XPoDc1W9P5kmdcypSzIvTshIxqxvmUkg5MMCgZLMpG3zHyj2PvGPbnk+3E1MVy1YYd5914y28W55cGGpSUlqmGDRvpfOgy2ijtJ0FO9ODEsYJByegU/ZL3SIJEcy+KV6lAicpq02rnv+a82rvGbEXXDjaDA6+ZT7264MBO1yzLiqRt4jxhOSHZkJmDXt07fVEXh5reKyO15sxBKFaWK+qU0rUIDqLPOTjztCyXBQd1mzmwDe3nW6P01CONUlMCm7dtzTCXn5j7dCRIkA5los/MIx+dJldS39qbk0MeOYjP7JLp+2bU0iUJSCVel5lzO7uMJPow00iWqkBZocpISCyaeE92zm03Dn6hpvatzb9by4qmyMIUuX/WtKyo4nDD2IplRX3PXvHYq39zJDiQOm/ae6T9Qw888uLixYsvjUtooIJyImNSig5cJL20PRBVKVDwmsslQ1HHVNon0tiZ27S43pNg7m8MWmmK7QBB/lm+o5KWPbVhA9M8GFCl/lKVkd44cMsNQx99aOxv/+REUonatI28Z8Oew23/9PAf/77o/SWDZOmoxyvPt7AOhDw+yQgpS7DNJVUySKMHbOXsGpmg1MuI7APlKmarzCQN5lVoB4TmkjkzEE3yxenZ4WAooDNUynulP2ambi1QPU7vsvbRhx6+tWe3E0/dWtvP76b3/eyCA2mcbXuLmv3fo4++tOjDj640p7cqggLdQZWTGq11zNEHieiLr1zM3HegU7XJyKJ9c4zKTCDvT47z6Uwpco6BdMxlYUhB/mE57a9g9OiR2bdfP3jyiVwwo3IenTNn7qIhnhpmDqqe7PpjLiuS4CC/LOgJe6UDY2ZaqePMwZY5s589r75mDuzg4FjLiuwb9vHaxsllRdG/4/BhI+35GZPHzX79zTF5+w+m+mRET/LbR20Y1vsOlLlnRkY9Kr+sh3QtLip9kwyUqWQ57ViWcsm+j3BYFRUeVumpKeqsHt0/nnjPXRN7n95hZS2Kc/wt+/YZDWb/67WRM15/PXvDpi1NGzdprlPiSfpEc7lRoFIub6mAuffAfLBW6gyX/58qwZJeliTp/0LmaJJhpoDVS4yUR5UU5atw0K8uOO/cz8aMHnlfv3N7/CRTzk+8MGP835976bFAKBIjM4+pSSmq2B/QGT4k4cFRew2qyQBpBgbmS1LYywiuDFR0aN1i51tvvFxjcHDp0Ku27crb30RGJc37X+32HPxIwcHCAn8gprZ7DmTUUt+ZpBfrL5U9B646BE2WFf1wsPqZg+iR/PKZJOngG2GV2fbUnRPGjJn4wB8fefzw4UMt5Hsl7SQTBhIgSEfW/nn5bphL98zsZpLtxn5O6nmFKgNjcn3JLJ/e0yRL8hLilN9fpgoPHVZNmjRRZ3U7bfWk7HHZZ5/V6WOnbh6yrGjcvX+YIiFObfYc2M/HKnsOPnl86lP9nZg5sD+XpGye8/LMkdOmz8res29vRn5RmWqY2kgZMjsQNE8xtmc5ZNDHDNQq39srBiYrlhfFWocj6v1S1p4PndLZ2uMjA286XXsopPyBUllnpM6/4BdrRv9uxN2Xndd9iVPudSnHMIzEp16anv3yq9PH5x4pTJPBH+lzyWeQ60v2acpLZjgkmCy/fqP2ctq/T9+7rVlR+buqM0V6sCcU0jNjMgtcWmwuK5K9dv6yotD/XDnwjYceunt8fexrrIvJf+N7f5bBgTRErmEkvfTXFyZOn/NmdmFJWbykTExISNSdfBkxkXun3Byrrt01gwOzgyFLDOyNx/q0VBmJs76UdmPLpuPUBkmquChfJeiRlKA67+xeqybdfe+EXj0yPznRi2Jk9p/ffPOdhTWec1B15kDPdFgbkifljL973G+G1OcJye8WBY2YiFdy0ceWBwfH25BszxxUbEg+dcvrrz1TX8FB3C0js+ctWLbypFKZ/uXu8XcOv/Hk9hwc6xpYtX5r78mvTL17waL3Bkc83lgxlDXeOpuQ3ETl7CsJZI8aGD/ehtTKJ+nav1MyP8gSAl1OMKhzjHfJ6rDjtltufGzA0KumOZmR6ESv9bUbd3efNmP6XW/PnX9dQVGZV/J6y7S8zPzJUgg7o5M9m3CsAKGCqXJwUD5LKJmb5FAnnWklpMJlZXqjWod2bXbeeceIxwf2u3xqRoan6EQ/w8n+nGEY3gcee/7RqTNn3eUPhiWToYpNjFcRo2ILun1fsh+m1kpl/aujZ1l0509WbxiSqc2nJBd6JFissk5tuWvujBm9qk1lqvcc/HrbrrwDTWIka1INwYG5GMXckKwf/Cqk4lVQNiTXy8zBiNE5sqwoRhYw2bNN8vmPt6xI7tf63yIhfWaF7Dl46YXnLmzfrMHek22z+v55yVZ004hx1Z6QXN55L0/Jay0nlHtIJKTat2iaN3nKi73KCorbDb/9d+8cOnAkXc7PiMgeF9ncLNm7qmzqLV/CZo3k2p/TflbKqK25eTmiz/+xDwuU+0vYX6xaNW9WMHTo0KdvHP6bp1o7mBlH6jFrwfJbxk+cJDMHHr3MJGoZXeX2qLysyBv26g617Dm45IKzT+icg9q095cbtnabNm1mzkfLPh5yIL8gIeKLVwFJDKEDAjnF3K87uHrpS/ngR/RN3jowzAr+5Twac9Oy10xzah2IJmeYyEF2kk628NAhlZQQqzLbtcm9fujVTw+7atiL6eme/NrUtz7fs/qbHWc+9dwLD65eu/aK3TtzvQ0aperzDwqLS/VnkhOmjzWDL/c1OwGDRAbmkmRzgNfsQ1TUuqy0VKUkmQktYmQ5t/KoskCp6tX9zG9uuem6P93w60tm1+dndHPZP9vgwG60FV9v6fna62/e99Y7868sKi6OaZSWrv9JNmeaB5mZUfqxTmKRSF6PMMslF7URxh5FkQwYMion5yVICshWzRrnjbz1lqcHDR/yj+YeT/HJXDi3Zz/61htz3706Nt7sdNuv4+05sJcVycO8fENyzth7cn57fb0c8vH+yq8u+92o0YsKA2GvPXNgTkabew5ktaWo6oe4nB1xrGxFndpsfXPWs+fVR1QvB9YMH5W94J0PV/Svbuagpj0Hj0/KvnP4SW5IPt51IGd0zF3+5YB35i0cs3Dx+/2KSkrjG6almw8Ovxwpbxx1jkblNeVS8tHLauyHu3SKpANsXsNh1Smz7ZYh1wye+etfXfl8dRlrTua6PZmfXbLmm4unTp897qNPPu9fVFIWL1kt5IAcmYa2N+/ZmcYqAoSK8wnkd9ujb/aprTJqJSObXkmDGhurigqO6PX8Z5955vZ+F/aZNfyGoc/WRwaPE3V48fV3RzzzzLN/ytu7v5He7OuL1+trZf2/fdyznefc/h1m0FRxl9A502XuIOJVibHxyl9WohK9Sp3eqV3erMkvnpmR0SDvePUzU5letX3Xnn2NPR7Jay+jyDF6Q3L5qaYyQyrnQMhSQa9PL9MMWBsvJThI9ISMeTOn1ktw8LtRExYVBoKSdNrcp1LDsqLy4EAyXQXKVI/TsjZNful515yQPOx3YyoFB8facxAdLEfPHHgiftW+RcbeWVOnnd/x1LStkvL7ocee+PPyFSsvS0hMViWlfr00S4z09ypqNk7fQ6wMRXaZ9sCYBJ+S8EOefwl6hLZERUqL5flX8MvLL10wfNjQP5/RJfM/J/odqO7nJDgYd+99U8KGxwwOZFj5mC8zOLC/F3ZwINmKLu179sqnpz51WX0OjHy6dvOFT/7jqQmff7Phkn35BUlSxaTEJL2BWO7Zci+SPoju8B4jwLHvY/IO2SclS5LirWQKSvZKeQx9flJx/mF1WpdOu3912cUzrrnm6mezWjf5oT7cT7RMOSxt6eoN58+dt+COpUuXDdy1OzdNNmzHJSfrrEUyg6VnB+zU8FZvLEZSOys5kM+cwbL7YPZ1qfcoGIZkwFIF+YeUT864ifGqVi1abr126DXTr73h+mdPaeg5eKL1/jn83M8+ONAdBsPwLlj51YAZM1+7e8UnK88rKy2LTYhPUgFZ6ybrnXVKrKodLTtcMDtf9rHdcry5fWCJjnBVRHU8tc3egf0vmn7D/wx6pXP7VhuduLBu//0f5r3xzvxBMXLCoU47oxfsyFzGUcUbcmaDToVpTgP7lFdHz3+4a/wDd40c/rAT9alaxgcfr7n89jtHvZdf5FdhOR5eNodF5Ve3u6z6i28lNZXZF69sYAvLoSRB1Tmr7e65M6b1alYPo3iGYcQPHzH+vbcXftDPm5Bo3nIkI5As1bHWrlfe2Hq0Ukw4oJ585L6xtwy79un6MLTLlOvzk6+29H3zrX/9dumKjy/ft3dfuuSq0wdbWak9K06YNH/KPjMhul7lI+xWTnPDCKmmDdPKsjpmrh905S+nXNH/4nmnNE6q88FD9fnZj1X2sq+29vnnW2/duvLz1QN278nLCIWCsWZwEKcfqvY0c3RgZwYDUaeEWg+ZiF/ygsuSiJBMYZedcVrXbwf98ldT+158wbyuLRt9/2N/ttr8vjUbvu/5xBNP/nnVuq8vOFBYFC9LaMpTr5bHghF9PVfaKCod+Yh838zsJvp6CIX1IVanZDT1n31Wj3dfffaxmz2e48+QSHDQ/+qBeTt/2JukZITYOiMj6JXp/RgrPgkrn6Ryls6X3hwoGw1lPbCh4j0elRATUfNnv3b+2Wd2+bQ2n7e27/lw2aoBt4/+/aL80oDunMoIeMWr8p4L++89euOiobNxydkgZ5ze9ftpU54579SmTestc0ttP09N71u3fmvva4f/dsWewwXxMsov17s9cmxnBDrezIGs5faEgyqzVbMjs15/7ZwupzTdpJ9jhpEw5e0PbnzmhRfu271nb9tASNJiShAYa57IbQUIdsAh5xPINVbx957yXPwycp0Y7wu3at7kwMCLL5l7zdVXvnxW51O/rOlzncy/z3x78W8m3DPxFVnLb2dSOrq8imeknFmkP3fYo5I8PuUvLVYX9+vzxQsznr00o5rvwcnUMeq+7lm6fusv5r274KaPli4fnLtnb9PSskCsPIMkEYN0jGV2zk7FfPTvlOlD01ufmSBLi/wBnQGpWeP00hbNMr679upBMy/td/HcTm3StjlR5/os4+uted2WLlnyy/c/XDbs242bOhaVlCXINScpWvUSRn3+jLmMSFYXyP3E3HxsJTOxMkFquEhQeULmEriGiQn+bqd32Th40BXPXX7hpe+2+pmfX1DbNiQ4iH58GEbMkpX/7rty1acDP//s84Fr1q473Stpx4Iy0laRSlJvrrLSvUnKRz39Z3V+JQWZrBns2D5zZ+cuHb/se975H1zQp8/cdtWMxtW2saLf9+qM2dnLln9ySVxiciCin2+yA8c8kUFe9j4xT4xXBUN+udkYEhDExcd7Qv6A1xcbEztowK8mDx544dsn8vtr+pm169d3nzb1tfuLy4KSOy0c0U8PK5CyYy1Zkxrj0wd4yYorqauKRDzhSMSbFO+La5SSsmPCA3fnpHucnwI1DCP2xVemTVy1bv15EeUJyEF2Fa+KYdboL4gV23hkUExmL2Vtx63DhjzT59ze79bk4dS/7y4oaPyfVV/1X7nyk77rN27qteG7Ld2OlJQkyEyCjBqKoT3NbM58mZ1fnRkqHJbTMMNtTz11Z/ce3b/q3Dbzi8sHXvJu51OarfdEDy07Vdl6LueQYaQuWbjsko2bNl/0+brVPTdu3NKtoKCggTwbdIAXMQ80k1f5jEJYHMzTNRN8MZF2p7Ta1a1bp3Vn9ThzVc+e3Rf16Nr167omB6jnj3nc4tf8e+MF8xZ9eMWmHTvO2bBhQ8e8vLyW0lGwO4qSOjn6AKVAyK+MiEc1SEmKNG/e7GDTRum7mjVpvKdn9zPWXviL89/p1i1zbU3XgawXvnfSw88fPHykqcfrDYVlOt8jw8hV88mbM67BQEj54uTwPZ8nFIl4vJFwTJwvJjxm9OgcpwZKbKD1G7d1f2XylPuPFBUkemPiQrE+KxOMDmGO/ZKlNXozZCTi8ZcVx3XK6rxlxG03T2rUqNGRn6pda/t79+7dm/nwX/7xcMAw0iLhcDAsmcns6aPo51rFKYLW35o9fI8Kx7Vokrr3tyNuv6ddRkal2aJ9RUbzOf9869rlHy+/ctPWLed+//3uZOmUJSYkqaAhgaWcOhujZx5lVtoOQmQUu1HD1EDnzp03dM3qtPqcc89Z2qdXnwVNm3oKa/u5TuZ9Kz5b3e8NvVTYr+ITEsORiD7ytLz9dUfb47UyjhgqFA6puLhYFQ4YKiYuxhMuKY0/o8cZaweP+M0jTu45qOkzSdD9+frPLvn881UXrV+/vvfmHTtO37f3YIos+5OMivK9NQ+xlFPj7ex+ssRBsiB6VXJ8QqRpk8a7srKyvj67d+8vfnHuuYt6dmmzrqbvc031+in+XTIJfrruu16fff7FgDVr1l2wccumM3btym0c0suvZA9eREVCYXMgSCePsZOZ6DR0Ki2lYXGrVi32tGreYvO5vXuv7N6j2we/6NVV7m32Vquf4mO57ncSHBynyfLyCjO+2/39aV//++uzduzYftaWrdu75BcUJsbGxBqxsTE61WQoFPIoOS05HPKkJiYHM9tnbup6epdVWVmdV2RlZu6s71FYmZIrn9Q4/qVX9cEobW7/F67Pm4dVP6nZsR7OR/2d1EWW0lj10yFPfWeFqcawpvrpev6UN5xDhw6lHigoa7l99w9tN363qeeWbduycnP3tD9yJL9ROBwyfD6fJzYmNti0WcbOzMwOmzp2yvyqXes237Zq2TKvdZOk/6rp5ZO9c+4zjAaHcg+02r1zR+vvNm7rvWnz5qw9uXsyS0pK0wOBgEf2EcTFx4cyMpru7NCxw+aunbt81fqUU77p0DItr3Hjxv/1syXV+Ww3jASVd6R5SVFJo8LSUm/+4YLkAwf2dj506ECzmLi4cHycb39iQmJpQnySkZySkJ+a2nBPemr64aYNMw6lpan8ut4DrO+MOVVZ8d9xqxj1vTb7pOb3pnLS9pO9AKyfP8Y9p/x7XNPntO49UrnjBhMOVdOxYmRW0TKttPI1+jMc73NZf++tri1k+eXX23Pbbfr2uzO2bNtxzvc7v2+fl5fXuqioOEUfxhcTqxokJpU0b9Fia2bHDt91atN2Xes2zTelt2qaWx8HJdYGTgZ+7Msh6s/jtqltFfXskefOT3YN7DeMlIPbc1vu3rfv1A3fbjhzz569Xb7fuStz//79MrNgSLKE5IZpobSUpF1dsjptbtGsyb87dMr8T7s2Lfe2TE/f/VPWvTbtU5f3yAz/t7v3t965eVun7bt2nrZ7d277gwcPNA8FI964OF8kOaXB4bSkBnuaNW++v1mL5rlN0tJ3NGiYUtCycVph48aJefV1n6nLZ3DrewkO3Npy1BsBBBBAAAEEEEAAAYcFCA4cBqU4BBBAAAEEEEAAAQTcKkBw4NaWo94IIIAAAggggAACCDgsQHDgMCjFIYAAAggggAACCCDgVgGCA7e2HPVGAAEEEEAAAQQQQMBhAYIDh0EpDgEEEEAAAQQQQAABtwoQHLi15ag3AggggAACCCCAAAIOCxAcOAxKcQgggAACCCCAAAIIuFWA4MCtLUe9EUAAAQQQQAABBBBwWIDgwGFQikMAAQQQQAABBBBAwK0CBAdubTnqjQACCCCAAAIIIICAwwIEBw6DUhwCCCCAAAIIIIAAAm4VIDhwa8tRbwQQQAABBBBAAAEEHBYgOHAYlOIQQAABBBBAAAEEEHCrAMGBW1uOeiOAAAIIIIAAAggg4LAAwYHDoBSHAAIIIIAAAggggIBbBQgO3Npy1BsBBBBAAAEEEEAAAYcFCA4cBqU4BBBAAAEEEEAAAQTcKkBw4NaWo94IIIAAAggggAACCDgsQHDgMCjFIYAAAggggAACCCDgVgGCA7e2HPVGAAEEEEAAAQQQQMBhAYIDh0EpDgEEEEAAAQQQQAABtwoQHLi15ag3AggggAACCCCAAAIOCxAcOAxKcQgggAACCCCAAAIIuFWA4MCtLUe9EUAAAQQQQAABBBBwWIDgwGFQikMAAQQQQAABBBBAwK0CBAdubTnqjQACCCCAAAIIIICAwwIEBw6DUhwCCCCAAAIIIIAAAm4VIDhwa8tRbwQQQAABBBBAAAEEHBYgOHAYlOIQQAABBBBAAAEEEHCrAMGBW1uOeiOAAAIIIIAAAggg4LAAwYHDoBSHAAIIIIAAAggggIBbBQgO3Npy1BsBBBBAAAEEEEAAAYcFCA4cBqU4BBBAAAEEEEAAAQTcKkBw4NaWo94IIIAAAggggAACCDgsQHDgMCjFIYAAAggggAACCCDgVgGCA7e2HPVGAAEEEEAAAQQQQMBhAYIDh0EpDgEEEEAAAQQQQAABtwoQHLi15ag3AggggAACCCCAAAIOCxAcOAxKcQgggAACCCCAAAIIuFWA4MCtLUe9EUAAAQQQQAABBBBwWIDgwGFQikMAAQQQQAABBBBAwK0CBAdubTnqjQACCCCAAAIIIICAwwIEBw6DUhwCCCCAAAIIIIAAAm4VIDhwa8tRbwQQQAABBBBAAAEEHBYgOHAYlOIQQAABBBBAAAEEEHCrAMGBW1uOeiOAAAIIIIAAAggg4LAAwYHDoBSHAAIIIIAAAggggIBbBQgO3Npy1BsBBBBAAAEEEEAAAYcFCA4cBqU4BBBAAAEEEEAAAQTcKkBw4NaWo94IIIAAAggggAACCDgsQHDgMCjFIYAAAggggAACCCDgVgGCA7e2HPVGAAEEEEAAAQQQQMBhAYIDh0EpDgEEEEAAAQQQQAABtwoQHLi15ag3AggggAACCCCAAAIOCxAcOAxKcQgggAACCCCAAAIIuFWA4MCtLUe9EUAAAQQQQAABBBBwWIDgwGFQikMAAQQQQAABBBBAwK0CBAdubTnqjQACCCCAAAIIIICAwwIEBw6DUhwCCCCAAAIIIIAAAm4VIDhwa8tRbwQQQAABBBBAAAEEHBYgOHAYlOIQQAABBBBAAAEEEHCrAMGBW1uOeiOAAAIIIIAAAggg4LAAwYHDoBSHAAIIIIAAAggggIBbBQgO3Npy1BsBBBBAAAEEEEAAAYcFCA4cBqU4BBBAAAEEEEAAAQTcKkBw4NaWo94IIIAAAggggAACCDgsQHDgMCjFIYAAAggggAACCCDgVgGCA7e2HPVGAAEEEEAAAQQQQMBhAYIDh0EpDgEEEEAAAQQQQAABtwoQHLi15ajW5pdjAAAEdklEQVQ3AggggAACCCCAAAIOCxAcOAxKcQgggAACCCCAAAIIuFWA4MCtLUe9EUAAAQQQQAABBBBwWIDgwGFQikMAAQQQQAABBBBAwK0CBAdubTnqjQACCCCAAAIIIICAwwIEBw6DUhwCCCCAAAIIIIAAAm4VIDhwa8tRbwQQQAABBBBAAAEEHBYgOHAYlOIQQAABBBBAAAEEEHCrAMGBW1uOeiOAAAIIIIAAAggg4LAAwYHDoBSHAAIIIIAAAggggIBbBQgO3Npy1BsBBBBAAAEEEEAAAYcFCA4cBqU4BBBAAAEEEEAAAQTcKkBw4NaWo94IIIAAAggggAACCDgsQHDgMCjFIYAAAggggAACCCDgVgGCA7e2HPVGAAEEEEAAAQQQQMBhAYIDh0EpDgEEEEAAAQQQQAABtwoQHLi15ag3AggggAACCCCAAAIOCxAcOAxKcQgggAACCCCAAAIIuFWA4MCtLUe9EUAAAQQQQAABBBBwWIDgwGFQikMAAQQQQAABBBBAwK0CBAdubTnqjQACCCCAAAIIIICAwwIEBw6DUhwCCCCAAAIIIIAAAm4VIDhwa8tRbwQQQAABBBBAAAEEHBYgOHAYlOIQQAABBBBAAAEEEHCrAMGBW1uOeiOAAAIIIIAAAggg4LAAwYHDoBSHAAIIIIAAAggggIBbBQgO3Npy1BsBBBBAAAEEEEAAAYcFCA4cBqU4BBBAAAEEEEAAAQTcKkBw4NaWo94IIIAAAggggAACCDgsQHDgMCjFIYAAAggggAACCCDgVgGCA7e2HPVGAAEEEEAAAQQQQMBhAYIDh0EpDgEEEEAAAQQQQAABtwoQHLi15ag3AggggAACCCCAAAIOCxAcOAxKcQgggAACCCCAAAIIuFWA4MCtLUe9EUAAAQQQQAABBBBwWIDgwGFQikMAAQQQQAABBBBAwK0CBAdubTnqjQACCCCAAAIIIICAwwIEBw6DUhwCCCCAAAIIIIAAAm4VIDhwa8tRbwQQQAABBBBAAAEEHBYgOHAYlOIQQAABBBBAAAEEEHCrAMGBW1uOeiOAAAIIIIAAAggg4LAAwYHDoBSHAAIIIIAAAggggIBbBQgO3Npy1BsBBBBAAAEEEEAAAYcFCA4cBqU4BBBAAAEEEEAAAQTcKkBw4NaWo94IIIAAAggggAACCDgsQHDgMCjFIYAAAggggAACCCDgVgGCA7e2HPVGAAEEEEAAAQQQQMBhAYIDh0EpDgEEEEAAAQQQQAABtwoQHLi15ag3AggggAACCCCAAAIOCxAcOAxKcQgggAACCCCAAAIIuFWA4MCtLUe9EUAAAQQQQAABBBBwWIDgwGFQikMAAQQQQAABBBBAwK0CBAdubTnqjQACCCCAAAIIIICAwwIEBw6DUhwCCCCAAAIIIIAAAm4VIDhwa8tRbwQQQAABBBBAAAEEHBYgOHAYlOIQQAABBBBAAAEEEHCrAMGBW1uOeiOAAAIIIIAAAggg4LAAwYHDoBSHAAIIIIAAAggggIBbBf4fvhqbaVeSFWgAAAAASUVORK5CYII=;" vertex="1" parent="1">
          <mxGeometry x="542" y="-39.13" width="525" height="218.13" as="geometry" />
        </mxCell>
        <mxCell id="ySsQDbIxhDyxc6XboBsa-31" style="edgeStyle=orthogonalEdgeStyle;rounded=0;orthogonalLoop=1;jettySize=auto;html=1;entryX=0;entryY=0.5;entryDx=0;entryDy=0;" edge="1" parent="1" source="ySsQDbIxhDyxc6XboBsa-2" target="ySsQDbIxhDyxc6XboBsa-20">
          <mxGeometry relative="1" as="geometry">
            <Array as="points">
              <mxPoint x="650" y="320" />
              <mxPoint x="650" y="902" />
            </Array>
          </mxGeometry>
        </mxCell>
        <mxCell id="ySsQDbIxhDyxc6XboBsa-2" value="" style="rounded=1;whiteSpace=wrap;html=1;fillColor=#102e42;" vertex="1" parent="1">
          <mxGeometry x="702" y="210" width="190" height="220" as="geometry" />
        </mxCell>
        <mxCell id="ySsQDbIxhDyxc6XboBsa-12" value="" style="group" vertex="1" connectable="0" parent="1">
          <mxGeometry x="744" y="304" width="106" height="86" as="geometry" />
        </mxCell>
        <mxCell id="ySsQDbIxhDyxc6XboBsa-3" value="V" style="text;html=1;strokeColor=none;fillColor=none;align=center;verticalAlign=middle;whiteSpace=wrap;rounded=0;fontStyle=1;fontSize=100;fontColor=#FFFFFF;" vertex="1" parent="ySsQDbIxhDyxc6XboBsa-12">
          <mxGeometry width="60" height="30" as="geometry" />
        </mxCell>
        <mxCell id="ySsQDbIxhDyxc6XboBsa-11" value="iew" style="text;html=1;strokeColor=none;fillColor=none;align=center;verticalAlign=middle;whiteSpace=wrap;rounded=0;fontStyle=1;fontSize=30;fontColor=#FFFFFF;" vertex="1" parent="ySsQDbIxhDyxc6XboBsa-12">
          <mxGeometry x="46" y="24" width="60" height="30" as="geometry" />
        </mxCell>
        <mxCell id="Ur8YxOgUMrOMryiy093F-7" value="&lt;font color=&quot;#ffffff&quot;&gt;(class)&lt;/font&gt;" style="text;html=1;strokeColor=none;fillColor=none;align=center;verticalAlign=middle;whiteSpace=wrap;rounded=0;" vertex="1" parent="ySsQDbIxhDyxc6XboBsa-12">
          <mxGeometry x="23" y="56" width="60" height="30" as="geometry" />
        </mxCell>
        <mxCell id="ySsQDbIxhDyxc6XboBsa-28" style="edgeStyle=orthogonalEdgeStyle;rounded=0;orthogonalLoop=1;jettySize=auto;html=1;entryX=0.5;entryY=1;entryDx=0;entryDy=0;" edge="1" parent="1" source="ySsQDbIxhDyxc6XboBsa-13" target="ySsQDbIxhDyxc6XboBsa-2">
          <mxGeometry relative="1" as="geometry" />
        </mxCell>
        <mxCell id="ySsQDbIxhDyxc6XboBsa-13" value="" style="rounded=1;whiteSpace=wrap;html=1;fillColor=#102e42;" vertex="1" parent="1">
          <mxGeometry x="702" y="505" width="190" height="220" as="geometry" />
        </mxCell>
        <mxCell id="ySsQDbIxhDyxc6XboBsa-14" value="" style="group" vertex="1" connectable="0" parent="1">
          <mxGeometry x="744" y="593" width="106" height="54" as="geometry" />
        </mxCell>
        <mxCell id="ySsQDbIxhDyxc6XboBsa-15" value="S" style="text;html=1;strokeColor=none;fillColor=none;align=center;verticalAlign=middle;whiteSpace=wrap;rounded=0;fontStyle=1;fontSize=100;fontColor=#FFFFFF;" vertex="1" parent="ySsQDbIxhDyxc6XboBsa-14">
          <mxGeometry width="60" height="30" as="geometry" />
        </mxCell>
        <mxCell id="ySsQDbIxhDyxc6XboBsa-16" value="tate" style="text;html=1;strokeColor=none;fillColor=none;align=center;verticalAlign=middle;whiteSpace=wrap;rounded=0;fontStyle=1;fontSize=30;fontColor=#FFFFFF;" vertex="1" parent="ySsQDbIxhDyxc6XboBsa-14">
          <mxGeometry x="63" y="24" width="60" height="30" as="geometry" />
        </mxCell>
        <mxCell id="ySsQDbIxhDyxc6XboBsa-27" style="edgeStyle=orthogonalEdgeStyle;rounded=0;orthogonalLoop=1;jettySize=auto;html=1;entryX=1;entryY=0.5;entryDx=0;entryDy=0;" edge="1" parent="1" source="ySsQDbIxhDyxc6XboBsa-20" target="ySsQDbIxhDyxc6XboBsa-13">
          <mxGeometry relative="1" as="geometry">
            <mxPoint x="970" y="600" as="targetPoint" />
            <Array as="points">
              <mxPoint x="940" y="910" />
              <mxPoint x="940" y="614" />
              <mxPoint x="892" y="614" />
            </Array>
          </mxGeometry>
        </mxCell>
        <mxCell id="ySsQDbIxhDyxc6XboBsa-20" value="" style="rounded=1;whiteSpace=wrap;html=1;fillColor=#102e42;" vertex="1" parent="1">
          <mxGeometry x="702" y="792" width="190" height="220" as="geometry" />
        </mxCell>
        <mxCell id="ySsQDbIxhDyxc6XboBsa-21" value="" style="group" vertex="1" connectable="0" parent="1">
          <mxGeometry x="744" y="880" width="106" height="54" as="geometry" />
        </mxCell>
        <mxCell id="ySsQDbIxhDyxc6XboBsa-24" value="" style="edgeStyle=orthogonalEdgeStyle;rounded=0;orthogonalLoop=1;jettySize=auto;html=1;" edge="1" parent="ySsQDbIxhDyxc6XboBsa-21" source="ySsQDbIxhDyxc6XboBsa-22" target="ySsQDbIxhDyxc6XboBsa-23">
          <mxGeometry relative="1" as="geometry" />
        </mxCell>
        <mxCell id="ySsQDbIxhDyxc6XboBsa-22" value="C" style="text;html=1;strokeColor=none;fillColor=none;align=center;verticalAlign=middle;whiteSpace=wrap;rounded=0;fontStyle=1;fontSize=100;fontColor=#FFFFFF;" vertex="1" parent="ySsQDbIxhDyxc6XboBsa-21">
          <mxGeometry width="60" height="30" as="geometry" />
        </mxCell>
        <mxCell id="ySsQDbIxhDyxc6XboBsa-23" value="ubit" style="text;html=1;strokeColor=none;fillColor=none;align=center;verticalAlign=middle;whiteSpace=wrap;rounded=0;fontStyle=1;fontSize=30;fontColor=#FFFFFF;" vertex="1" parent="ySsQDbIxhDyxc6XboBsa-21">
          <mxGeometry x="63" y="24" width="60" height="30" as="geometry" />
        </mxCell>
        <mxCell id="ySsQDbIxhDyxc6XboBsa-30" value="1. Call a function from Cubit" style="text;html=1;strokeColor=none;fillColor=none;align=right;verticalAlign=middle;whiteSpace=wrap;rounded=0;fontStyle=1;fontSize=20;" vertex="1" parent="1">
          <mxGeometry x="500" y="580" width="130" height="30" as="geometry" />
        </mxCell>
        <mxCell id="ySsQDbIxhDyxc6XboBsa-32" value="2. Change current state" style="text;html=1;strokeColor=none;fillColor=none;align=left;verticalAlign=middle;whiteSpace=wrap;rounded=0;fontStyle=1;fontSize=20;" vertex="1" parent="1">
          <mxGeometry x="960" y="740" width="130" height="30" as="geometry" />
        </mxCell>
        <mxCell id="ySsQDbIxhDyxc6XboBsa-34" value="3. Update view on state changed" style="text;html=1;strokeColor=none;fillColor=none;align=left;verticalAlign=middle;whiteSpace=wrap;rounded=0;fontStyle=1;fontSize=20;" vertex="1" parent="1">
          <mxGeometry x="820" y="453" width="200" height="30" as="geometry" />
        </mxCell>
        <mxCell id="Ur8YxOgUMrOMryiy093F-2" value="&lt;font size=&quot;1&quot; style=&quot;&quot;&gt;&lt;b style=&quot;font-size: 40px;&quot;&gt;This is a Screen&lt;/b&gt;&lt;/font&gt;" style="text;html=1;strokeColor=none;fillColor=none;align=center;verticalAlign=middle;whiteSpace=wrap;rounded=0;" vertex="1" parent="1">
          <mxGeometry x="527" y="1090" width="540" height="30" as="geometry" />
        </mxCell>
        <mxCell id="Ur8YxOgUMrOMryiy093F-12" value="&lt;font color=&quot;#ffffff&quot;&gt;(class)&lt;/font&gt;" style="text;html=1;strokeColor=none;fillColor=none;align=center;verticalAlign=middle;whiteSpace=wrap;rounded=0;" vertex="1" parent="1">
          <mxGeometry x="774.5" y="940" width="60" height="30" as="geometry" />
        </mxCell>
        <mxCell id="Ur8YxOgUMrOMryiy093F-13" value="&lt;font color=&quot;#ffffff&quot;&gt;(class)&lt;/font&gt;" style="text;html=1;strokeColor=none;fillColor=none;align=center;verticalAlign=middle;whiteSpace=wrap;rounded=0;" vertex="1" parent="1">
          <mxGeometry x="767" y="660" width="60" height="30" as="geometry" />
        </mxCell>
        <mxCell id="Ur8YxOgUMrOMryiy093F-14" style="edgeStyle=orthogonalEdgeStyle;rounded=0;orthogonalLoop=1;jettySize=auto;html=1;exitX=0.5;exitY=1;exitDx=0;exitDy=0;" edge="1" parent="1">
          <mxGeometry relative="1" as="geometry">
            <mxPoint x="804.5" y="687" as="sourcePoint" />
            <mxPoint x="804.5" y="687" as="targetPoint" />
          </mxGeometry>
        </mxCell>
      </root>
    </mxGraphModel>
  </diagram>
  <diagram id="B3OjqhsNcHC23JPTCmJw" name="cubit">
    <mxGraphModel dx="1120" dy="769" grid="1" gridSize="10" guides="1" tooltips="1" connect="1" arrows="1" fold="1" page="1" pageScale="1" pageWidth="827" pageHeight="1169" math="0" shadow="0">
      <root>
        <mxCell id="0" />
        <mxCell id="1" parent="0" />
        <mxCell id="rH8kfFjrYBLHn2jZ-WeP-7" style="edgeStyle=orthogonalEdgeStyle;rounded=0;orthogonalLoop=1;jettySize=auto;html=1;entryX=0;entryY=0.5;entryDx=0;entryDy=0;" edge="1" parent="1" source="rH8kfFjrYBLHn2jZ-WeP-1" target="rH8kfFjrYBLHn2jZ-WeP-6">
          <mxGeometry relative="1" as="geometry">
            <Array as="points">
              <mxPoint x="630" y="300" />
              <mxPoint x="630" y="471" />
              <mxPoint x="650" y="471" />
            </Array>
          </mxGeometry>
        </mxCell>
        <mxCell id="xCPv4gILU43g7DDdmW0_-4" style="edgeStyle=orthogonalEdgeStyle;rounded=0;orthogonalLoop=1;jettySize=auto;html=1;entryX=0.5;entryY=0;entryDx=0;entryDy=0;" edge="1" parent="1" source="rH8kfFjrYBLHn2jZ-WeP-1" target="xCPv4gILU43g7DDdmW0_-3">
          <mxGeometry relative="1" as="geometry" />
        </mxCell>
        <mxCell id="rH8kfFjrYBLHn2jZ-WeP-1" value="" style="rounded=1;whiteSpace=wrap;html=1;fillColor=#102e42;" vertex="1" parent="1">
          <mxGeometry x="650" y="190" width="190" height="220" as="geometry" />
        </mxCell>
        <mxCell id="rH8kfFjrYBLHn2jZ-WeP-2" value="" style="group" vertex="1" connectable="0" parent="1">
          <mxGeometry x="692" y="278" width="106" height="54" as="geometry" />
        </mxCell>
        <mxCell id="rH8kfFjrYBLHn2jZ-WeP-4" value="C" style="text;html=1;strokeColor=none;fillColor=none;align=center;verticalAlign=middle;whiteSpace=wrap;rounded=0;fontStyle=1;fontSize=100;fontColor=#FFFFFF;" vertex="1" parent="rH8kfFjrYBLHn2jZ-WeP-2">
          <mxGeometry width="60" height="30" as="geometry" />
        </mxCell>
        <mxCell id="rH8kfFjrYBLHn2jZ-WeP-5" value="ubit" style="text;html=1;strokeColor=none;fillColor=none;align=center;verticalAlign=middle;whiteSpace=wrap;rounded=0;fontStyle=1;fontSize=30;fontColor=#FFFFFF;" vertex="1" parent="rH8kfFjrYBLHn2jZ-WeP-2">
          <mxGeometry x="63" y="24" width="60" height="30" as="geometry" />
        </mxCell>
        <mxCell id="rH8kfFjrYBLHn2jZ-WeP-6" value="Base Cubit (Abstract)" style="rounded=1;whiteSpace=wrap;html=1;fontStyle=1;fontSize=14;" vertex="1" parent="1">
          <mxGeometry x="650" y="440" width="190" height="60" as="geometry" />
        </mxCell>
        <mxCell id="0lFSwXRIzKD7eDO08M2H-1" value="&lt;u style=&quot;font-weight: normal; font-size: 16px;&quot;&gt;Core functions:&lt;br style=&quot;font-size: 16px;&quot;&gt;&lt;/u&gt;&lt;span style=&quot;font-weight: normal; font-size: 16px;&quot;&gt;&lt;br style=&quot;font-size: 16px;&quot;&gt;- &lt;/span&gt;emit&lt;span style=&quot;font-weight: normal; font-size: 16px;&quot;&gt;&lt;br style=&quot;font-size: 16px;&quot;&gt;- &lt;/span&gt;close" style="rounded=1;whiteSpace=wrap;html=1;fontStyle=1;fontSize=16;align=left;spacingLeft=0;spacingRight=0;spacingTop=0;spacing=20;verticalAlign=top;" vertex="1" parent="1">
          <mxGeometry x="650" y="510" width="190" height="160" as="geometry" />
        </mxCell>
        <mxCell id="xCPv4gILU43g7DDdmW0_-1" value="&lt;u style=&quot;font-weight: normal; font-size: 16px;&quot;&gt;Props:&lt;br style=&quot;font-size: 16px;&quot;&gt;&lt;/u&gt;&lt;span style=&quot;font-weight: normal; font-size: 16px;&quot;&gt;&lt;br style=&quot;font-size: 16px;&quot;&gt;- &lt;/span&gt;eventSubject&lt;br&gt;&lt;span style=&quot;font-weight: normal;&quot;&gt;&lt;span style=&quot;white-space: pre;&quot;&gt;&#x9;&lt;/span&gt;PublishSubject&amp;lt;BaseEvent&amp;gt;()&lt;/span&gt;&lt;span style=&quot;font-weight: normal; font-size: 16px;&quot;&gt;&lt;br style=&quot;font-size: 16px;&quot;&gt;- &lt;/span&gt;eventStream&lt;br&gt;&lt;span style=&quot;font-weight: normal;&quot;&gt;&lt;span style=&quot;white-space: pre;&quot;&gt;&#x9;&lt;/span&gt;eventSubject.stream&lt;/span&gt;" style="rounded=1;whiteSpace=wrap;html=1;fontStyle=1;fontSize=16;align=left;spacingLeft=0;spacingRight=0;spacingTop=0;spacing=20;verticalAlign=top;" vertex="1" parent="1">
          <mxGeometry x="650" y="680" width="420" height="150" as="geometry" />
        </mxCell>
        <mxCell id="xCPv4gILU43g7DDdmW0_-3" value="Base Event (Abstract)" style="rounded=1;whiteSpace=wrap;html=1;fontStyle=1;fontSize=14;" vertex="1" parent="1">
          <mxGeometry x="880" y="440" width="190" height="60" as="geometry" />
        </mxCell>
        <mxCell id="xCPv4gILU43g7DDdmW0_-6" value="&lt;u style=&quot;font-weight: normal; font-size: 16px;&quot;&gt;Event functions:&lt;br style=&quot;font-size: 16px;&quot;&gt;&lt;/u&gt;&lt;span style=&quot;font-weight: normal; font-size: 16px;&quot;&gt;&lt;br style=&quot;font-size: 16px;&quot;&gt;&lt;/span&gt;&lt;span style=&quot;font-weight: normal; font-size: 16px;&quot;&gt;- &lt;/span&gt;handleError&lt;span style=&quot;font-weight: normal; font-size: 16px;&quot;&gt;&lt;br style=&quot;font-size: 16px;&quot;&gt;- &lt;/span&gt;showMessage&lt;span style=&quot;font-weight: normal; font-size: 16px;&quot;&gt;&lt;br style=&quot;font-size: 16px;&quot;&gt;- &lt;/span&gt;showLoading&lt;br style=&quot;font-size: 16px;&quot;&gt;&lt;span style=&quot;font-weight: normal; font-size: 16px;&quot;&gt;- &lt;/span&gt;hideLoading&lt;span style=&quot;font-weight: normal; font-size: 16px;&quot;&gt;,&lt;br style=&quot;font-size: 16px;&quot;&gt;&lt;br&gt;&lt;/span&gt;" style="rounded=1;whiteSpace=wrap;html=1;fontStyle=1;fontSize=16;align=left;spacingLeft=0;spacingRight=0;spacingTop=0;spacing=20;verticalAlign=top;" vertex="1" parent="1">
          <mxGeometry x="880" y="510" width="190" height="160" as="geometry" />
        </mxCell>
      </root>
    </mxGraphModel>
  </diagram>
  <diagram id="4PbnWvK8atQVOxJyGTWQ" name="state">
    <mxGraphModel dx="1120" dy="769" grid="1" gridSize="10" guides="1" tooltips="1" connect="1" arrows="1" fold="1" page="1" pageScale="1" pageWidth="827" pageHeight="1169" math="0" shadow="0">
      <root>
        <mxCell id="0" />
        <mxCell id="1" parent="0" />
        <mxCell id="J6A_O760rNccutxVncXp-1" style="edgeStyle=orthogonalEdgeStyle;rounded=0;orthogonalLoop=1;jettySize=auto;html=1;entryX=0;entryY=0.5;entryDx=0;entryDy=0;" edge="1" parent="1" source="J6A_O760rNccutxVncXp-2" target="J6A_O760rNccutxVncXp-7">
          <mxGeometry relative="1" as="geometry">
            <Array as="points">
              <mxPoint x="630" y="300" />
              <mxPoint x="630" y="471" />
              <mxPoint x="650" y="471" />
            </Array>
          </mxGeometry>
        </mxCell>
        <mxCell id="J6A_O760rNccutxVncXp-2" value="" style="rounded=1;whiteSpace=wrap;html=1;fillColor=#102e42;" vertex="1" parent="1">
          <mxGeometry x="650" y="190" width="190" height="220" as="geometry" />
        </mxCell>
        <mxCell id="J6A_O760rNccutxVncXp-3" value="" style="group" vertex="1" connectable="0" parent="1">
          <mxGeometry x="692" y="278" width="106" height="54" as="geometry" />
        </mxCell>
        <mxCell id="J6A_O760rNccutxVncXp-5" value="S" style="text;html=1;strokeColor=none;fillColor=none;align=center;verticalAlign=middle;whiteSpace=wrap;rounded=0;fontStyle=1;fontSize=100;fontColor=#FFFFFF;" vertex="1" parent="J6A_O760rNccutxVncXp-3">
          <mxGeometry width="60" height="30" as="geometry" />
        </mxCell>
        <mxCell id="J6A_O760rNccutxVncXp-6" value="tate" style="text;html=1;strokeColor=none;fillColor=none;align=center;verticalAlign=middle;whiteSpace=wrap;rounded=0;fontStyle=1;fontSize=30;fontColor=#FFFFFF;" vertex="1" parent="J6A_O760rNccutxVncXp-3">
          <mxGeometry x="63" y="24" width="60" height="30" as="geometry" />
        </mxCell>
        <mxCell id="J6A_O760rNccutxVncXp-7" value="Base State (Abstract)" style="rounded=1;whiteSpace=wrap;html=1;fontStyle=1;fontSize=14;" vertex="1" parent="1">
          <mxGeometry x="650" y="440" width="220" height="60" as="geometry" />
        </mxCell>
        <mxCell id="J6A_O760rNccutxVncXp-8" value="&lt;u style=&quot;font-weight: normal; font-size: 16px;&quot;&gt;Props:&lt;br style=&quot;font-size: 16px;&quot;&gt;&lt;/u&gt;&lt;span style=&quot;font-weight: normal; font-size: 16px;&quot;&gt;&lt;br style=&quot;font-size: 16px;&quot;&gt;&lt;/span&gt;&lt;span style=&quot;font-weight: 400;&quot;&gt;-&amp;nbsp;&lt;/span&gt;stateComparisonProps&lt;span style=&quot;font-weight: normal; font-size: 16px;&quot;&gt;&lt;br&gt;&lt;/span&gt;" style="rounded=1;whiteSpace=wrap;html=1;fontStyle=1;fontSize=16;align=left;spacingLeft=0;spacingRight=0;spacingTop=0;spacing=20;verticalAlign=top;" vertex="1" parent="1">
          <mxGeometry x="650" y="510" width="220" height="110" as="geometry" />
        </mxCell>
      </root>
    </mxGraphModel>
  </diagram>
  <diagram id="t58K1mP3CG759rXrcYsL" name="view">
    <mxGraphModel dx="996" dy="683" grid="1" gridSize="10" guides="1" tooltips="1" connect="1" arrows="1" fold="1" page="1" pageScale="1" pageWidth="827" pageHeight="1169" math="0" shadow="0">
      <root>
        <mxCell id="0" />
        <mxCell id="1" parent="0" />
        <mxCell id="ZIoOGGT9zz0PksBr-VGT-1" style="edgeStyle=orthogonalEdgeStyle;rounded=0;orthogonalLoop=1;jettySize=auto;html=1;entryX=0;entryY=0.5;entryDx=0;entryDy=0;" edge="1" parent="1" source="ZIoOGGT9zz0PksBr-VGT-2" target="ZIoOGGT9zz0PksBr-VGT-7">
          <mxGeometry relative="1" as="geometry">
            <Array as="points">
              <mxPoint x="630" y="300" />
              <mxPoint x="630" y="471" />
              <mxPoint x="650" y="471" />
            </Array>
          </mxGeometry>
        </mxCell>
        <mxCell id="ZIoOGGT9zz0PksBr-VGT-2" value="" style="rounded=1;whiteSpace=wrap;html=1;fillColor=#102e42;" vertex="1" parent="1">
          <mxGeometry x="650" y="190" width="190" height="220" as="geometry" />
        </mxCell>
        <mxCell id="ZIoOGGT9zz0PksBr-VGT-3" value="" style="group" vertex="1" connectable="0" parent="1">
          <mxGeometry x="692" y="278" width="106" height="54" as="geometry" />
        </mxCell>
        <mxCell id="ZIoOGGT9zz0PksBr-VGT-5" value="V" style="text;html=1;strokeColor=none;fillColor=none;align=center;verticalAlign=middle;whiteSpace=wrap;rounded=0;fontStyle=1;fontSize=100;fontColor=#FFFFFF;" vertex="1" parent="ZIoOGGT9zz0PksBr-VGT-3">
          <mxGeometry width="60" height="30" as="geometry" />
        </mxCell>
        <mxCell id="ZIoOGGT9zz0PksBr-VGT-6" value="iew" style="text;html=1;strokeColor=none;fillColor=none;align=center;verticalAlign=middle;whiteSpace=wrap;rounded=0;fontStyle=1;fontSize=30;fontColor=#FFFFFF;" vertex="1" parent="ZIoOGGT9zz0PksBr-VGT-3">
          <mxGeometry x="52" y="24" width="60" height="30" as="geometry" />
        </mxCell>
        <mxCell id="ZIoOGGT9zz0PksBr-VGT-7" value="Base View (Abstract)" style="rounded=1;whiteSpace=wrap;html=1;fontStyle=1;fontSize=14;" vertex="1" parent="1">
          <mxGeometry x="650" y="440" width="190" height="60" as="geometry" />
        </mxCell>
        <mxCell id="ZIoOGGT9zz0PksBr-VGT-8" value="&lt;u style=&quot;font-weight: normal; font-size: 16px;&quot;&gt;Override functions:&lt;br style=&quot;font-size: 16px;&quot;&gt;&lt;/u&gt;&lt;span style=&quot;font-weight: normal; font-size: 16px;&quot;&gt;&lt;br style=&quot;font-size: 16px;&quot;&gt;- &lt;/span&gt;&lt;span style=&quot;font-size: 16px;&quot;&gt;buildByState&lt;br&gt;&lt;span style=&quot;font-weight: normal;&quot;&gt;- &lt;/span&gt;wantToKeepAlive&lt;br&gt;- onStateChanged&lt;br&gt;- onNewEvent&lt;br&gt;- getErrorMessage&lt;br&gt;- getMessage&lt;br&gt;- showMessage&lt;br&gt;- showError&lt;br&gt;&lt;/span&gt;" style="rounded=1;whiteSpace=wrap;html=1;fontStyle=1;fontSize=16;align=left;spacingLeft=0;spacingRight=0;spacingTop=0;spacing=20;verticalAlign=top;" vertex="1" parent="1">
          <mxGeometry x="650" y="510" width="190" height="230" as="geometry" />
        </mxCell>
      </root>
    </mxGraphModel>
  </diagram>
</mxfile>
